*
*
G04 PADS 9.5 Build Number: 522968 generated Gerber (RS-274-X) file*
G04 PC Version=2.1*
*
%IN "dcPower.pcb"*%
*
%MOIN*%
*
%FSLAX35Y35*%
*
*
*
*
G04 PC Standard Apertures*
*
*
G04 Thermal Relief Aperture macro.*
%AMTER*
1,1,$1,0,0*
1,0,$1-$2,0,0*
21,0,$3,$4,0,0,45*
21,0,$3,$4,0,0,135*
%
*
*
G04 Annular Aperture macro.*
%AMANN*
1,1,$1,0,0*
1,0,$2,0,0*
%
*
*
G04 Odd Aperture macro.*
%AMODD*
1,1,$1,0,0*
1,0,$1-0.005,0,0*
%
*
*
G04 PC Custom Aperture Macros*
*
*
*
*
*
*
G04 PC Aperture Table*
*
%ADD010C,0.001*%
%ADD017C,0.07087*%
%ADD019C,0.06299*%
%ADD023R,0.06102X0.06102*%
%ADD024C,0.06102*%
%ADD026C,0.05906*%
%ADD027C,0.1*%
%ADD029C,0.07874*%
%ADD035C,0.27559*%
%ADD036R,0.05906X0.05906*%
%ADD041R,0.07874X0.07874*%
%ADD042C,0.01*%
%ADD043C,0.03937*%
%ADD044C,0.01181*%
%ADD045C,0.01969*%
%ADD046C,0.00787*%
%ADD049C,0.02559*%
%ADD052C,0.00984*%
*
*
*
*
G04 PC Circuitry*
G04 Layer Name dcPower.pcb - circuitry*
%LPD*%
*
*
G04 PC Custom Flashes*
G04 Layer Name dcPower.pcb - flashes*
%LPD*%
*
*
G04 PC Circuitry*
G04 Layer Name dcPower.pcb - circuitry*
%LPD*%
*
G54D10*
G54D17*
G01X145276Y115748D03*
X159055D03*
X172835D03*
X255512D03*
X269291D03*
X283071D03*
X361811D03*
X375591D03*
X389370D03*
X468110D03*
X481890D03*
X495669D03*
X694488D03*
X708268D03*
X592126D03*
X619685D03*
X414173Y478346D03*
X400394D03*
X386614D03*
X372835D03*
X359055D03*
G54D19*
X525197Y187992D03*
Y137992D03*
X511417Y187992D03*
Y137992D03*
X412992Y187992D03*
Y137992D03*
X304724Y187992D03*
Y137992D03*
X290945Y187992D03*
Y137992D03*
X184646Y188976D03*
Y138976D03*
X170866Y188976D03*
Y138976D03*
X399213Y187992D03*
Y137992D03*
X562205Y189173D03*
Y139173D03*
X576378Y167126D03*
Y117126D03*
G54D23*
X233858Y180709D03*
X117717D03*
X458268D03*
X348031D03*
G54D24*
X233858Y140709D03*
X117717D03*
X458268D03*
X348031D03*
G54D26*
X690551Y290945D03*
X700551D03*
X690551Y322441D03*
X700551D03*
X115591Y387402D03*
X125591Y397402D03*
X115591D03*
X125591Y407402D03*
X115591D03*
X125591Y417402D03*
X115591D03*
X125591Y427402D03*
X115591D03*
X125591Y437402D03*
X115591D03*
X125591Y447402D03*
X115591D03*
X320079Y193701D02*
Y232283D01*
X315748Y236614*
X302756*
X316142Y259843D02*
Y267965D01*
X309449Y274803*
X262205*
G54D27*
X740551Y290945D03*
X760551D03*
X740551Y322441D03*
X760551D03*
G54D29*
X777165Y233858D03*
Y247638D03*
Y261417D03*
Y275197D03*
Y288976D03*
Y302756D03*
Y316535D03*
Y330315D03*
Y353937D03*
Y367717D03*
Y381496D03*
Y395276D03*
Y409055D03*
Y422835D03*
Y436614D03*
Y450394D03*
X184252Y305512D03*
Y285827D03*
Y266142D03*
X243307D03*
Y285827D03*
Y305512D03*
Y325197D03*
X407087Y304724D03*
Y285039D03*
Y265354D03*
X466142D03*
Y285039D03*
Y304724D03*
Y324409D03*
X671654Y395276D03*
X691339D03*
X711024D03*
Y454331D03*
X691339D03*
X671654D03*
X651969D03*
X633465Y196063D03*
Y176378D03*
Y156693D03*
X692520D03*
Y176378D03*
Y196063D03*
Y215748D03*
X740551Y290945D02*
Y298819D01*
X744488Y302756*
X777165*
Y288976D02*
X760551D01*
Y290945*
X740551Y322441D02*
Y332283D01*
X746457Y338189*
X769291*
X777165Y330315*
Y316535D02*
X766457D01*
X760551Y322441*
G54D35*
X116298Y116298D03*
Y478503D03*
X793463D03*
Y116298D03*
X336377Y115904D03*
G54D36*
X125591Y387402D03*
G54D41*
X184252Y325197D03*
X407087Y324409D03*
X651969Y395276D03*
X633465Y215748D03*
G54D42*
X405037Y478346D02*
G75*
G03X405037I-4643J0D01*
G01X391258D02*
G03X391258I-4644J0D01*
G01X377478D02*
G03X377478I-4643J0D01*
G01X363698D02*
G03X363698I-4643J0D01*
G01X119643Y397402D02*
G03X119643I-4052J0D01*
G01Y407402D02*
G03X119643I-4052J0D01*
G01Y417402D02*
G03X119643I-4052J0D01*
G01Y427402D02*
G03X119643I-4052J0D01*
G01Y437402D02*
G03X119643I-4052J0D01*
G01X129643Y407402D02*
G03X129643I-4052J0D01*
G01Y427402D02*
G03X129643I-4052J0D01*
G01X529446Y137992D02*
G03X529446I-4249J0D01*
G01X488895Y238189D02*
G03X488895I-3068J0D01*
G01X424303Y112417D02*
Y268685D01*
G03X423803Y269185I-500J0*
G01X411510*
G03X411110Y268384I-0J-500*
G01X403063D02*
G03X411110I4024J-3030D01*
G01X403063D02*
G03X402663Y269185I-400J301D01*
G01X376100*
G03X375601Y268722I0J-500*
G01X371684Y267087D02*
G03X375601Y268722I1544J1811D01*
G01X371684Y267087D02*
G03X371359Y267207I-325J-380D01*
G01X363680*
G03X363356Y267087I0J-500*
G01X359438Y268722D02*
G03X363355Y267087I2373J176D01*
G01X359438Y268722D02*
G03X358939Y269185I-499J-37D01*
G01X340370*
G03X339870Y268685I0J-500*
G01Y170887*
G03X340017Y170533I500J-0*
G01X384058Y126492*
G03X384765I353J353*
G01X394921Y136648*
G03X395056Y137106I-354J354*
G01X402017Y141185D02*
G03X395056Y137106I-2804J-3193D01*
G01X402017Y141185D02*
G03X402347Y141061I330J376D01*
G01X409858*
G03X410188Y141185I-0J500*
G01Y134799D02*
G03Y141185I2804J3193D01*
G01Y134799D02*
G03X409858Y134924I-330J-375D01*
G01X402347*
G03X402017Y134799I0J-500*
G01X398326Y133836D02*
G03X402017Y134799I887J4156D01*
G01X398326Y133836D02*
G03X397869Y133700I-104J-489D01*
G01X387712Y123544*
G03Y122837I354J-353*
G01X390135Y120415*
G03X390380Y120280I353J353*
G01X393902Y116758D02*
G03X390380Y120280I-4532J-1010D01*
G01X393902Y116758D02*
G03X394037Y116513I488J108D01*
G01X398486Y112064*
G03X398839Y111917I353J353*
G01X423803*
G03X424303Y112417I0J500*
G01X314461Y250535D02*
Y268685D01*
G03X313961Y269185I-500J0*
G01X301531*
G03X301060Y268517I-0J-500*
G01X297274Y265906D02*
G03X301060Y268517I1545J1811D01*
G01X297274Y265906D02*
G03X296950Y266026I-324J-380D01*
G01X259195*
G03X258842Y265880I0J-500*
G01X248294Y255332*
G03X248147Y254978I353J-354*
G01Y229195*
G03X248340Y228800I500J0*
G01X244573D02*
G03X248340I1884J-2422D01*
G01X244573D02*
G03X244766Y229195I-307J395D01*
G01Y255885*
X245261Y257081D02*
G03X244766Y255885I1196J-1196D01*
G01X245261Y257081D02*
X256512Y268331D01*
G03X256158Y269185I-354J354*
G01X248225*
G03X247781Y268455I0J-500*
G01X238833D02*
G03X247781I4474J-2313D01*
G01X238833D02*
G03X238389Y269185I-444J230D01*
G01X236246*
G03X235746Y268685I-0J-500*
G01Y264864*
G03X235892Y264510I500J-0*
G01X241934Y258469*
X242832Y256299D02*
G03X241934Y258469I-3068J0D01*
G01X242832Y256299D02*
Y252756D01*
X236695D02*
G03X242832I3069J-0D01*
G01X236695D02*
Y254821D01*
G03X236549Y255175I-500J0*
G01X230881Y260842*
G03X230028Y260489I-353J-353*
G01Y185335*
G03X230615Y184843I500J0*
G01X230807Y184860D02*
G03X230615Y184843I0J-1100D01*
G01X230807Y184860D02*
X236909D01*
X238009Y183760D02*
G03X236909Y184860I-1100J-0D01*
G01X238009Y183760D02*
Y177657D01*
X236909Y176557D02*
G03X238009Y177657I0J1100D01*
G01X236909Y176557D02*
X230807D01*
X230615Y176574D02*
G03X230807Y176557I192J1083D01*
G01X230615Y176574D02*
G03X230028Y176082I-87J-492D01*
G01Y170887*
G03X230174Y170533I500J-0*
G01X274602Y126105*
G03X275309I353J354*
G01X286557Y137354*
G03X286703Y137737I-353J353*
G01X293749Y141185D02*
G03X286703Y137737I-2804J-3193D01*
G01X293749Y141185D02*
G03X294079Y141061I330J376D01*
G01X301590*
G03X301920Y141185I-0J500*
G01Y134799D02*
G03Y141185I2804J3193D01*
G01Y134799D02*
G03X301590Y134924I-330J-375D01*
G01X294079*
G03X293749Y134799I0J-500*
G01X291833Y133836D02*
G03X293749Y134799I-888J4156D01*
G01X291833Y133836D02*
G03X291584Y133701I104J-489D01*
G01X279649Y121766*
G03Y121059I353J-354*
G01X280617Y120090*
G03X281175Y119987I354J353*
G01X287310Y113852D02*
G03X281175Y119987I-4239J1896D01*
G01X287310Y113852D02*
G03X287412Y113295I456J-204D01*
G01X288643Y112064*
G03X288997Y111917I354J353*
G01X313961*
G03X314461Y112417I-0J500*
G01Y231963*
G03X314314Y232317I-500J-0*
G01X314216Y232415*
G03X313862Y232561I-354J-354*
G01X302756*
X298749Y236009D02*
G03X302756Y232561I4007J605D01*
G01X298749Y236009D02*
G03X298608Y236288I-495J-75D01*
G01X291857Y243038*
X291420Y244094D02*
G03X291857Y243038I1493J0D01*
G01X291420Y244094D02*
Y253434D01*
G03X291266Y253795I-500J0*
G01X291157Y257118D02*
G03X291266Y253795I1756J-1606D01*
G01X291157Y257118D02*
G03X290788Y257955I-369J337D01*
G01X262891*
G03X262614Y257871I0J-500*
G01X261151Y256896*
X257747Y262002D02*
G03X261151Y256896I1702J-2553D01*
G01X257747Y262002D02*
X260109Y263577D01*
X261811Y264092D02*
G03X260109Y263577I0J-3068D01*
G01X261811Y264092D02*
X298425D01*
X300595Y263193D02*
G03X298425Y264092I-2170J-2169D01*
G01X300595Y263193D02*
X313607Y250181D01*
G03X314461Y250535I354J354*
G01X201862Y112417D02*
Y268685D01*
G03X201362Y269185I-500J0*
G01X189170*
G03X188726Y268455I0J-500*
G01X179778D02*
G03X188726I4474J-2313D01*
G01X179778D02*
G03X179334Y269185I-444J230D01*
G01X146232*
G03X145998Y268243I0J-500*
G01X143337Y264332D02*
G03X145998Y268243I1545J1810D01*
G01X143337Y264332D02*
G03X143013Y264451I-324J-381D01*
G01X123523*
G03X123198Y264332I-0J-500*
G01X120538Y268243D02*
G03X123198Y264332I1116J-2101D01*
G01X120538Y268243D02*
G03X120303Y269185I-235J442D01*
G01X117929*
G03X117429Y268685I0J-500*
G01Y262664*
G03X118029Y262174I500J0*
G01X120048Y261653D02*
G03X118029Y262174I-1544J-1810D01*
G01X120048Y261653D02*
G03X120373Y261533I325J380D01*
G01X123622*
X124817Y261038D02*
G03X123622Y261533I-1195J-1195D01*
G01X124817Y261038D02*
X128900Y256955D01*
G03X129254Y256809I354J354*
G01X151674*
G03X151999Y256928I0J500*
G01Y253308D02*
G03Y256928I1544J1810D01*
G01Y253308D02*
G03X151674Y253428I-325J-380D01*
G01X128346*
X127151Y253923D02*
G03X128346Y253428I1195J1195D01*
G01X127151Y253923D02*
X123068Y258006D01*
Y258005D02*
G03X122715Y258152I-353J-353D01*
G01X120373*
G03X120048Y258032I-0J-500*
G01X118029Y257511D02*
G03X120048Y258032I475J2332D01*
G01X118029Y257511D02*
G03X117429Y257021I-100J-490D01*
G01Y247466*
G03X117929Y246966I500J0*
G01X132383*
G03X132707Y247086I-0J500*
G01Y243465D02*
G03Y247086I1545J1811D01*
G01Y243465D02*
G03X132383Y243585I-324J-380D01*
G01X131962*
G03X131676Y242675I-0J-500*
G01X132344Y242041D02*
G03X131676Y242675I-2423J-1884D01*
G01X132344Y242041D02*
G03X132738Y241848I394J307D01*
G01X145608*
G03X146003Y242041I0J500*
G01Y238274D02*
G03Y242041I2422J1883D01*
G01Y238274D02*
G03X145608Y238467I-395J-307D01*
G01X132738*
G03X132344Y238274I0J-500*
G01X128167Y242675D02*
G03X132344Y238274I1754J-2518D01*
G01X128167Y242675D02*
G03X127881Y243585I-286J410D01*
G01X117929*
G03X117429Y243085I0J-500*
G01Y185360*
G03X117929Y184860I500J-0*
G01X120768*
X121868Y183760D02*
G03X120768Y184860I-1100J-0D01*
G01X121868Y183760D02*
Y177657D01*
X120768Y176557D02*
G03X121868Y177657I-0J1100D01*
G01X120768Y176557D02*
X117929D01*
G03X117429Y176057I0J-500*
G01Y170887*
G03X117576Y170533I500J-0*
G01X157476Y130633*
G03X158183I353J353*
G01X166480Y138930*
G03X166625Y139251I-354J353*
G01X173671Y142169D02*
G03X166625Y139251I-2805J-3193D01*
G01X173671Y142169D02*
G03X174001Y142045I330J376D01*
G01X181511*
G03X181841Y142169I0J500*
G01Y135784D02*
G03Y142169I2805J3192D01*
G01Y135784D02*
G03X181511Y135908I-330J-376D01*
G01X174001*
G03X173671Y135784I-0J-500*
G01X171141Y134736D02*
G03X173671Y135784I-275J4240D01*
G01X171141Y134736D02*
G03X170820Y134590I32J-499D01*
G01X162523Y126293*
G03Y125586I353J-353*
G01X168963Y119146*
G03X169658Y119135I353J354*
G01X176373Y112741D02*
G03X169658Y119135I-3538J3007D01*
G01X176373Y112741D02*
G03X176754Y111917I381J-324D01*
G01X201362*
G03X201862Y112417I0J500*
G01X677453Y339789D02*
Y360605D01*
G03X676953Y361105I-500J-0*
G01X673859*
G03X673440Y360332I0J-500*
G01X668444Y356778D02*
G03X673440Y360332I2422J1883D01*
G01X668444Y356778D02*
G03X668049Y356971I-395J-307D01*
G01X494307*
G03X493807Y356471I0J-500*
G01Y330528*
G03X494307Y330028I500J-0*
G01X520064*
G03X520232Y330056I0J500*
G01X521260Y330234D02*
G03X520232Y330056I-0J-3069D01*
G01X521260Y330234D02*
X540551D01*
X542721Y329335D02*
G03X540551Y330234I-2170J-2170D01*
G01X542721Y329335D02*
X544825Y327231D01*
G03X545179Y327084I354J353*
G01X598031*
X637008*
X639178Y321846D02*
G03X637008Y327084I-2170J2170D01*
G01X639178Y321846D02*
X638784Y321452D01*
X635213Y320892D02*
G03X638784Y321452I1401J2730D01*
G01X635213Y320892D02*
G03X634985Y320947I-228J-445D01*
G01X598031*
X547896*
G03X547543Y320094I0J-500*
G01X548280Y319357*
G03X548633Y319210I353J353*
G01X663182*
G03X663597Y319431I0J500*
G01X666638Y320745D02*
G03X663597Y319431I-496J-3028D01*
G01X666638Y320745D02*
G03X667190Y321407I81J493D01*
G01X672195Y324663D02*
G03X667190Y321407I-2116J-2222D01*
G01X672195Y324663D02*
G03X672540Y324525I345J362D01*
G01X676953*
G03X677453Y325025I-0J500*
G01Y332652*
G03X676953Y333152I-500J-0*
G01X563780*
Y339289D02*
G03Y333152I-0J-3069D01*
G01Y339289D02*
X676953D01*
G03X677453Y339789I-0J500*
G01Y367742D02*
Y378921D01*
G03X676953Y379421I-500J0*
G01X577453*
Y384227*
G03X576953Y384727I-500J-0*
G01X535827*
X534771Y385164D02*
G03X535827Y384727I1056J1056D01*
G01X534771Y385164D02*
X531122Y388813D01*
G03X530758Y388960I-354J-353*
G01X533088Y391290D02*
G03X530758Y388960I-2379J49D01*
G01X533088Y391290D02*
G03X533234Y390926I500J-11D01*
G01X536299Y387861*
G03X536653Y387714I354J353*
G01X576953*
G03X577453Y388214I-0J500*
G01Y437573*
G03X576953Y438073I-500J0*
G01X552088*
G03X551735Y437927I0J-500*
G01X546470Y432662*
G03X546824Y431809I354J-353*
G01X558268*
Y425672D02*
G03Y431809I-0J3068D01*
G01Y425672D02*
X533071D01*
X530395Y430242D02*
G03X533071Y425672I2676J-1502D01*
G01X530395Y430242D02*
G03X529959Y430987I-436J245D01*
G01X512205*
X511130Y431372D02*
G03X512205Y430987I1075J1305D01*
G01X511130Y431372D02*
G03X510849Y431485I-318J-385D01*
G01X508780Y434651D02*
G03X510849Y431485I2244J-793D01*
G01X508780Y434651D02*
G03X508308Y435317I-472J166D01*
G01X489370*
X488175Y435812D02*
G03X489370Y435317I1195J1196D01*
G01X488175Y435812D02*
X486740Y437247D01*
G03X486426Y437392I-353J-354*
G01X487585Y441936D02*
G03X486426Y437392I-971J-2172D01*
G01X487585Y441937D02*
G03X488114Y442014I203J456D01*
X488247Y441495I476J-155*
G01X488986Y439952D02*
G03X488247Y441495I-2372J-188D01*
G01X488986Y439952D02*
G03X489131Y439638I499J39D01*
G01X489924Y438845*
G03X490277Y438698I353J353*
G01X521359*
G03X521684Y438818I0J500*
G01X524820Y435239D02*
G03X521684Y438818I-1592J1769D01*
G01X524820Y435239D02*
G03X525155Y434368I335J-371D01*
G01X543187*
G03X543541Y434514I0J500*
G01X549986Y440959*
X551181Y441454D02*
G03X549986Y440959I0J-1690D01*
G01X551181Y441454D02*
X576953D01*
G03X577453Y441954I-0J500*
G01Y470185*
X631552*
G03X631905Y471039I-0J500*
G01X630962Y471982*
G03X630608Y472128I-354J-354*
G01X566994*
G03X566544Y471411I0J-500*
G01X563771Y467010D02*
G03X566544Y471411I9J3069D01*
G01X563771Y467010D02*
X434498Y467350D01*
G03X434241Y466419I-2J-500*
G01X432677Y460711D02*
G03X434241Y466419I0J3069D01*
G01X432677Y460711D02*
X386614D01*
X383711Y464773D02*
G03X386614Y460711I2903J-993D01*
G01X383711Y464773D02*
G03X383238Y465435I-473J162D01*
G01X362598*
X357887*
X334474*
G03X333974Y464941I-0J-500*
G01X333479Y463765D02*
G03X333974Y464941I-1196J1196D01*
G01X333479Y463765D02*
X327179Y457465D01*
G03X327533Y456612I354J-353*
G01X451448*
G03X451607Y457586I0J500*
G01X452609Y462209D02*
G03X451607Y457586I-247J-2366D01*
G01X452609Y462209D02*
G03X452983Y462325I51J498D01*
G01X456515Y465314*
X457480Y465667D02*
G03X456515Y465314I0J-1494D01*
G01X457480Y465667D02*
X507480D01*
X508537Y465229D02*
G03X507480Y465667I-1057J-1056D01*
G01X508537Y465229D02*
X508642Y465124D01*
G03X509006Y464977I354J353*
G01X506701Y462252D02*
G03X509006Y464977I2354J346D01*
G01X506701Y462252D02*
G03X506206Y462680I-495J-72D01*
G01X493924*
G03X493694Y461736I0J-500*
G01X493963Y461562D02*
G03X493694Y461736I-1050J-1326D01*
G01X493963Y461562D02*
X501946Y455241D01*
G03X502275Y455134I311J393*
G01X503954Y450987D02*
G03X502275Y455134I-1592J1769D01*
G01X503954Y450987D02*
G03X504289Y450116I335J-371D01*
G01X507580*
G03X507904Y450235I-0J500*
G01X511341Y446982D02*
G03X507904Y450235I-1892J1443D01*
G01X511341Y446982D02*
G03X511738Y446179I397J-303D01*
G01X525296*
G03X525621Y446298I0J500*
G01Y442678D02*
G03Y446298I1544J1810D01*
G01Y442678D02*
G03X525296Y442798I-325J-380D01*
G01X491633*
G03X491308Y442678I-0J-500*
G01X488793Y442315D02*
G03X491308Y442678I971J2173D01*
G01X488793Y442315D02*
G03X488264Y442238I-203J-456D01*
X488131Y442757I-476J155*
G01X487872Y445931D02*
G03X488131Y442757I1892J-1443D01*
G01X487872Y445931D02*
G03X487474Y446735I-398J304D01*
G01X471948*
G03X471623Y446615I-0J-500*
G01X471469Y446494D02*
G03X471623Y446615I-1390J1931D01*
G01X471469Y446494D02*
G03X471761Y445588I292J-406D01*
G01X479921*
Y439451D02*
G03Y445588I0J3069D01*
G01Y439451D02*
X434802D01*
G03X434433Y438614I0J-500*
G01X430960Y435360D02*
G03X434433Y438614I1717J1648D01*
G01X430960Y435360D02*
G03X430599Y435514I-361J-346D01*
G01X420117*
G03X419764Y435368I0J-500*
G01X414730Y430334*
G03X414584Y429970I354J-353*
G01X412254Y432300D02*
G03X414584Y429970I-49J-2379D01*
G01X412254Y432300D02*
G03X412618Y432447I10J500D01*
G01X418235Y438064*
X419291Y438502D02*
G03X418235Y438064I0J-1494D01*
G01X419291Y438502D02*
X424599D01*
G03X424683Y439495I0J500*
G01X422878Y444529D02*
G03X424683Y439495I2319J-2009D01*
G01X422878Y444529D02*
G03X422500Y445357I-378J328D01*
G01X404440*
G03X404079Y445203I-0J-500*
G01Y448498D02*
G03Y445203I-1717J-1648D01*
G01Y448498D02*
G03X404440Y448344I361J346D01*
G01X455473*
G03X455827Y448491I0J500*
G01X456923Y449587*
G03X457070Y449951I-353J354*
G01X457249Y450908D02*
G03X457070Y449951I2200J-908D01*
G01X457249Y450908D02*
G03X456703Y451592I-462J191D01*
G01X454016Y453265D02*
G03X456703Y451592I2283J672D01*
G01X454016Y453265D02*
G03X453537Y453624I-479J-141D01*
G01X387895*
G03X387399Y453060I0J-500*
G01X383322Y451108D02*
G03X387399Y453060I1717J1648D01*
G01X383322Y451108D02*
G03X382962Y451262I-360J-346D01*
G01X340039*
G03X339581Y450561I-0J-500*
G01X337353Y447227D02*
G03X339581Y450561I49J2379D01*
G01X337352Y447227D02*
G03X336989Y447081I-10J-500D01*
G01X335168Y445261*
G03X335522Y444407I354J-354*
G01X340945*
X342001Y443970D02*
G03X340945Y444407I-1056J-1057D01*
G01X342001Y443970D02*
X342205Y443766D01*
G03X342558Y443620I353J354*
G01X348404*
G03X348886Y444252I0J500*
G01X352816Y446611D02*
G03X348886Y444252I-1635J-1729D01*
G01X352816Y446611D02*
G03X353160Y446474I344J363D01*
G01X363376*
G03X363719Y446611I-0J500*
G01X367649Y444252D02*
G03X363719Y446611I-2295J630D01*
G01X367649Y444252D02*
G03X368131Y443620I482J-132D01*
G01X385734*
G03X386228Y444047I-0J500*
G01X390588Y442420D02*
G03X386228Y444047I-2005J1281D01*
G01X390588Y442420D02*
G03X391010Y441651I422J-269D01*
G01X395560*
G03X395921Y441805I0J500*
G01X397062Y437849D02*
G03X395921Y441805I576J2308D01*
G01X397062Y437849D02*
G03X396447Y437438I-121J-486D01*
G01X394654Y435482D02*
G03X396447Y437438I-560J2313D01*
G01X394654Y435482D02*
G03X394312Y434799I117J-486D01*
G01X391124Y431700D02*
G03X394312Y434799I1002J2158D01*
G01X391124Y431700D02*
G03X390441Y431085I-210J-454D01*
G01X390549Y430010D02*
G03X390441Y431085I-2360J305D01*
G01X390549Y430010D02*
G03X391045Y429446I496J-64D01*
G01X401629*
G03X401983Y429593I0J500*
G01X403732Y431343*
G03X403818Y431456I-353J353*
G01X405098Y428077D02*
G03X403818Y431456I808J2238D01*
G01X405098Y428077D02*
G03X404575Y427960I-170J-471D01*
G01X403511Y426897*
X402455Y426459D02*
G03X403511Y426897I0J1494D01*
G01X402455Y426459D02*
X380709D01*
X379652Y426897D02*
G03X380709Y426459I1057J1056D01*
G01X379652Y426897D02*
X377874Y428675D01*
G03X377521Y428821I-353J-354*
G01X339154*
G03X338801Y428675I0J-500*
G01X338597Y428471*
X337842Y428064D02*
G03X338597Y428471I-301J1464D01*
G01X337842Y428064D02*
G03X337576Y427914I101J-489D01*
G01X333532Y430157D02*
G03X337576Y427914I2295J-629D01*
G01X333532Y430157D02*
G03X333050Y430790I-482J133D01*
G01X325629*
G03X325275Y430643I-0J-500*
G01X323103Y428471*
X322047Y428034D02*
G03X323103Y428471I0J1494D01*
G01X322047Y428034D02*
X295708D01*
G03X295354Y427887I-0J-500*
G01X295151Y427684*
X294094Y427246D02*
G03X295151Y427684I0J1494D01*
G01X294094Y427246D02*
X280709D01*
X279694Y427644D02*
G03X280709Y427246I1015J1096D01*
G01X279694Y427644D02*
G03X279043Y427667I-339J-367D01*
G01X279276Y431175D02*
G03X279043Y427667I-1717J-1647D01*
G01X279276Y431175D02*
G03X279637Y431021I361J346D01*
G01X279921*
X280977Y430584D02*
G03X279921Y431021I-1056J-1056D01*
G01X280977Y430584D02*
X281181Y430380D01*
G03X281534Y430234I353J354*
G01X286593*
G03X287075Y430866I0J500*
G01X287633Y433123D02*
G03X287075Y430866I1737J-1627D01*
G01X287633Y433123D02*
G03Y433806I-365J342D01*
G01X287010Y435738D02*
G03X287633Y433806I2360J-305D01*
G01X287010Y435738D02*
G03X286514Y436302I-496J64D01*
G01X279953*
G03X279537Y436079I0J-500*
G01X278889Y439374D02*
G03X279537Y436079I-1330J-1972D01*
G01X278889Y439374D02*
G03X279169Y439289I280J415D01*
G01X334546*
G03X335042Y439853I-0J500*
G01X335107Y440787D02*
G03X335042Y439853I2295J-630D01*
G01X335107Y440787D02*
G03X334625Y441420I-482J133D01*
G01X325984*
X325558Y441482D02*
G03X325984Y441420I426J1431D01*
G01X325558Y441482D02*
G03X325241Y441471I-143J-479D01*
G01X322049Y444005D02*
G03X325241Y441471I2360J-304D01*
G01X322049Y444005D02*
G03X321554Y444569I-495J64D01*
G01X308682*
G03X308200Y443937I0J-500*
G01X304189Y441660D02*
G03X308200Y443937I1717J1647D01*
G01X304189Y441660D02*
G03X303828Y441813I-361J-347D01*
G01X274842*
G03X274488Y441667I-0J-500*
G01X269166Y436345*
X268110Y435908D02*
G03X269166Y436345I0J1494D01*
G01X268110Y435908D02*
X129684D01*
G03X129234Y435627I-0J-500*
G01Y439176D02*
G03Y435627I-3643J-1774D01*
G01Y439176D02*
G03X129684Y438895I450J219D01*
G01X267284*
G03X267638Y439042I0J500*
G01X271131Y442535*
G03X270777Y443388I-354J353*
G01X161133*
G03X160772Y443234I-0J-500*
G01X156940Y443791D02*
G03X160772Y443234I2115J1091D01*
G01X156940Y443791D02*
G03X156052I-444J-229D01*
G01X152220Y443234D02*
G03X156052Y443791I1717J1648D01*
G01X152220Y443234D02*
G03X151859Y443388I-361J-346D01*
G01X134016*
X133110Y443694D02*
G03X134016Y443388I906J1188D01*
G01X133110Y443694D02*
X130339Y445806D01*
G03X130036Y445908I-303J-398*
G01X129684*
G03X129234Y445627I-0J-500*
G01X125308Y451444D02*
G03X129234Y445627I283J-4042D01*
G01X125308Y451445D02*
G03X125591Y451557I-35J498D01*
X125873Y451445I317J386*
G01X129234Y449176D02*
G03X125873Y451444I-3643J-1774D01*
G01X129234Y449176D02*
G03X129684Y448895I450J219D01*
G01X130709*
X131614Y448590D02*
G03X130709Y448895I-905J-1188D01*
G01X131614Y448590D02*
X134386Y446478D01*
G03X134689Y446376I303J398*
G01X151859*
G03X152220Y446529I0J500*
G01X156052Y445973D02*
G03X152220Y446529I-2115J-1091D01*
G01X156052Y445973D02*
G03X156940I444J229D01*
G01X160772Y446529D02*
G03X156940Y445973I-1717J-1647D01*
G01X160772Y446529D02*
G03X161133Y446376I361J347D01*
G01X274922*
G03X275380Y447076I-0J500*
G01X276169Y449963D02*
G03X275380Y447076I1390J-1932D01*
G01X276169Y449963D02*
G03X275877Y450868I-292J405D01*
G01X254440*
G03X254079Y450715I-0J-500*
G01X250163Y453270D02*
G03X254079Y450715I2199J-908D01*
G01X250163Y453270D02*
G03X249616Y453954I-462J191D01*
G01X250930Y457947D02*
G03X249616Y453954I-1717J-1648D01*
G01X250930Y457947D02*
G03X251290Y457793I360J346D01*
G01X254204*
G03X254363Y458767I0J500*
G01X253728Y462955D02*
G03X254363Y458767I1390J-1931D01*
G01X253728Y462955D02*
G03X253436Y463861I-292J406D01*
G01X251613*
G03X251260Y463714I0J-500*
G01X249481Y461936*
X248509Y461501D02*
G03X249481Y461936I-84J1491D01*
G01X248509Y461501D02*
G03X248176Y461347I28J-499D01*
G01X244701Y464598D02*
G03X248176Y461347I1756J-1606D01*
G01X244701Y464598D02*
G03X244332Y465435I-369J337D01*
G01X214173*
X191339*
X144488*
Y471572D02*
G03Y465435I0J-3068D01*
G01Y471572D02*
X191339D01*
X214173*
X268898*
X331009*
G03X331504Y472000I0J500*
G01X336212D02*
G03X331504I-2354J-346D01*
G01X336213D02*
G03X336707Y471572I494J72D01*
G01X357887*
X362598*
X410590*
G03X411037Y471848I-0J500*
G01X411050Y471874D02*
G03X411037Y471848I2730J-1402D01*
G01X411050Y471874D02*
G03X411105Y472102I-445J228D01*
G01Y474642*
G03X410952Y475003I-500J0*
G01X417395D02*
G03X410952I-3222J3343D01*
G01X417395D02*
G03X417242Y474642I347J-361D01*
G01Y474031*
G03X417740Y473531I500J-0*
G01X428920Y473501*
G03X429392Y474169I1J500*
G01X429216Y475277D02*
G03X429392Y474169I3067J-80D01*
G01X429216Y475277D02*
G03Y475290I-500J13D01*
G01Y475376*
X432303Y478444D02*
G03X429216Y475376I-18J-3068D01*
G01X432303Y478444D02*
X461819Y478265D01*
X461822*
X471416*
G03X471836Y479038I0J500*
G01X472090Y482718D02*
G03X471836Y479038I2319J-2009D01*
G01X472090Y482718D02*
G03X471713Y483546I-377J328D01*
G01X425197*
X422361Y487786D02*
G03X425197Y483546I2836J-1172D01*
G01X422361Y487786D02*
G03X421899Y488476I-462J190D01*
G01X134858*
G03X134358Y487976I0J-500*
G01Y461705*
X108087*
G03X107587Y461205I-0J-500*
G01Y357065*
G03X108167Y356572I500J0*
G01X108661Y356612D02*
G03X108167Y356572I0J-3069D01*
G01X108661Y356612D02*
X123228D01*
Y350475D02*
G03Y356612I0J3068D01*
G01Y350475D02*
X112230D01*
G03X111730Y349975I-0J-500*
G01Y328765*
G03X112230Y328265I500J0*
G01X149581*
G03X150081Y328765I0J500*
G01Y331496*
X153150Y334565D02*
G03X150081Y331496I-0J-3069D01*
G01X153150Y334565D02*
X157268D01*
G03X157768Y335065I-0J500*
G01Y385408*
G03X157268Y385908I-500J-0*
G01X130143*
G03X129643Y385408I0J-500*
G01Y384449*
X129620Y384223D02*
G03X129643Y384449I-1077J226D01*
G01X129620Y384223D02*
G03X130109Y383620I489J-103D01*
G01X133215*
G03X133600Y383801I-0J500*
G01X133851Y380506D02*
G03X133600Y383801I1582J1777D01*
G01X133851Y380506D02*
G03X133519Y380632I-332J-374D01*
G01X120866*
X119810Y381070D02*
G03X120866Y380632I1056J1056D01*
G01X119810Y381070D02*
X117429Y383451D01*
G03X116912Y383570I-354J-353*
G01X119422Y386080D02*
G03X116912Y383570I-3831J1322D01*
G01X119422Y386080D02*
G03X119541Y385564I473J-163D01*
G01X120684Y384420*
G03X121538Y384774I354J354*
G01Y390354*
X122638Y391454D02*
G03X121538Y390354I-0J-1100D01*
G01X122638Y391454D02*
X128543D01*
X129643Y390354D02*
G03X128543Y391454I-1100J0D01*
G01X129643Y390354D02*
Y389395D01*
G03X130143Y388895I500J0*
G01X244379*
G03X244740Y389049I-0J500*
G01X248830Y387577D02*
G03X244740Y389049I-2373J-175D01*
G01X248830Y387577D02*
G03X249328Y387114I498J37D01*
G01X282390*
Y373647*
G03X282890Y373147I500J0*
G01X358041*
G03X358514Y373809I0J500*
G01X361417Y377872D02*
G03X358514Y373809I0J-3069D01*
G01X361417Y377872D02*
X378528D01*
G03X379028Y378372I-0J500*
G01Y383689*
G03X378086Y383924I-500J0*
G01X375366Y382741D02*
G03X378086Y383924I618J2298D01*
G01X375366Y382741D02*
G03X375226Y382759I-130J-482D01*
G01X375197Y382758D02*
G03X375226Y382759I-0J1494D01*
G01X375197Y382758D02*
X350897D01*
G03X350536Y382604I-0J-500*
G01X346503Y384800D02*
G03X350536Y382604I2316J-548D01*
G01X346503Y384800D02*
G03X346017Y385416I-486J116D01*
G01X330709*
X329583Y385882D02*
G03X330709Y385416I1126J1126D01*
G01X329583Y385882D02*
X328226Y387239D01*
G03X327886Y387385I-354J-354*
G01X327973Y392143D02*
G03X327886Y387385I-20J-2379D01*
G01X327973Y392143D02*
G03X328451Y392485I4J500D01*
G01X328953Y393338D02*
G03X328451Y392485I1756J-1606D01*
G01X328953Y393338D02*
G03X328584Y394176I-369J338D01*
G01X324257*
G03X323913Y394039I-0J-500*
G01X317465Y387930*
X316739Y387419D02*
G03X317465Y387930I-1385J2738D01*
G01X316739Y387419D02*
G03X316518Y387198I225J-446D01*
G01X313780Y385514D02*
G03X316518Y387198I-0J3069D01*
G01X313780Y385514D02*
X298425D01*
X295614Y389812D02*
G03X298425Y385514I2811J-1229D01*
G01X295614Y389812D02*
G03X295655Y390038I-458J200D01*
G01X299748Y391805D02*
G03X295655Y390038I-1717J-1648D01*
G01X299748Y391805D02*
G03X300109Y391651I361J346D01*
G01X310820*
G03X311235Y391872I-0J500*
G01X313780Y393226D02*
G03X311235Y391872I-0J-3069D01*
G01X313780Y393226D02*
X313932D01*
G03X314276Y393363I0J500*
G01X320724Y399472*
X322835Y400313D02*
G03X320724Y399472I-0J-3069D01*
G01X322835Y400313D02*
X331431D01*
G03X331853Y401082I0J500*
G01X335068Y404411D02*
G03X331853Y401082I-1210J-2049D01*
G01X335068Y404411D02*
G03X335820Y404890I255J431D01*
G01X335957Y405943D02*
G03X335820Y404890I2232J-825D01*
G01X335957Y405943D02*
G03X335820Y406490I-469J173D01*
G01X335107Y408898D02*
G03X335820Y406490I2295J-630D01*
G01X335107Y408898D02*
G03X334625Y409530I-482J132D01*
G01X331890*
X331104Y409753D02*
G03X331890Y409530I786J1271D01*
G01X331104Y409753D02*
G03X330818Y409828I-263J-425D01*
G01X328465Y412997D02*
G03X330818Y409828I2244J-792D01*
G01X328465Y412997D02*
G03X327994Y413664I-471J167D01*
G01X300286*
G03X299932Y412810I-0J-500*
G01X302047Y410695*
G03X302401Y410549I354J354*
G01X309733*
G03X310094Y410703I0J500*
G01X313990Y408100D02*
G03X310094Y410703I-2179J955D01*
G01X313990Y408100D02*
G03X314448Y407399I458J-201D01*
G01X318072*
G03X318425Y407546I-0J500*
G01X318734Y407855*
G03X318881Y408219I-353J353*
G01X321211Y405889D02*
G03X318881Y408219I49J2379D01*
G01X321211Y405889D02*
G03X320847Y405742I-11J-500D01*
G01X319954Y404849*
X318898Y404412D02*
G03X319954Y404849I-0J1494D01*
G01X318898Y404412D02*
X302351D01*
X301295Y404849D02*
G03X302351Y404412I1056J1057D01*
G01X301295Y404849D02*
X298384Y407760D01*
G03X297620Y407693I-354J-353*
G01X296022Y406702D02*
G03X297620Y407693I-353J2353D01*
G01X296022Y406702D02*
G03X295742Y406561I74J-495D01*
G01X294424Y405243*
X293368Y404805D02*
G03X294424Y405243I0J1494D01*
G01X293368Y404805D02*
X286642D01*
G03X286292Y404662I0J-500*
G01X277819Y396336*
X276772Y395908D02*
G03X277819Y396336I-0J1494D01*
G01X276772Y395908D02*
X217058D01*
G03X216654Y395114I-0J-500*
G01X214173Y390239D02*
G03X216654Y395114I0J3068D01*
G01X214173Y390239D02*
X182283D01*
X164961*
X162480Y395114D02*
G03X164961Y390239I2481J-1807D01*
G01X162480Y395114D02*
G03X162076Y395908I-404J294D01*
G01X129684*
G03X129234Y395627I-0J-500*
G01Y399176D02*
G03Y395627I-3643J-1774D01*
G01Y399176D02*
G03X129684Y398895I450J219D01*
G01X275956*
G03X276306Y399039I0J500*
G01X278049Y400751*
G03X277606Y401599I-351J356*
G01X275448Y402289D02*
G03X277606Y401599I1717J1648D01*
G01X275448Y402289D02*
G03X275088Y402443I-360J-346D01*
G01X199248*
G03X198968Y402358I-0J-500*
G01X197863Y406700D02*
G03X198968Y402358I-225J-2369D01*
G01X197863Y406700D02*
G03X198410Y407178I47J497D01*
G01X198476Y407653D02*
G03X198410Y407178I2311J-566D01*
G01X198476Y407653D02*
G03X197929Y408268I-485J119D01*
G01X197021Y408332D02*
G03X197929Y408268I617J2298D01*
G01X197021Y408332D02*
G03X196891Y408349I-130J-483D01*
G01X196850*
X195357Y409872D02*
G03X196850Y408349I1493J-29D01*
G01X195357Y409872D02*
G03X195340Y410012I-500J10D01*
G01X195632Y411910D02*
G03X195340Y410012I2006J-1280D01*
G01X195632Y411910D02*
G03X195211Y412680I-421J270D01*
G01X143416*
G03X143056Y412526I0J-500*
G01X139189Y415193D02*
G03X143056Y412526I2150J-1020D01*
G01X139189Y415193D02*
G03X138737Y415908I-452J215D01*
G01X129684*
G03X129234Y415627I-0J-500*
G01Y419176D02*
G03Y415627I-3643J-1774D01*
G01Y419176D02*
G03X129684Y418895I450J219D01*
G01X247213*
G03X247561Y419035I0J500*
G01X251392Y416368D02*
G03X247561Y419035I-2179J955D01*
G01X251392Y416368D02*
G03X251850Y415667I458J-201D01*
G01X289270*
G03X289766Y416231I0J500*
G01X293843Y418183D02*
G03X289766Y416231I-1717J-1648D01*
G01X293843Y418183D02*
G03X294204Y418029I361J346D01*
G01X297244*
X298300Y417592D02*
G03X297244Y418029I-1056J-1057D01*
G01X298300Y417592D02*
X299094Y416798D01*
G03X299448Y416651I354J353*
G01X335433*
X336721Y415914D02*
G03X335433Y416651I-1288J-757D01*
G01X336721Y415914D02*
G03X337152Y415667I431J253D01*
G01X396457*
X397564Y415175D02*
G03X396457Y415667I-1107J-1002D01*
G01X397564Y415175D02*
X401479Y410849D01*
G03X402349Y411157I370J336*
G01X406441Y412671D02*
G03X402349Y411157I-1717J-1647D01*
G01X406441Y412671D02*
G03X406802Y412517I361J346D01*
G01X461739*
G03X462103Y412674I0J500*
G01X466142Y416951*
G03X465500Y417710I-363J344*
G01X462456Y418038D02*
G03X465500Y417710I1717J1647D01*
G01X462456Y418038D02*
G03X462096Y418191I-360J-347D01*
G01X444204*
G03X443843Y418038I-0J-500*
G01Y421333D02*
G03Y418038I-1717J-1648D01*
G01Y421333D02*
G03X444204Y421179I361J346D01*
G01X462096*
G03X462456Y421333I-0J500*
G01X466221Y418473D02*
G03X462456Y421333I-2048J1212D01*
G01X466221Y418473D02*
G03X467015Y417875I431J-254D01*
G01X468205Y419136*
X469291Y419604D02*
G03X468205Y419136I0J-1494D01*
G01X469291Y419604D02*
X480670D01*
G03X481024Y419750I0J500*
G01X493826Y432552*
X494882Y432990D02*
G03X493826Y432552I-0J-1494D01*
G01X494882Y432990D02*
X497135D01*
G03X497496Y433144I-0J500*
G01Y429849D02*
G03Y433144I1717J1647D01*
G01Y429849D02*
G03X497135Y430002I-361J-347D01*
G01X495708*
G03X495354Y429856I-0J-500*
G01X482552Y417054*
X482217Y416802D02*
G03X482552Y417054I-721J1308D01*
G01X482217Y416802D02*
G03X482458Y415864I241J-438D01*
G01X499706*
G03X500030Y415983I-0J500*
G01X503818Y413381D02*
G03X500030Y415983I-2243J792D01*
G01X503819Y413381D02*
G03X504290Y412714I471J-167D01*
G01X532383*
G03X532707Y412834I-0J500*
G01X536621Y410799D02*
G03X532707Y412834I-2369J225D01*
G01X536621Y410799D02*
G03X537099Y410252I498J-48D01*
G01X538635Y409611D02*
G03X537099Y410252I-1627J-1737D01*
G01X538635Y409611D02*
G03X539318I341J365D01*
G01X542937Y406572D02*
G03X539318Y409611I-1992J1302D01*
G01X542937Y406572D02*
G03X543210Y405820I418J-273D01*
G01X543248Y401278D02*
G03X543210Y405820I-728J2265D01*
G01X543248Y401278D02*
G03X542907Y400731I154J-476D01*
G01X538391Y399397D02*
G03X542907Y400731I2160J997D01*
G01X538391Y399397D02*
G03X537936Y399687I-455J-210D01*
G01X536771*
G03X536402Y398850I-0J-500*
G01X532267Y397178D02*
G03X536402Y398850I2379J66D01*
G01X532267Y397178D02*
G03X532121Y397517I-500J-14D01*
G01X531770Y397868*
G03X531417Y398014I-353J-354*
G01X480896*
G03X480542Y397161I-0J-500*
G01X481083Y396620*
G03X481447Y396474I354J353*
G01X479117Y394144D02*
G03X481447Y396474I2379J-50D01*
G01X479117Y394144D02*
G03X478971Y394507I-500J10D01*
G01X477480Y395998*
G03X477127Y396144I-353J-354*
G01X455550*
G03X455197Y395998I0J-500*
G01X454888Y395689*
G03X454741Y395325I353J-354*
G01X450865Y397125D02*
G03X454741Y395325I1497J-1849D01*
G01X450865Y397125D02*
G03X450551Y398014I-314J389D01*
G01X410085*
G03X409701Y397194I-0J-500*
G01X406157Y394022D02*
G03X409701Y397194I1717J1647D01*
G01X406157Y394022D02*
G03X405796Y394176I-361J-346D01*
G01X385827*
X384771Y394613D02*
G03X385827Y394176I1056J1056D01*
G01X384771Y394613D02*
X380630Y398754D01*
G03X380277Y398900I-353J-354*
G01X352589*
G03X352116Y398238I-0J-500*
G01X349213Y394176D02*
G03X352116Y398238I-0J3068D01*
G01X349213Y394176D02*
X332834D01*
G03X332465Y393338I-0J-500*
G01X333088Y391753D02*
G03X332465Y393338I-2379J-21D01*
G01X333088Y391753D02*
G03X333588Y391258I500J5D01*
G01X333588D02*
X364708D01*
X364708D02*
G03X365162Y391548I0J500D01*
G01X369378Y389352D02*
G03X365162Y391548I-2055J1199D01*
G01X369378Y389352D02*
G03X369810Y388600I432J-252D01*
G01X370890*
G03X371365Y388942I0J500*
G01X375987Y387930D02*
G03X371365Y388942I-2365J259D01*
G01X375987Y387930D02*
G03X376398Y387383I497J-55D01*
G01X378086Y386155D02*
G03X376398Y387383I-2102J-1116D01*
G01X378086Y386155D02*
G03X379028Y386390I442J235D01*
G01Y386720*
X493807*
Y378372*
G03X494307Y377872I500J-0*
G01X598031*
X600935Y373809D02*
G03X598031Y377872I-2904J994D01*
G01X600935Y373809D02*
G03X601408Y373147I473J-162D01*
G01X640945*
X643264Y368069D02*
G03X640945Y373147I-2319J2010D01*
G01X643264Y368069D02*
G03X643642Y367242I378J-327D01*
G01X676953*
G03X677453Y367742I-0J500*
G01X298280Y459841D02*
G03X297808Y460680I-354J354D01*
G01X295292Y461631D02*
G03X297808Y460680I1952J1361D01*
G01X295292Y461631D02*
G03X294472I-410J-286D01*
G01X290803Y461345D02*
G03X294472Y461631I1717J1647D01*
G01X290803Y461345D02*
G03X290442Y461498I-361J-347D01*
G01X260668*
G03X260315Y461352I0J-500*
G01X259348Y460386*
G03X259234Y460207I354J-354*
G01X257502Y459116D02*
G03X259234Y460207I148J1684D01*
G01X257502Y459116D02*
X256831Y459175D01*
G03X256497Y459085I-44J-498*
G01X255873Y458767D02*
G03X256497Y459085I-755J2257D01*
G01X255873Y458767D02*
G03X256032Y457793I159J-474D01*
G01X296025*
G03X296378Y457939I-0J500*
G01X298280Y459841*
X379028Y322654D02*
Y356471D01*
G03X378528Y356971I-500J-0*
G01X282890*
G03X282390Y356471I-0J-500*
G01Y335458*
G03X282890Y334958I500J0*
G01X296573*
X312765*
X321750*
G03X322104Y335105I0J500*
G01X325192Y338193*
X327362Y339092D02*
G03X325192Y338193I0J-3068D01*
G01X327362Y339092D02*
X356986D01*
G03X357340Y339239I0J500*
G01X358202Y340101*
G03X358349Y340455I-353J354*
G01Y344094*
X364486D02*
G03X358349I-3069J0D01*
G01X364486D02*
Y338976D01*
X363587Y336807D02*
G03X364486Y338976I-2170J2169D01*
G01X363587Y336807D02*
X360634Y333854D01*
X358465Y332955D02*
G03X360634Y333854I-0J3069D01*
G01X358465Y332955D02*
X328840D01*
G03X328487Y332809I0J-500*
G01X325398Y329720*
X323228Y328821D02*
G03X325398Y329720I0J3069D01*
G01X323228Y328821D02*
X315848D01*
G03X315352Y328257I0J-500*
G01X310632D02*
G03X315352I2360J-304D01*
G01X310632D02*
G03X310136Y328821I-496J64D01*
G01X298450*
G03X297950Y328321I0J-500*
G01Y326093*
G03X298104Y325733I500J0*
G01X298636Y323061D02*
G03X298104Y325733I-2179J955D01*
G01X298636Y323061D02*
G03X299094Y322360I458J-201D01*
G01X301466*
G03X301826Y322514I-0J500*
G01X305409Y322343D02*
G03X301826Y322514I-1866J-1477D01*
G01X305409Y322343D02*
G03X305801Y322154I392J311D01*
G01X323464*
G03X323902Y322412I0J500*
G01X327529Y323070D02*
G03X323902Y322412I-1545J-1810D01*
G01X327529Y323070D02*
G03X327853Y322950I324J380D01*
G01X334441*
G03X334848Y323159I0J500*
G01X336220Y323863D02*
G03X334848Y323159I0J-1691D01*
G01X336220Y323863D02*
X353355D01*
G03X353525Y323892I0J500*
G01X356562Y322480D02*
G03X353525Y323892I-2231J-826D01*
G01X356562Y322480D02*
G03X357031Y322154I469J174D01*
G01X371015*
G03X371369Y322300I0J500*
G01X372671Y323603*
G03X372818Y323967I-353J353*
G01X377293Y322890D02*
G03X372818Y323967I-2096J1126D01*
G01X377293Y322890D02*
G03X377734Y322154I441J-236D01*
G01X378528*
G03X379028Y322654I-0J500*
G01X396469Y397163D02*
G03X396654Y398127I0J500D01*
G01X396118Y398480D02*
G03X396654Y398127I1126J1126D01*
G01X396118Y398480D02*
X389644Y404954D01*
G03X389291Y405101I-353J-353*
G01X341022*
G03X340530Y404691I-0J-500*
G01X340446Y404363D02*
G03X340530Y404691I-2257J755D01*
G01X340446Y404363D02*
G03X340729Y403742I474J-159D01*
G01X341438Y403131D02*
G03X340729Y403742I-1281J-769D01*
G01X341438Y403131D02*
X342039Y402130D01*
G03X342467Y401887I428J257*
G01X381102*
X382159Y401450D02*
G03X381102Y401887I-1057J-1056D01*
G01X382159Y401450D02*
X386299Y397309D01*
G03X386653Y397163I354J354*
G01X396469*
X500436Y450116D02*
G03X500770Y450987I-0J500D01*
G01X500028Y452295D02*
G03X500770Y450987I2334J461D01*
G01X500028Y452295D02*
G03X499847Y452591I-491J-97D01*
G01X492462Y458438*
G03X492151Y458546I-311J-392*
G01X486908*
G03X486584Y458426I0J-500*
G01X483283Y461842D02*
G03X486584Y458426I1756J-1606D01*
G01X483283Y461842D02*
G03X482914Y462680I-369J338D01*
G01X458211*
G03X457888Y462561I-0J-500*
G01X454913Y460044*
G03X454737Y459694I323J-381*
G01X453117Y457586D02*
G03X454737Y459694I-755J2257D01*
G01X453117Y457586D02*
G03X453276Y456612I159J-474D01*
G01X455118*
X455904Y456388D02*
G03X455118Y456612I-786J-1270D01*
G01X455904Y456388D02*
G03X456190Y456314I263J426D01*
G01X458499Y453029D02*
G03X456190Y456314I-2200J908D01*
G01X458499Y453029D02*
G03X459045Y452345I462J-191D01*
G01X459400Y447621D02*
G03X459045Y452345I49J2379D01*
G01X459400Y447621D02*
G03X459036Y447475I-11J-500D01*
G01X458003Y446442*
G03X458357Y445588I354J-354*
G01X468396*
G03X468689Y446494I0J500*
G01X471623Y450235D02*
G03X468689Y446494I-1544J-1810D01*
G01X471623Y450235D02*
G03X471948Y450116I325J381D01*
G01X500436*
X533752Y112024D02*
Y249384D01*
G03X533252Y249884I-500J0*
G01X517617*
G03X517293Y249765I0J-500*
G01X514156Y253343D02*
G03X517293Y249765I1592J-1768D01*
G01X514156Y253343D02*
G03X513821Y254215I-335J372D01*
G01X493032*
G03X492688Y254078I0J-500*
G01X491524Y253613D02*
G03X492688Y254078I0J1691D01*
G01X491524Y253613D02*
X475502D01*
G03X475149Y253467I0J-500*
G01X463794Y242112*
X462598Y241617D02*
G03X463794Y242112I0J1690D01*
G01X462598Y241617D02*
X459349D01*
G03X459025Y241497I0J-500*
G01Y245117D02*
G03Y241497I-1545J-1810D01*
G01Y245117D02*
G03X459349Y244998I324J381D01*
G01X461691*
G03X462045Y245144I0J500*
G01X473400Y256499*
X474595Y256994D02*
G03X473400Y256499I0J-1690D01*
G01X474595Y256994D02*
X490618D01*
G03X490962Y257132I-0J500*
G01X491447Y257454D02*
G03X490962Y257132I679J-1548D01*
G01X491447Y257454D02*
G03X491247Y258412I-200J458D01*
G01X473890*
G03X473530Y258259I-0J-500*
G01X470508Y255126*
X469291Y254609D02*
G03X470508Y255126I0J1690D01*
G01X469291Y254609D02*
X466042D01*
G03X465718Y254489I0J-500*
G01X462893Y254294D02*
G03X465718Y254489I1280J2005D01*
G01X462893Y254294D02*
G03X462124Y253872I-269J-422D01*
G01Y253543*
X455987D02*
G03X462124I3068J0D01*
G01X455987D02*
Y256396D01*
G03X455840Y256749I-500J-0*
G01X452161Y260429*
X451262Y262598D02*
G03X452161Y260429I3069J0D01*
G01X451262Y262598D02*
Y268291D01*
G03X450762Y268791I-500J0*
G01X449819*
G03X449319Y268291I-0J-500*
G01Y202647*
G03X449955Y202166I500J0*
G01X453210Y201096D02*
G03X449955Y202166I-2423J-1883D01*
G01X453210Y201096D02*
G03X453604Y200903I394J307D01*
G01X479073*
G03X479467Y201096I-0J500*
G01Y197329D02*
G03Y201096I2423J1884D01*
G01Y197329D02*
G03X479073Y197522I-394J-307D01*
G01X453604*
G03X453210Y197329I0J-500*
G01X449955Y196259D02*
G03X453210Y197329I832J2954D01*
G01X449955Y196259D02*
G03X449319Y195778I-136J-481D01*
G01Y170493*
G03X449465Y170139I500J-0*
G01X490350Y129255*
G03X491057I353J353*
G01X501964Y140162*
X504134Y141061D02*
G03X501964Y140162I-0J-3069D01*
G01X504134Y141061D02*
X508283D01*
G03X508613Y141185I-0J500*
G01Y134799D02*
G03Y141185I2804J3193D01*
G01Y134799D02*
G03X508283Y134924I-330J-375D01*
G01X505612*
G03X505258Y134777I-0J-500*
G01X495397Y124915*
G03Y124208I353J-353*
G01X507935Y111670*
G03X508288Y111524I353J354*
G01X533252*
G03X533752Y112024I-0J500*
G01X408836Y188878D02*
G03X412106Y192148I4156J-886D01*
G01X408836Y188878D02*
G03X408700Y189336I-489J105D01*
G01X403811Y194226*
G03X403457Y194372I-354J-354*
G01X380020*
G03X379675Y194235I-0J-500*
G01Y198679D02*
G03Y194235I-2116J-2222D01*
G01Y198679D02*
G03X380020Y198541I345J362D01*
G01X404528*
X406001Y197930D02*
G03X404528Y198541I-1473J-1473D01*
G01X406001Y197930D02*
X411648Y192284D01*
G03X412106Y192148I354J353*
G01X400394Y234727D02*
G03Y240864I-0J3068D01*
G01Y234727D02*
X373622D01*
X371737Y240216D02*
G03X373622Y234727I1885J-2421D01*
G01X371737Y240216D02*
G03X371605Y241079I-307J395D01*
G01X370867Y241522D02*
G03X371605Y241079I1574J1785D01*
G01X370867Y241522D02*
G03X370544Y241647I-331J-375D01*
G01X369850Y241659*
G03X369404Y240917I-8J-500*
G01X365778Y237954D02*
G03X369404Y240917I1545J1810D01*
G01X365778Y237954D02*
G03X365454Y238073I-324J-381D01*
G01X356813*
G03X356459Y237927I-0J-500*
G01X354879Y236347*
G03X354734Y236033I354J-354*
G01X352174Y238593D02*
G03X354734Y236033I188J-2373D01*
G01X352174Y238593D02*
G03X352488Y238737I-39J498D01*
G01X354710Y240959*
X354791Y241035D02*
G03X354710Y240959I1115J-1271D01*
G01X354791Y241035D02*
G03X354470Y241911I-330J376D01*
G01X350266Y241980*
G03X349940Y241866I-8J-500*
G01X349999Y245485D02*
G03X349940Y241866I-1574J-1784D01*
G01X349999Y245485D02*
G03X350322Y245361I331J375D01*
G01Y245360D02*
X370600Y245028D01*
G03X370926Y245142I8J500*
G01X373985Y245117D02*
G03X370926Y245142I-1544J-1810D01*
G01X373985Y245117D02*
G03X374310Y244998I325J381D01*
G01X386714*
G03X387038Y245117I-0J500*
G01X390339Y241701D02*
G03X387038Y245117I-1756J1606D01*
G01X390339Y241701D02*
G03X390708Y240864I369J-337D01*
G01X400394*
X397779Y249819D02*
G03X400808Y252281I3008J-606D01*
G01X397779Y249819D02*
G03X397746Y250121I-490J99D01*
G01X394309Y257855*
G03X393852Y258152I-457J-203*
G01X379195*
G03X378800Y257959I0J-500*
G01Y261726D02*
G03Y257959I-2422J-1883D01*
G01Y261726D02*
G03X379195Y261533I395J307D01*
G01X395276*
X396820Y260529D02*
G03X395276Y261533I-1544J-686D01*
G01X396820Y260529D02*
X400354Y252578D01*
G03X400808Y252281I457J203*
G01X352183Y183760D02*
Y177657D01*
X351083Y176557D02*
G03X352183Y177657I-0J1100D01*
G01X351083Y176557D02*
X344980D01*
X343880Y177657D02*
G03X344980Y176557I1100J0D01*
G01X343880Y177657D02*
Y183760D01*
X344980Y184860D02*
G03X343880Y183760I0J-1100D01*
G01X344980Y184860D02*
X351083D01*
X352183Y183760D02*
G03X351083Y184860I-1100J-0D01*
G01X398326Y183836D02*
G03X395056Y187106I887J4156D01*
G01X398326Y183836D02*
G03X397869Y183700I-104J-489D01*
G01X389466Y175298*
X387992Y174687D02*
G03X389466Y175298I0J2085D01*
G01X387992Y174687D02*
X372146D01*
G03X371801Y174549I-0J-500*
G01Y178994D02*
G03Y174549I-2116J-2222D01*
G01Y178994D02*
G03X372146Y178856I345J362D01*
G01X386922*
G03X387275Y179002I-0J500*
G01X394921Y186648*
G03X395056Y187106I-354J354*
G01X300568Y188878D02*
G03X303838Y192148I4156J-886D01*
G01X300568Y188878D02*
G03X300433Y189336I-489J105D01*
G01X294362Y195407*
G03X294008Y195554I-354J-353*
G01X272330*
G03X271977Y195407I0J-500*
G01X270930Y194361*
G03X270784Y194019I354J-354*
G01X267642Y197162D02*
G03X270784Y194019I75J-3068D01*
G01X267642Y197162D02*
G03X267983Y197308I-13J500D01*
G01X269786Y199112*
X271260Y199722D02*
G03X269786Y199112I-0J-2084D01*
G01X271260Y199722D02*
X295079D01*
X296553Y199112D02*
G03X295079Y199722I-1474J-1474D01*
G01X296553Y199112D02*
X303380Y192284D01*
G03X303838Y192148I354J353*
G01X278265Y246063D02*
Y215354D01*
X277367Y213185D02*
G03X278265Y215354I-2170J2169D01*
G01X277367Y213185D02*
X262800Y198618D01*
X258460Y202957D02*
G03X262800Y198618I2170J-2170D01*
G01X258460Y202957D02*
X271982Y216479D01*
G03X272128Y216832I-354J353*
G01Y246063*
X278265D02*
G03X272128I-3068J-0D01*
G01X290059Y183836D02*
G03X286789Y187106I886J4156D01*
G01X290059Y183836D02*
G03X289601Y183700I-105J-489D01*
G01X281592Y175692*
X280118Y175081D02*
G03X281592Y175692I0J2084D01*
G01X280118Y175081D02*
X261122D01*
G03X260777Y174943I0J-500*
G01Y179388D02*
G03Y174943I-2116J-2223D01*
G01Y179388D02*
G03X261122Y179250I345J362D01*
G01X279048*
G03X279401Y179396I-0J500*
G01X286653Y186648*
G03X286789Y187106I-353J354*
G01X180489Y189863D02*
G03X183759Y193133I4157J-887D01*
G01X180489Y189863D02*
G03X180354Y190320I-489J104D01*
G01X175661Y195013*
G03X175308Y195160I-353J-353*
G01X154220*
G03X153866Y195013I0J-500*
G01X153214Y194361*
G03X153068Y194019I353J-354*
G01X149925Y197162D02*
G03X153068Y194019I75J-3068D01*
G01X149925Y197162D02*
G03X150266Y197308I-12J500D01*
G01X151676Y198718*
X153150Y199328D02*
G03X151676Y198718I-0J-2084D01*
G01X153150Y199328D02*
X176378D01*
X177852Y198718D02*
G03X176378Y199328I-1474J-1474D01*
G01X177852Y198718D02*
X183302Y193268D01*
G03X183759Y193133I353J354*
G01X193620Y214961D02*
Y207874D01*
X187483D02*
G03X193620I3068J0D01*
G01X187483D02*
Y213456D01*
G03X187332Y213814I-500J-0*
G01X172661Y228118*
X171735Y230315D02*
G03X172661Y228118I3068J-0D01*
G01X171735Y230315D02*
Y254724D01*
X177872D02*
G03X171735I-3069J0D01*
G01X177872D02*
Y231820D01*
G03X178023Y231462I500J-0*
G01X192693Y217158*
X193620Y214961D02*
G03X192693Y217158I-3069J-0D01*
G01X167301Y186664D02*
G03Y191289I3565J2312D01*
G01Y186664D02*
G03X166881Y186892I-420J-272D01*
G01X158944*
G03X158591Y186746I0J-500*
G01X145175Y173329*
X143701Y172719D02*
G03X145175Y173329I-0J2084D01*
G01X143701Y172719D02*
X142225D01*
G03X141880Y172581I-0J-500*
G01Y177025D02*
G03Y172581I-2116J-2222D01*
G01Y177025D02*
G03X142225Y176887I345J362D01*
G01X142630*
G03X142984Y177034I0J500*
G01X156400Y190450*
X157874Y191061D02*
G03X156400Y190450I0J-2085D01*
G01X157874Y191061D02*
X166881D01*
G03X167301Y191289I0J500*
G01X518455Y338960D02*
G03X516125Y341290I49J2379D01*
G01X518455Y338960D02*
G03X518091Y338813I-10J-500D01*
G01X512080Y332802*
X511024Y332365D02*
G03X512080Y332802I-0J1493D01*
G01X511024Y332365D02*
X509558D01*
G03X509197Y332211I0J-500*
G01Y335506D02*
G03Y332211I-1717J-1648D01*
G01Y335506D02*
G03X509558Y335352I361J346D01*
G01X510198*
G03X510551Y335498I-0J500*
G01X515979Y340926*
G03X516125Y341290I-354J353*
G01X414518Y421637D02*
G03X412188Y423967I49J2379D01*
G01X414518Y421637D02*
G03X414154Y421490I-10J-500D01*
G01X410899Y418235*
X409927Y417800D02*
G03X410899Y418235I-84J1491D01*
G01X409927Y417800D02*
G03X409593Y417646I28J-499D01*
G01X409168Y421288D02*
G03X409593Y417646I-1294J-1997D01*
G01X409168Y421288D02*
G03X409793Y421354I272J420D01*
G01X412042Y423603*
G03X412188Y423967I-354J353*
G01X405037Y478346D02*
G03X405037I-4643J0D01*
G01X391258D02*
G03X391258I-4644J0D01*
G01X377478D02*
G03X377478I-4643J0D01*
G01X363698D02*
G03X363698I-4643J0D01*
G01X119643Y397402D02*
G03X119643I-4052J0D01*
G01Y407402D02*
G03X119643I-4052J0D01*
G01Y417402D02*
G03X119643I-4052J0D01*
G01Y427402D02*
G03X119643I-4052J0D01*
G01Y437402D02*
G03X119643I-4052J0D01*
G01X137259Y452289D02*
G03Y455585I1717J1648D01*
G01Y452289D02*
G03X136899Y452443I-360J-346D01*
G01X125908*
G03X125591Y452330I-0J-500*
X125273Y452443I-318J-387*
G01X123312*
G03X122969Y452307I-0J-500*
G01X119593Y449123*
G03X119459Y448610I343J-363*
G01X117023Y451193D02*
G03X119459Y448610I-1432J-3791D01*
G01X117023Y451193D02*
G03X117543Y451297I177J467D01*
G01X121495Y455024*
X122520Y455431D02*
G03X121495Y455024I-0J-1494D01*
G01X122520Y455431D02*
X136899D01*
G03X137259Y455585I-0J500*
G01X129643Y407402D02*
G03X129643I-4052J0D01*
G01X151164Y365797D02*
G03X153494Y368127I2379J-49D01*
G01X151164Y365797D02*
G03X151018Y366161I-500J10D01*
G01X150709Y366470*
G03X150355Y366617I-354J-353*
G01X143810*
G03X143449Y366463I-0J-500*
G01Y369758D02*
G03Y366463I-1717J-1648D01*
G01Y369758D02*
G03X143810Y369604I361J346D01*
G01X151181*
X152237Y369166D02*
G03X151181Y369604I-1056J-1056D01*
G01X152237Y369166D02*
X153130Y368273D01*
G03X153494Y368127I354J354*
G01X133716Y344809D02*
G03Y348104I1717J1648D01*
G01Y344809D02*
G03X133355Y344963I-361J-346D01*
G01X125306*
G03X124945Y344809I0J-500*
G01Y348104D02*
G03Y344809I-1717J-1647D01*
G01Y348104D02*
G03X125306Y347950I361J346D01*
G01X133355*
G03X133716Y348104I0J500*
G01X129643Y427402D02*
G03X129643I-4052J0D01*
G01X361357Y417956D02*
G03Y421414I1635J1729D01*
G01Y417956D02*
G03X361014Y418093I-343J-363D01*
G01X356693*
X355567Y418559D02*
G03X356693Y418093I1126J1126D01*
G01X355567Y418559D02*
X350668Y423458D01*
G03X350315Y423605I-353J-353*
G01X341418*
G03X341064Y423458I-0J-500*
G01X340901Y423295*
G03X340790Y423128I353J-354*
G01X339120Y426334D02*
G03X340790Y423128I-537J-2318D01*
G01X339120Y426334D02*
G03X339548Y426433I112J487D01*
G01X340551Y426789D02*
G03X339548Y426433I0J-1592D01*
G01X340551Y426789D02*
X351181D01*
X352307Y426323D02*
G03X351181Y426789I-1126J-1126D01*
G01X352307Y426323D02*
X357206Y421424D01*
G03X357560Y421277I354J353*
G01X361014*
G03X361357Y421414I-0J500*
G01X523086Y418038D02*
G03Y421333I1717J1647D01*
G01Y418038D02*
G03X522725Y418191I-361J-347D01*
G01X499716*
G03X499355Y418038I-0J-500*
G01Y421333D02*
G03Y418038I-1717J-1648D01*
G01Y421333D02*
G03X499716Y421179I361J346D01*
G01X522725*
G03X523086Y421333I0J500*
G01X361417Y349294D02*
G03Y355431I0J3068D01*
G01Y349294D02*
X351246D01*
G03X350825Y348525I-0J-500*
G01X347102Y345597D02*
G03X350825Y348525I1717J1647D01*
G01X347102Y345597D02*
G03X346741Y345750I-361J-347D01*
G01X331999*
G03X331638Y345597I-0J-500*
G01Y348892D02*
G03Y345597I-1717J-1648D01*
G01Y348892D02*
G03X331999Y348738I361J346D01*
G01X341189*
G03X341431Y349676I0J500*
G01X342913Y355431D02*
G03X341431Y349676I0J-3069D01*
G01X342913Y355431D02*
X361417D01*
X529446Y137992D02*
G03X529446I-4249J0D01*
G01X521041Y188878D02*
G03X524311Y192148I4156J-886D01*
G01X521041Y188878D02*
G03X520905Y189336I-489J105D01*
G01X516803Y193439*
G03X516449Y193585I-354J-354*
G01X491831*
G03X491486Y193447I-0J-500*
G01Y197891D02*
G03Y193447I-2116J-2222D01*
G01Y197891D02*
G03X491831Y197754I345J363D01*
G01X517520*
X518993Y197143D02*
G03X517520Y197754I-1473J-1474D01*
G01X518993Y197143D02*
X523853Y192284D01*
G03X524311Y192148I353J353*
G01X462419Y183760D02*
Y177657D01*
X461319Y176557D02*
G03X462419Y177657I-0J1100D01*
G01X461319Y176557D02*
X455217D01*
X454117Y177657D02*
G03X455217Y176557I1100J0D01*
G01X454117Y177657D02*
Y183760D01*
X455217Y184860D02*
G03X454117Y183760I-0J-1100D01*
G01X455217Y184860D02*
X461319D01*
X462419Y183760D02*
G03X461319Y184860I-1100J-0D01*
G01X488895Y238189D02*
G03X488895I-3068J0D01*
G01X518838Y243786D02*
G03Y247553I2422J1883D01*
G01X518837Y243786D02*
G03X518443Y243979I-394J-307D01*
G01X506360*
G03X505966Y243786I0J-500*
G01X501121D02*
G03X505966I2422J1883D01*
G01X501121D02*
G03X500726Y243979I-395J-307D01*
G01X482302*
G03X481948Y243832I-0J-500*
G01X478653Y240537*
X477458Y240042D02*
G03X478653Y240537I-0J1690D01*
G01X477458Y240042D02*
X476833D01*
G03X476438Y239849I-0J-500*
G01X476328Y243749D02*
G03X476438Y239849I-2312J-2017D01*
G01X476328Y243749D02*
G03X477059Y243724I377J329D01*
G01X480199Y246865*
X481395Y247360D02*
G03X480199Y246865I-0J-1691D01*
G01X481395Y247360D02*
X500726D01*
G03X501121Y247553I0J500*
G01X505966D02*
G03X501121I-2423J-1884D01*
G01X505966D02*
G03X506360Y247360I394J307D01*
G01X518443*
G03X518837Y247553I-0J500*
G01X510531Y183836D02*
G03X507261Y187106I886J4156D01*
G01X510531Y183836D02*
G03X510073Y183700I-104J-489D01*
G01X499702Y173329*
X498228Y172719D02*
G03X499702Y173329I0J2084D01*
G01X498228Y172719D02*
X483170D01*
G03X482825Y172581I-0J-500*
G01Y177025D02*
G03Y172581I-2116J-2222D01*
G01Y177025D02*
G03X483170Y176887I345J362D01*
G01X497158*
G03X497511Y177034I-0J500*
G01X507126Y186648*
G03X507261Y187106I-354J354*
G01X411039Y268516D02*
X424303D01*
X411587Y267616D02*
X424303D01*
X411936Y266716D02*
X424303D01*
X412102Y265816D02*
X424303D01*
X412105Y264916D02*
X424303D01*
X411943Y264016D02*
X424303D01*
X411599Y263116D02*
X424303D01*
X411026Y262216D02*
X424303D01*
X410097Y261316D02*
X424303D01*
X408079Y260416D02*
X424303D01*
X397271Y259516D02*
X424303D01*
X397671Y258616D02*
X424303D01*
X398071Y257716D02*
X424303D01*
X398471Y256816D02*
X424303D01*
X398871Y255916D02*
X424303D01*
X399271Y255016D02*
X424303D01*
X399671Y254116D02*
X424303D01*
X400071Y253216D02*
X424303D01*
X400628Y252316D02*
X424303D01*
X402923Y251416D02*
X424303D01*
X403565Y250516D02*
X424303D01*
X403829Y249616D02*
X424303D01*
X403815Y248716D02*
X424303D01*
X403520Y247816D02*
X424303D01*
X402822Y246916D02*
X424303D01*
X348975Y246016D02*
X424303D01*
X390129Y245116D02*
X424303D01*
X390782Y244216D02*
X424303D01*
X390962Y243316D02*
X424303D01*
X390789Y242416D02*
X424303D01*
X390231Y241516D02*
X424303D01*
X401602Y240616D02*
X424303D01*
X402787Y239716D02*
X424303D01*
X403287Y238816D02*
X424303D01*
X403460Y237916D02*
X424303D01*
X403362Y237016D02*
X424303D01*
X402962Y236116D02*
X424303D01*
X402056Y235216D02*
X424303D01*
X353789Y234316D02*
X424303D01*
X339870Y233416D02*
X424303D01*
X339870Y232516D02*
X424303D01*
X339870Y231616D02*
X424303D01*
X339870Y230716D02*
X424303D01*
X339870Y229816D02*
X424303D01*
X339870Y228916D02*
X424303D01*
X339870Y228016D02*
X424303D01*
X339870Y227116D02*
X424303D01*
X339870Y226216D02*
X424303D01*
X339870Y225316D02*
X424303D01*
X339870Y224416D02*
X424303D01*
X339870Y223516D02*
X424303D01*
X339870Y222616D02*
X424303D01*
X339870Y221716D02*
X424303D01*
X339870Y220816D02*
X424303D01*
X339870Y219916D02*
X424303D01*
X339870Y219016D02*
X424303D01*
X339870Y218116D02*
X424303D01*
X339870Y217216D02*
X424303D01*
X339870Y216316D02*
X424303D01*
X339870Y215416D02*
X424303D01*
X339870Y214516D02*
X424303D01*
X339870Y213616D02*
X424303D01*
X339870Y212716D02*
X424303D01*
X339870Y211816D02*
X424303D01*
X339870Y210916D02*
X424303D01*
X339870Y210016D02*
X424303D01*
X339870Y209116D02*
X424303D01*
X339870Y208216D02*
X424303D01*
X339870Y207316D02*
X424303D01*
X339870Y206416D02*
X424303D01*
X339870Y205516D02*
X424303D01*
X339870Y204616D02*
X424303D01*
X339870Y203716D02*
X424303D01*
X339870Y202816D02*
X424303D01*
X339870Y201916D02*
X424303D01*
X339870Y201016D02*
X424303D01*
X339870Y200116D02*
X424303D01*
X378901Y199216D02*
X424303D01*
X405469Y198316D02*
X424303D01*
X406516Y197416D02*
X424303D01*
X407416Y196516D02*
X424303D01*
X408316Y195616D02*
X424303D01*
X409216Y194716D02*
X424303D01*
X410116Y193816D02*
X424303D01*
X411016Y192916D02*
X424303D01*
X414359Y192016D02*
X424303D01*
X415873Y191116D02*
X424303D01*
X416613Y190216D02*
X424303D01*
X417030Y189316D02*
X424303D01*
X417221Y188416D02*
X424303D01*
X417215Y187516D02*
X424303D01*
X417013Y186616D02*
X424303D01*
X416581Y185716D02*
X424303D01*
X415816Y184816D02*
X424303D01*
X414194Y183916D02*
X424303D01*
X397184Y183016D02*
X424303D01*
X396284Y182116D02*
X424303D01*
X395384Y181216D02*
X424303D01*
X394484Y180316D02*
X424303D01*
X393584Y179416D02*
X424303D01*
X392684Y178516D02*
X424303D01*
X391784Y177616D02*
X424303D01*
X390884Y176716D02*
X424303D01*
X389984Y175816D02*
X424303D01*
X388941Y174916D02*
X424303D01*
X371035Y174016D02*
X424303D01*
X339870Y173116D02*
X424303D01*
X339870Y172216D02*
X424303D01*
X339870Y171316D02*
X424303D01*
X340134Y170416D02*
X424303D01*
X341034Y169516D02*
X424303D01*
X341934Y168616D02*
X424303D01*
X342834Y167716D02*
X424303D01*
X343734Y166816D02*
X424303D01*
X344634Y165916D02*
X424303D01*
X345534Y165016D02*
X424303D01*
X346434Y164116D02*
X424303D01*
X347334Y163216D02*
X424303D01*
X348234Y162316D02*
X424303D01*
X349134Y161416D02*
X424303D01*
X350034Y160516D02*
X424303D01*
X350934Y159616D02*
X424303D01*
X351834Y158716D02*
X424303D01*
X352734Y157816D02*
X424303D01*
X353634Y156916D02*
X424303D01*
X354534Y156016D02*
X424303D01*
X355434Y155116D02*
X424303D01*
X356334Y154216D02*
X424303D01*
X357234Y153316D02*
X424303D01*
X358134Y152416D02*
X424303D01*
X359034Y151516D02*
X424303D01*
X359934Y150616D02*
X424303D01*
X360834Y149716D02*
X424303D01*
X361734Y148816D02*
X424303D01*
X362634Y147916D02*
X424303D01*
X363534Y147016D02*
X424303D01*
X364434Y146116D02*
X424303D01*
X365334Y145216D02*
X424303D01*
X366234Y144316D02*
X424303D01*
X367134Y143416D02*
X424303D01*
X368034Y142516D02*
X424303D01*
X415212Y141616D02*
X424303D01*
X416254Y140716D02*
X424303D01*
X416830Y139816D02*
X424303D01*
X417140Y138916D02*
X424303D01*
X417242Y138016D02*
X424303D01*
X417150Y137116D02*
X424303D01*
X416853Y136216D02*
X424303D01*
X416293Y135316D02*
X424303D01*
X415288Y134416D02*
X424303D01*
X397684Y133516D02*
X424303D01*
X396784Y132616D02*
X424303D01*
X395884Y131716D02*
X424303D01*
X394984Y130816D02*
X424303D01*
X394084Y129916D02*
X424303D01*
X393184Y129016D02*
X424303D01*
X392284Y128116D02*
X424303D01*
X391384Y127216D02*
X424303D01*
X390484Y126316D02*
X424303D01*
X389584Y125416D02*
X424303D01*
X388684Y124516D02*
X424303D01*
X387784Y123616D02*
X424303D01*
X387834Y122716D02*
X424303D01*
X388734Y121816D02*
X424303D01*
X389634Y120916D02*
X424303D01*
X391199Y120016D02*
X424303D01*
X392567Y119116D02*
X424303D01*
X393303Y118216D02*
X424303D01*
X393741Y117316D02*
X424303D01*
X394134Y116416D02*
X424303D01*
X395034Y115516D02*
X424303D01*
X395934Y114616D02*
X424303D01*
X396834Y113716D02*
X424303D01*
X397734Y112816D02*
X424303D01*
X400415Y183916D02*
X411790D01*
X401432Y141616D02*
X410772D01*
X401508Y134416D02*
X410696D01*
X402036Y184816D02*
X410169D01*
X402801Y185716D02*
X409403D01*
X403233Y186616D02*
X408971D01*
X403435Y187516D02*
X408769D01*
X403441Y188416D02*
X408764D01*
X403251Y189316D02*
X408720D01*
X402834Y190216D02*
X407821D01*
X402094Y191116D02*
X406921D01*
X396871Y260416D02*
X406094D01*
X400579Y192016D02*
X406021D01*
X339870Y192916D02*
X405121D01*
X379122Y193816D02*
X404221D01*
X396104Y261316D02*
X404076D01*
X378323Y262216D02*
X403147D01*
X375577Y268516D02*
X403134D01*
X375233Y267616D02*
X402586D01*
X339870Y263116D02*
X402574D01*
X374178Y266716D02*
X402237D01*
X339870Y264016D02*
X402231D01*
X339870Y265816D02*
X402071D01*
X339870Y264916D02*
X402069D01*
X339870Y246916D02*
X398752D01*
X339870Y247816D02*
X398055D01*
X339870Y192016D02*
X397846D01*
X339870Y248716D02*
X397759D01*
X339870Y249616D02*
X397746D01*
X339870Y250516D02*
X397571D01*
X339870Y251416D02*
X397171D01*
X368934Y141616D02*
X396993D01*
X339870Y252316D02*
X396771D01*
X339870Y253216D02*
X396371D01*
X339870Y191116D02*
X396332D01*
X339870Y254116D02*
X395971D01*
X369834Y140716D02*
X395951D01*
X339870Y190216D02*
X395591D01*
X339870Y255016D02*
X395571D01*
X370734Y139816D02*
X395374D01*
X339870Y189316D02*
X395174D01*
X339870Y255916D02*
X395171D01*
X371634Y138916D02*
X395065D01*
X373434Y137116D02*
X395054D01*
X339870Y187516D02*
X394990D01*
X339870Y188416D02*
X394984D01*
X372534Y138016D02*
X394963D01*
X339870Y186616D02*
X394889D01*
X376884Y256816D02*
X394771D01*
X374334Y136216D02*
X394489D01*
X378590Y257716D02*
X394371D01*
X339870Y185716D02*
X393989D01*
X375234Y135316D02*
X393589D01*
X351390Y184816D02*
X393089D01*
X376134Y134416D02*
X392689D01*
X352172Y183916D02*
X392189D01*
X377034Y133516D02*
X391789D01*
X352183Y183016D02*
X391289D01*
X377934Y132616D02*
X390889D01*
X352183Y182116D02*
X390389D01*
X378834Y131716D02*
X389989D01*
X352183Y181216D02*
X389489D01*
X379734Y130816D02*
X389089D01*
X352183Y180316D02*
X388589D01*
X380634Y129916D02*
X388189D01*
X371242Y179416D02*
X387689D01*
X381534Y129016D02*
X387289D01*
X373987Y245116D02*
X387037D01*
X382434Y128116D02*
X386389D01*
X383334Y127216D02*
X385489D01*
X339870Y199216D02*
X376217D01*
X339870Y193816D02*
X375996D01*
X339870Y256816D02*
X375872D01*
X339870Y198316D02*
X375118D01*
X339870Y194716D02*
X375032D01*
X339870Y197416D02*
X374644D01*
X339870Y195616D02*
X374608D01*
X339870Y196516D02*
X374491D01*
X339870Y262216D02*
X374433D01*
X339870Y257716D02*
X374166D01*
X339870Y261316D02*
X373686D01*
X339870Y258616D02*
X373565D01*
X339870Y260416D02*
X373363D01*
X339870Y259516D02*
X373327D01*
X362761Y266716D02*
X372278D01*
X354519Y235216D02*
X371960D01*
X369545Y240616D02*
X371930D01*
X369702Y239716D02*
X371229D01*
X354748Y236116D02*
X371054D01*
X365235Y245116D02*
X370891D01*
X369492Y241516D02*
X370874D01*
X369505Y238816D02*
X370728D01*
X355549Y237016D02*
X370654D01*
X368822Y237916D02*
X370556D01*
X339870Y174016D02*
X368335D01*
X352183Y179416D02*
X368128D01*
X339870Y174916D02*
X367241D01*
X352183Y178516D02*
X367161D01*
X339870Y175816D02*
X366769D01*
X352182Y177616D02*
X366735D01*
X351652Y176716D02*
X366617D01*
X356449Y237916D02*
X365824D01*
X339870Y266716D02*
X360861D01*
X339870Y267616D02*
X359806D01*
X339870Y268516D02*
X359462D01*
X349368Y241516D02*
X354950D01*
X339870Y240616D02*
X354367D01*
X339870Y239716D02*
X353467D01*
X339870Y238816D02*
X352567D01*
X339870Y234316D02*
X350936D01*
X339870Y237916D02*
X350693D01*
X339870Y235216D02*
X350205D01*
X339870Y237016D02*
X350120D01*
X339870Y236116D02*
X349985D01*
X339870Y246016D02*
X347876D01*
X339870Y241516D02*
X347482D01*
X339870Y245116D02*
X346512D01*
X339870Y242416D02*
X346422D01*
X339870Y244216D02*
X346102D01*
X339870Y243316D02*
X346077D01*
X339870Y184816D02*
X344673D01*
X339870Y176716D02*
X344411D01*
X339870Y183916D02*
X343891D01*
X339870Y177616D02*
X343881D01*
X339870Y183016D02*
X343880D01*
X339870Y182116D02*
X343880D01*
X339870Y181216D02*
X343880D01*
X339870Y180316D02*
X343880D01*
X339870Y179416D02*
X343880D01*
X339870Y178516D02*
X343880D01*
X301060Y268516D02*
X314461D01*
X301196Y267616D02*
X314461D01*
X300978Y266716D02*
X314461D01*
X300251Y265816D02*
X314461D01*
X257878Y264916D02*
X314461D01*
X299105Y264016D02*
X314461D01*
X300672Y263116D02*
X314461D01*
X301572Y262216D02*
X314461D01*
X302472Y261316D02*
X314461D01*
X303372Y260416D02*
X314461D01*
X304272Y259516D02*
X314461D01*
X305172Y258616D02*
X314461D01*
X306072Y257716D02*
X314461D01*
X306972Y256816D02*
X314461D01*
X307872Y255916D02*
X314461D01*
X308772Y255016D02*
X314461D01*
X309672Y254116D02*
X314461D01*
X310572Y253216D02*
X314461D01*
X311472Y252316D02*
X314461D01*
X312372Y251416D02*
X314461D01*
X278265Y231616D02*
X314461D01*
X278265Y230716D02*
X314461D01*
X278265Y229816D02*
X314461D01*
X278265Y228916D02*
X314461D01*
X278265Y228016D02*
X314461D01*
X278265Y227116D02*
X314461D01*
X278265Y226216D02*
X314461D01*
X278265Y225316D02*
X314461D01*
X278265Y224416D02*
X314461D01*
X278265Y223516D02*
X314461D01*
X278265Y222616D02*
X314461D01*
X278265Y221716D02*
X314461D01*
X278265Y220816D02*
X314461D01*
X278265Y219916D02*
X314461D01*
X278265Y219016D02*
X314461D01*
X278265Y218116D02*
X314461D01*
X278265Y217216D02*
X314461D01*
X278265Y216316D02*
X314461D01*
X278265Y215416D02*
X314461D01*
X278149Y214516D02*
X314461D01*
X277726Y213616D02*
X314461D01*
X276898Y212716D02*
X314461D01*
X275998Y211816D02*
X314461D01*
X275098Y210916D02*
X314461D01*
X274198Y210016D02*
X314461D01*
X273298Y209116D02*
X314461D01*
X272398Y208216D02*
X314461D01*
X271498Y207316D02*
X314461D01*
X270598Y206416D02*
X314461D01*
X269698Y205516D02*
X314461D01*
X268798Y204616D02*
X314461D01*
X267898Y203716D02*
X314461D01*
X266998Y202816D02*
X314461D01*
X266098Y201916D02*
X314461D01*
X265198Y201016D02*
X314461D01*
X264298Y200116D02*
X314461D01*
X296440Y199216D02*
X314461D01*
X297348Y198316D02*
X314461D01*
X298248Y197416D02*
X314461D01*
X299148Y196516D02*
X314461D01*
X300048Y195616D02*
X314461D01*
X300948Y194716D02*
X314461D01*
X301848Y193816D02*
X314461D01*
X302748Y192916D02*
X314461D01*
X306091Y192016D02*
X314461D01*
X307605Y191116D02*
X314461D01*
X308346Y190216D02*
X314461D01*
X308763Y189316D02*
X314461D01*
X308953Y188416D02*
X314461D01*
X308947Y187516D02*
X314461D01*
X308745Y186616D02*
X314461D01*
X308313Y185716D02*
X314461D01*
X307548Y184816D02*
X314461D01*
X305926Y183916D02*
X314461D01*
X288916Y183016D02*
X314461D01*
X288016Y182116D02*
X314461D01*
X287116Y181216D02*
X314461D01*
X286216Y180316D02*
X314461D01*
X285316Y179416D02*
X314461D01*
X284416Y178516D02*
X314461D01*
X283516Y177616D02*
X314461D01*
X282616Y176716D02*
X314461D01*
X281716Y175816D02*
X314461D01*
X260749Y174916D02*
X314461D01*
X230028Y174016D02*
X314461D01*
X230028Y173116D02*
X314461D01*
X230028Y172216D02*
X314461D01*
X230028Y171316D02*
X314461D01*
X230291Y170416D02*
X314461D01*
X231191Y169516D02*
X314461D01*
X232091Y168616D02*
X314461D01*
X232991Y167716D02*
X314461D01*
X233891Y166816D02*
X314461D01*
X234791Y165916D02*
X314461D01*
X235691Y165016D02*
X314461D01*
X236591Y164116D02*
X314461D01*
X237491Y163216D02*
X314461D01*
X238391Y162316D02*
X314461D01*
X239291Y161416D02*
X314461D01*
X240191Y160516D02*
X314461D01*
X241091Y159616D02*
X314461D01*
X241991Y158716D02*
X314461D01*
X242891Y157816D02*
X314461D01*
X243791Y156916D02*
X314461D01*
X244691Y156016D02*
X314461D01*
X245591Y155116D02*
X314461D01*
X246491Y154216D02*
X314461D01*
X247391Y153316D02*
X314461D01*
X248291Y152416D02*
X314461D01*
X249191Y151516D02*
X314461D01*
X250091Y150616D02*
X314461D01*
X250991Y149716D02*
X314461D01*
X251891Y148816D02*
X314461D01*
X252791Y147916D02*
X314461D01*
X253691Y147016D02*
X314461D01*
X254591Y146116D02*
X314461D01*
X255491Y145216D02*
X314461D01*
X256391Y144316D02*
X314461D01*
X257291Y143416D02*
X314461D01*
X258191Y142516D02*
X314461D01*
X306944Y141616D02*
X314461D01*
X307986Y140716D02*
X314461D01*
X308563Y139816D02*
X314461D01*
X308872Y138916D02*
X314461D01*
X308974Y138016D02*
X314461D01*
X308883Y137116D02*
X314461D01*
X308585Y136216D02*
X314461D01*
X308026Y135316D02*
X314461D01*
X307020Y134416D02*
X314461D01*
X291399Y133516D02*
X314461D01*
X290499Y132616D02*
X314461D01*
X289599Y131716D02*
X314461D01*
X288699Y130816D02*
X314461D01*
X287799Y129916D02*
X314461D01*
X286899Y129016D02*
X314461D01*
X285999Y128116D02*
X314461D01*
X285099Y127216D02*
X314461D01*
X284199Y126316D02*
X314461D01*
X283299Y125416D02*
X314461D01*
X282399Y124516D02*
X314461D01*
X281499Y123616D02*
X314461D01*
X280599Y122716D02*
X314461D01*
X279699Y121816D02*
X314461D01*
X279791Y120916D02*
X314461D01*
X284900Y120016D02*
X314461D01*
X286267Y119116D02*
X314461D01*
X287004Y118216D02*
X314461D01*
X287441Y117316D02*
X314461D01*
X287666Y116416D02*
X314461D01*
X287708Y115516D02*
X314461D01*
X287574Y114616D02*
X314461D01*
X287271Y113716D02*
X314461D01*
X287891Y112816D02*
X314461D01*
X313272Y250516D02*
X314460D01*
X278265Y232516D02*
X314070D01*
X292147Y183916D02*
X303522D01*
X293165Y141616D02*
X302505D01*
X293241Y134416D02*
X302429D01*
X293768Y184816D02*
X301901D01*
X294534Y185716D02*
X301136D01*
X294966Y186616D02*
X300704D01*
X295168Y187516D02*
X300502D01*
X295173Y188416D02*
X300496D01*
X294983Y189316D02*
X300452D01*
X278265Y233416D02*
X300267D01*
X294566Y190216D02*
X299553D01*
X278265Y234316D02*
X299418D01*
X278265Y235216D02*
X298952D01*
X278265Y236116D02*
X298720D01*
X293826Y191116D02*
X298653D01*
X278265Y237016D02*
X297879D01*
X292312Y192016D02*
X297753D01*
X258778Y265816D02*
X297387D01*
X278265Y237916D02*
X296979D01*
X270550Y192916D02*
X296853D01*
X278265Y238816D02*
X296079D01*
X270772Y193816D02*
X295953D01*
X278265Y239716D02*
X295179D01*
X271286Y194716D02*
X295053D01*
X278265Y240616D02*
X294279D01*
X278265Y241516D02*
X293379D01*
X278265Y242416D02*
X292479D01*
X278265Y243316D02*
X291639D01*
X248147Y253216D02*
X291420D01*
X248147Y252316D02*
X291420D01*
X248147Y251416D02*
X291420D01*
X248147Y250516D02*
X291420D01*
X248147Y249616D02*
X291420D01*
X276739Y248716D02*
X291420D01*
X277715Y247816D02*
X291420D01*
X278144Y246916D02*
X291420D01*
X278265Y246016D02*
X291420D01*
X278265Y245116D02*
X291420D01*
X278265Y244216D02*
X291420D01*
X262381Y257716D02*
X291215D01*
X248147Y254116D02*
X290986D01*
X261025Y256816D02*
X290923D01*
X248149Y255016D02*
X290586D01*
X248878Y255916D02*
X290568D01*
X269974Y192016D02*
X289578D01*
X259091Y141616D02*
X288725D01*
X268454Y191116D02*
X288064D01*
X259991Y140716D02*
X287683D01*
X230028Y190216D02*
X287324D01*
X260891Y139816D02*
X287107D01*
X230028Y189316D02*
X286907D01*
X261791Y138916D02*
X286797D01*
X230028Y187516D02*
X286722D01*
X230028Y188416D02*
X286716D01*
X262691Y138016D02*
X286695D01*
X230028Y186616D02*
X286621D01*
X263591Y137116D02*
X286320D01*
X230028Y185716D02*
X285721D01*
X264491Y136216D02*
X285420D01*
X237217Y184816D02*
X284821D01*
X265391Y135316D02*
X284520D01*
X237998Y183916D02*
X283921D01*
X266291Y134416D02*
X283620D01*
X238009Y183016D02*
X283021D01*
X267191Y133516D02*
X282720D01*
X238009Y182116D02*
X282121D01*
X268091Y132616D02*
X281820D01*
X280711Y120016D02*
X281242D01*
X238009Y181216D02*
X281221D01*
X268991Y131716D02*
X280920D01*
X238009Y180316D02*
X280321D01*
X269891Y130816D02*
X280020D01*
X260747Y179416D02*
X279421D01*
X270791Y129916D02*
X279120D01*
X271691Y129016D02*
X278220D01*
X272591Y128116D02*
X277320D01*
X273491Y127216D02*
X276420D01*
X274391Y126316D02*
X275520D01*
X248147Y248716D02*
X273655D01*
X248147Y247816D02*
X272678D01*
X248147Y246916D02*
X272249D01*
X248147Y246016D02*
X272128D01*
X248147Y245116D02*
X272128D01*
X248147Y244216D02*
X272128D01*
X248147Y243316D02*
X272128D01*
X248147Y242416D02*
X272128D01*
X248147Y241516D02*
X272128D01*
X248147Y240616D02*
X272128D01*
X248147Y239716D02*
X272128D01*
X248147Y238816D02*
X272128D01*
X248147Y237916D02*
X272128D01*
X248147Y237016D02*
X272128D01*
X248147Y236116D02*
X272128D01*
X248147Y235216D02*
X272128D01*
X248147Y234316D02*
X272128D01*
X248147Y233416D02*
X272128D01*
X248147Y232516D02*
X272128D01*
X248147Y231616D02*
X272128D01*
X248147Y230716D02*
X272128D01*
X248147Y229816D02*
X272128D01*
X248232Y228916D02*
X272128D01*
X249051Y228016D02*
X272128D01*
X249435Y227116D02*
X272128D01*
X249521Y226216D02*
X272128D01*
X249336Y225316D02*
X272128D01*
X248816Y224416D02*
X272128D01*
X247564Y223516D02*
X272128D01*
X230028Y222616D02*
X272128D01*
X230028Y221716D02*
X272128D01*
X230028Y220816D02*
X272128D01*
X230028Y219916D02*
X272128D01*
X230028Y219016D02*
X272128D01*
X230028Y218116D02*
X272128D01*
X230028Y217216D02*
X272128D01*
X230028Y216316D02*
X271819D01*
X230028Y215416D02*
X270919D01*
X230028Y214516D02*
X270019D01*
X263398Y199216D02*
X269898D01*
X230028Y213616D02*
X269119D01*
X262449Y198316D02*
X268990D01*
X230028Y212716D02*
X268219D01*
X230028Y197416D02*
X268090D01*
X230028Y211816D02*
X267319D01*
X230028Y191116D02*
X266979D01*
X230028Y210916D02*
X266419D01*
X230028Y196516D02*
X265832D01*
X230028Y210016D02*
X265519D01*
X230028Y192016D02*
X265459D01*
X230028Y195616D02*
X265052D01*
X230028Y192916D02*
X264883D01*
X230028Y194716D02*
X264712D01*
X230028Y193816D02*
X264661D01*
X230028Y209116D02*
X264619D01*
X230028Y208216D02*
X263719D01*
X230028Y207316D02*
X262819D01*
X230028Y206416D02*
X261919D01*
X256978Y264016D02*
X261132D01*
X230028Y205516D02*
X261019D01*
X230028Y204616D02*
X260119D01*
X256078Y263116D02*
X259418D01*
X230028Y203716D02*
X259219D01*
X230028Y198316D02*
X258811D01*
X230028Y202816D02*
X258328D01*
X255178Y262216D02*
X258068D01*
X230028Y199216D02*
X257994D01*
X249778Y256816D02*
X257873D01*
X230028Y201916D02*
X257776D01*
X230028Y200116D02*
X257636D01*
X230028Y201016D02*
X257570D01*
X254278Y261316D02*
X257014D01*
X250678Y257716D02*
X256916D01*
X247755Y268516D02*
X256629D01*
X238009Y179416D02*
X256576D01*
X230028Y174916D02*
X256574D01*
X253378Y260416D02*
X256537D01*
X251578Y258616D02*
X256495D01*
X252478Y259516D02*
X256381D01*
X238009Y178516D02*
X255906D01*
X230028Y175816D02*
X255905D01*
X248124Y267616D02*
X255797D01*
X238009Y177616D02*
X255626D01*
X237478Y176716D02*
X255626D01*
X248311Y266716D02*
X254897D01*
X248334Y265816D02*
X253997D01*
X248193Y264916D02*
X253097D01*
X247874Y264016D02*
X252197D01*
X247334Y263116D02*
X251297D01*
X246463Y262216D02*
X250397D01*
X244751Y261316D02*
X249497D01*
X239987Y260416D02*
X248597D01*
X240887Y259516D02*
X247697D01*
X241787Y258616D02*
X246797D01*
X242486Y257716D02*
X245897D01*
X230028Y223516D02*
X245350D01*
X242788Y256816D02*
X245045D01*
X242832Y255916D02*
X244766D01*
X242832Y255016D02*
X244766D01*
X242832Y254116D02*
X244766D01*
X242832Y253216D02*
X244766D01*
X242801Y252316D02*
X244766D01*
X242524Y251416D02*
X244766D01*
X241861Y250516D02*
X244766D01*
X230028Y249616D02*
X244766D01*
X230028Y248716D02*
X244766D01*
X230028Y247816D02*
X244766D01*
X230028Y246916D02*
X244766D01*
X230028Y246016D02*
X244766D01*
X230028Y245116D02*
X244766D01*
X230028Y244216D02*
X244766D01*
X230028Y243316D02*
X244766D01*
X230028Y242416D02*
X244766D01*
X230028Y241516D02*
X244766D01*
X230028Y240616D02*
X244766D01*
X230028Y239716D02*
X244766D01*
X230028Y238816D02*
X244766D01*
X230028Y237916D02*
X244766D01*
X230028Y237016D02*
X244766D01*
X230028Y236116D02*
X244766D01*
X230028Y235216D02*
X244766D01*
X230028Y234316D02*
X244766D01*
X230028Y233416D02*
X244766D01*
X230028Y232516D02*
X244766D01*
X230028Y231616D02*
X244766D01*
X230028Y230716D02*
X244766D01*
X230028Y229816D02*
X244766D01*
X230028Y228916D02*
X244681D01*
X230028Y224416D02*
X244097D01*
X230028Y228016D02*
X243862D01*
X230028Y225316D02*
X243578D01*
X230028Y227116D02*
X243478D01*
X230028Y226216D02*
X243392D01*
X239087Y261316D02*
X241863D01*
X238187Y262216D02*
X240151D01*
X237287Y263116D02*
X239280D01*
X235746Y268516D02*
X238859D01*
X236387Y264016D02*
X238741D01*
X235746Y267616D02*
X238491D01*
X235746Y264916D02*
X238421D01*
X235746Y266716D02*
X238303D01*
X235746Y265816D02*
X238281D01*
X230028Y250516D02*
X237666D01*
X230028Y251416D02*
X237003D01*
X230028Y252316D02*
X236727D01*
X230028Y254116D02*
X236695D01*
X230028Y253216D02*
X236695D01*
X230028Y255016D02*
X236656D01*
X230028Y255916D02*
X235807D01*
X230028Y256816D02*
X234907D01*
X230028Y257716D02*
X234007D01*
X230028Y258616D02*
X233107D01*
X230028Y259516D02*
X232207D01*
X230028Y260416D02*
X231307D01*
X188700Y268516D02*
X201862D01*
X189068Y267616D02*
X201862D01*
X189256Y266716D02*
X201862D01*
X189278Y265816D02*
X201862D01*
X189138Y264916D02*
X201862D01*
X188818Y264016D02*
X201862D01*
X188279Y263116D02*
X201862D01*
X187408Y262216D02*
X201862D01*
X185696Y261316D02*
X201862D01*
X125439Y260416D02*
X201862D01*
X126339Y259516D02*
X201862D01*
X127239Y258616D02*
X201862D01*
X175486Y257716D02*
X201862D01*
X177048Y256816D02*
X201862D01*
X177631Y255916D02*
X201862D01*
X177858Y255016D02*
X201862D01*
X177872Y254116D02*
X201862D01*
X177872Y253216D02*
X201862D01*
X177872Y252316D02*
X201862D01*
X177872Y251416D02*
X201862D01*
X177872Y250516D02*
X201862D01*
X177872Y249616D02*
X201862D01*
X177872Y248716D02*
X201862D01*
X177872Y247816D02*
X201862D01*
X177872Y246916D02*
X201862D01*
X177872Y246016D02*
X201862D01*
X177872Y245116D02*
X201862D01*
X177872Y244216D02*
X201862D01*
X177872Y243316D02*
X201862D01*
X177872Y242416D02*
X201862D01*
X177872Y241516D02*
X201862D01*
X177872Y240616D02*
X201862D01*
X177872Y239716D02*
X201862D01*
X177872Y238816D02*
X201862D01*
X177872Y237916D02*
X201862D01*
X177872Y237016D02*
X201862D01*
X177872Y236116D02*
X201862D01*
X177872Y235216D02*
X201862D01*
X177872Y234316D02*
X201862D01*
X177872Y233416D02*
X201862D01*
X177872Y232516D02*
X201862D01*
X177915Y231616D02*
X201862D01*
X178787Y230716D02*
X201862D01*
X179710Y229816D02*
X201862D01*
X180634Y228916D02*
X201862D01*
X181557Y228016D02*
X201862D01*
X182480Y227116D02*
X201862D01*
X183403Y226216D02*
X201862D01*
X184326Y225316D02*
X201862D01*
X185249Y224416D02*
X201862D01*
X186172Y223516D02*
X201862D01*
X187095Y222616D02*
X201862D01*
X188018Y221716D02*
X201862D01*
X188941Y220816D02*
X201862D01*
X189864Y219916D02*
X201862D01*
X190787Y219016D02*
X201862D01*
X191710Y218116D02*
X201862D01*
X192634Y217216D02*
X201862D01*
X193304Y216316D02*
X201862D01*
X193586Y215416D02*
X201862D01*
X193620Y214516D02*
X201862D01*
X193620Y213616D02*
X201862D01*
X193620Y212716D02*
X201862D01*
X193620Y211816D02*
X201862D01*
X193620Y210916D02*
X201862D01*
X193620Y210016D02*
X201862D01*
X193620Y209116D02*
X201862D01*
X193620Y208216D02*
X201862D01*
X193569Y207316D02*
X201862D01*
X193251Y206416D02*
X201862D01*
X192515Y205516D02*
X201862D01*
X117429Y204616D02*
X201862D01*
X117429Y203716D02*
X201862D01*
X117429Y202816D02*
X201862D01*
X117429Y201916D02*
X201862D01*
X117429Y201016D02*
X201862D01*
X117429Y200116D02*
X201862D01*
X177053Y199216D02*
X201862D01*
X178254Y198316D02*
X201862D01*
X179154Y197416D02*
X201862D01*
X180054Y196516D02*
X201862D01*
X180954Y195616D02*
X201862D01*
X181854Y194716D02*
X201862D01*
X182754Y193816D02*
X201862D01*
X186239Y192916D02*
X201862D01*
X187616Y192016D02*
X201862D01*
X188317Y191116D02*
X201862D01*
X188710Y190216D02*
X201862D01*
X188882Y189316D02*
X201862D01*
X188858Y188416D02*
X201862D01*
X188636Y187516D02*
X201862D01*
X188180Y186616D02*
X201862D01*
X187371Y185716D02*
X201862D01*
X185512Y184816D02*
X201862D01*
X155761Y183916D02*
X201862D01*
X154861Y183016D02*
X201862D01*
X153961Y182116D02*
X201862D01*
X153061Y181216D02*
X201862D01*
X152161Y180316D02*
X201862D01*
X151261Y179416D02*
X201862D01*
X150361Y178516D02*
X201862D01*
X149461Y177616D02*
X201862D01*
X148561Y176716D02*
X201862D01*
X147661Y175816D02*
X201862D01*
X146761Y174916D02*
X201862D01*
X145861Y174016D02*
X201862D01*
X144925Y173116D02*
X201862D01*
X141414Y172216D02*
X201862D01*
X117429Y171316D02*
X201862D01*
X117693Y170416D02*
X201862D01*
X118593Y169516D02*
X201862D01*
X119493Y168616D02*
X201862D01*
X120393Y167716D02*
X201862D01*
X121293Y166816D02*
X201862D01*
X122193Y165916D02*
X201862D01*
X123093Y165016D02*
X201862D01*
X123993Y164116D02*
X201862D01*
X124893Y163216D02*
X201862D01*
X125793Y162316D02*
X201862D01*
X126693Y161416D02*
X201862D01*
X127593Y160516D02*
X201862D01*
X128493Y159616D02*
X201862D01*
X129393Y158716D02*
X201862D01*
X130293Y157816D02*
X201862D01*
X131193Y156916D02*
X201862D01*
X132093Y156016D02*
X201862D01*
X132993Y155116D02*
X201862D01*
X133893Y154216D02*
X201862D01*
X134793Y153316D02*
X201862D01*
X135693Y152416D02*
X201862D01*
X136593Y151516D02*
X201862D01*
X137493Y150616D02*
X201862D01*
X138393Y149716D02*
X201862D01*
X139293Y148816D02*
X201862D01*
X140193Y147916D02*
X201862D01*
X141093Y147016D02*
X201862D01*
X141993Y146116D02*
X201862D01*
X142893Y145216D02*
X201862D01*
X143793Y144316D02*
X201862D01*
X144693Y143416D02*
X201862D01*
X186997Y142516D02*
X201862D01*
X187976Y141616D02*
X201862D01*
X188523Y140716D02*
X201862D01*
X188812Y139816D02*
X201862D01*
X188895Y138916D02*
X201862D01*
X188785Y138016D02*
X201862D01*
X188466Y137116D02*
X201862D01*
X187877Y136216D02*
X201862D01*
X186805Y135316D02*
X201862D01*
X170645Y134416D02*
X201862D01*
X169745Y133516D02*
X201862D01*
X168845Y132616D02*
X201862D01*
X167945Y131716D02*
X201862D01*
X167045Y130816D02*
X201862D01*
X166145Y129916D02*
X201862D01*
X165245Y129016D02*
X201862D01*
X164345Y128116D02*
X201862D01*
X163445Y127216D02*
X201862D01*
X162545Y126316D02*
X201862D01*
X162693Y125416D02*
X201862D01*
X163593Y124516D02*
X201862D01*
X164493Y123616D02*
X201862D01*
X165393Y122716D02*
X201862D01*
X166293Y121816D02*
X201862D01*
X167193Y120916D02*
X201862D01*
X174664Y120016D02*
X201862D01*
X176031Y119116D02*
X201862D01*
X176768Y118216D02*
X201862D01*
X177205Y117316D02*
X201862D01*
X177430Y116416D02*
X201862D01*
X177472Y115516D02*
X201862D01*
X177338Y114616D02*
X201862D01*
X177010Y113716D02*
X201862D01*
X176435Y112816D02*
X201862D01*
X117429Y205516D02*
X188588D01*
X117429Y206416D02*
X187851D01*
X117429Y207316D02*
X187534D01*
X117429Y212716D02*
X187483D01*
X117429Y211816D02*
X187483D01*
X117429Y210916D02*
X187483D01*
X117429Y210016D02*
X187483D01*
X117429Y209116D02*
X187483D01*
X117429Y208216D02*
X187483D01*
X117429Y213616D02*
X187456D01*
X117429Y214516D02*
X186612D01*
X117429Y215416D02*
X185689D01*
X117429Y216316D02*
X184766D01*
X117429Y217216D02*
X183842D01*
X171733Y184816D02*
X183779D01*
X117429Y218116D02*
X182919D01*
X124451Y261316D02*
X182808D01*
X173025Y135316D02*
X182487D01*
X173218Y142516D02*
X182294D01*
X117429Y219016D02*
X181996D01*
X173592Y185716D02*
X181920D01*
X174400Y186616D02*
X181112D01*
X118674Y262216D02*
X181096D01*
X117429Y219916D02*
X181073D01*
X174857Y187516D02*
X180655D01*
X174931Y190216D02*
X180434D01*
X175079Y188416D02*
X180433D01*
X175102Y189316D02*
X180410D01*
X117429Y263116D02*
X180225D01*
X117429Y220816D02*
X180150D01*
X145762Y268516D02*
X179804D01*
X145951Y264016D02*
X179685D01*
X174538Y191116D02*
X179558D01*
X146750Y267616D02*
X179436D01*
X146921Y264916D02*
X179366D01*
X147191Y266716D02*
X179248D01*
X117429Y221716D02*
X179227D01*
X147239Y265816D02*
X179225D01*
X173836Y192016D02*
X178658D01*
X117429Y222616D02*
X178304D01*
X172459Y192916D02*
X177758D01*
X117429Y223516D02*
X177381D01*
X153056Y193816D02*
X176858D01*
X117429Y224416D02*
X176458D01*
X153569Y194716D02*
X175958D01*
X117429Y225316D02*
X175535D01*
X117429Y226216D02*
X174612D01*
X128139Y257716D02*
X174120D01*
X117429Y227116D02*
X173689D01*
X117429Y228016D02*
X172766D01*
X155210Y256816D02*
X172558D01*
X117429Y228916D02*
X172072D01*
X155785Y255916D02*
X171975D01*
X117429Y229816D02*
X171775D01*
X155921Y255016D02*
X171749D01*
X155702Y254116D02*
X171735D01*
X154973Y253216D02*
X171735D01*
X117429Y252316D02*
X171735D01*
X117429Y251416D02*
X171735D01*
X117429Y250516D02*
X171735D01*
X117429Y249616D02*
X171735D01*
X117429Y248716D02*
X171735D01*
X117429Y247816D02*
X171735D01*
X135976Y246916D02*
X171735D01*
X136513Y246016D02*
X171735D01*
X136626Y245116D02*
X171735D01*
X136383Y244216D02*
X171735D01*
X135602Y243316D02*
X171735D01*
X150502Y242416D02*
X171735D01*
X151177Y241516D02*
X171735D01*
X151459Y240616D02*
X171735D01*
X151462Y239716D02*
X171735D01*
X151185Y238816D02*
X171735D01*
X150521Y237916D02*
X171735D01*
X117429Y237016D02*
X171735D01*
X117429Y236116D02*
X171735D01*
X117429Y235216D02*
X171735D01*
X117429Y234316D02*
X171735D01*
X117429Y233416D02*
X171735D01*
X117429Y232516D02*
X171735D01*
X117429Y231616D02*
X171735D01*
X117429Y230716D02*
X171735D01*
X168093Y120016D02*
X171006D01*
X156661Y184816D02*
X170000D01*
X168995Y119116D02*
X169637D01*
X152833Y192916D02*
X169273D01*
X145593Y142516D02*
X168514D01*
X157561Y185716D02*
X168140D01*
X152257Y192016D02*
X167896D01*
X146493Y141616D02*
X167536D01*
X158461Y186616D02*
X167332D01*
X150738Y191116D02*
X167110D01*
X147393Y140716D02*
X166989D01*
X148293Y139816D02*
X166700D01*
X149193Y138916D02*
X166466D01*
X150093Y138016D02*
X165566D01*
X150993Y137116D02*
X164666D01*
X151893Y136216D02*
X163766D01*
X152793Y135316D02*
X162866D01*
X153693Y134416D02*
X161966D01*
X154593Y133516D02*
X161066D01*
X155493Y132616D02*
X160166D01*
X156393Y131716D02*
X159266D01*
X157293Y130816D02*
X158366D01*
X117429Y190216D02*
X156166D01*
X117429Y189316D02*
X155266D01*
X117429Y188416D02*
X154366D01*
X117429Y187516D02*
X153466D01*
X117429Y186616D02*
X152566D01*
X117429Y199216D02*
X152475D01*
X117429Y253216D02*
X152114D01*
X129169Y256816D02*
X151760D01*
X117429Y185716D02*
X151666D01*
X117429Y198316D02*
X151274D01*
X121075Y184816D02*
X150766D01*
X117429Y197416D02*
X150374D01*
X121857Y183916D02*
X149866D01*
X117429Y191116D02*
X149262D01*
X121868Y183016D02*
X148966D01*
X117429Y196516D02*
X148115D01*
X121868Y182116D02*
X148066D01*
X117429Y192016D02*
X147743D01*
X117429Y195616D02*
X147335D01*
X117429Y192916D02*
X147167D01*
X121868Y181216D02*
X147166D01*
X117429Y194716D02*
X146995D01*
X117429Y193816D02*
X146944D01*
X131998Y242416D02*
X146348D01*
X132017Y237916D02*
X146330D01*
X121868Y180316D02*
X146266D01*
X121868Y179416D02*
X145366D01*
X121868Y178516D02*
X144466D01*
X122723Y264016D02*
X143813D01*
X140990Y177616D02*
X143566D01*
X121867D02*
X138538D01*
X117429Y172216D02*
X138114D01*
X121337Y176716D02*
X137364D01*
X117429Y173116D02*
X137201D01*
X117429Y175816D02*
X136867D01*
X117429Y174016D02*
X136798D01*
X117429Y174916D02*
X136697D01*
X131518Y243316D02*
X132902D01*
X117486D02*
X128324D01*
X117429Y242416D02*
X127844D01*
X117429Y237916D02*
X127826D01*
X117429Y241516D02*
X127170D01*
X117429Y238816D02*
X127161D01*
X117429Y254116D02*
X126958D01*
X117429Y240616D02*
X126887D01*
X117429Y239716D02*
X126885D01*
X117429Y255016D02*
X126058D01*
X117429Y255916D02*
X125158D01*
X117429Y256816D02*
X124258D01*
X119572Y257716D02*
X123358D01*
X117429Y268516D02*
X120774D01*
X117429Y264016D02*
X120584D01*
X117429Y267616D02*
X119786D01*
X117429Y264916D02*
X119614D01*
X117429Y266716D02*
X119344D01*
X117429Y265816D02*
X119296D01*
X117707Y262216D02*
X118334D01*
X471100Y450574D02*
X500934D01*
X461317Y451474D02*
X500357D01*
X459607Y452374D02*
X500005D01*
X458585Y453274D02*
X498984D01*
X458667Y454174D02*
X497847D01*
X458389Y455074D02*
X496710D01*
X457529Y455974D02*
X495573D01*
X452836Y456874D02*
X494436D01*
X453539Y457774D02*
X493300D01*
X457549Y462274D02*
X483405D01*
X454435Y458674D02*
X483244D01*
X456485Y461374D02*
X482950D01*
X454727Y459574D02*
X482754D01*
X455421Y460474D02*
X482672D01*
X461758Y450574D02*
X469057D01*
X457857Y446074D02*
X468896D01*
X458536Y446974D02*
X468193D01*
X461806Y449674D02*
X468053D01*
X460518Y447874D02*
X467764D01*
X461488Y448774D02*
X467725D01*
X458773Y452374D02*
X459291D01*
X386134Y397474D02*
X396932D01*
X385234Y398374D02*
X396236D01*
X384334Y399274D02*
X395324D01*
X383434Y400174D02*
X394424D01*
X382534Y401074D02*
X393524D01*
X342186Y401974D02*
X392624D01*
X341592Y402874D02*
X391724D01*
X340665Y403774D02*
X390824D01*
X340527Y404674D02*
X389924D01*
X282390Y356074D02*
X379028D01*
X362645Y355174D02*
X379028D01*
X363817Y354274D02*
X379028D01*
X364314Y353374D02*
X379028D01*
X364484Y352474D02*
X379028D01*
X364383Y351574D02*
X379028D01*
X363980Y350674D02*
X379028D01*
X363066Y349774D02*
X379028D01*
X350752Y348874D02*
X379028D01*
X351084Y347974D02*
X379028D01*
X362150Y347074D02*
X379028D01*
X363673Y346174D02*
X379028D01*
X364250Y345274D02*
X379028D01*
X364473Y344374D02*
X379028D01*
X364486Y343474D02*
X379028D01*
X364486Y342574D02*
X379028D01*
X364486Y341674D02*
X379028D01*
X364486Y340774D02*
X379028D01*
X364486Y339874D02*
X379028D01*
X364486Y338974D02*
X379028D01*
X364350Y338074D02*
X379028D01*
X363901Y337174D02*
X379028D01*
X363055Y336274D02*
X379028D01*
X362155Y335374D02*
X379028D01*
X361255Y334474D02*
X379028D01*
X360313Y333574D02*
X379028D01*
X328352Y332674D02*
X379028D01*
X327452Y331774D02*
X379028D01*
X326552Y330874D02*
X379028D01*
X325652Y329974D02*
X379028D01*
X324449Y329074D02*
X379028D01*
X315361Y328174D02*
X379028D01*
X315273Y327274D02*
X379028D01*
X375512Y326374D02*
X379028D01*
X377077Y325474D02*
X379028D01*
X377510Y324574D02*
X379028D01*
X377552Y323674D02*
X379028D01*
X377249Y322774D02*
X379028D01*
X314773Y326374D02*
X374881D01*
X298337Y325474D02*
X373317D01*
X298770Y324574D02*
X372884D01*
X355587Y323674D02*
X372731D01*
X356430Y322774D02*
X371843D01*
X351192Y347074D02*
X360685D01*
X350944Y346174D02*
X359161D01*
X350154Y345274D02*
X358585D01*
X282390Y344374D02*
X358362D01*
X282390Y343474D02*
X358349D01*
X282390Y342574D02*
X358349D01*
X282390Y341674D02*
X358349D01*
X282390Y340774D02*
X358349D01*
X282390Y339874D02*
X357976D01*
X331256Y345274D02*
X347484D01*
X282390Y355174D02*
X341685D01*
X331656Y348874D02*
X341533D01*
X282390Y349774D02*
X341265D01*
X282390Y354274D02*
X340513D01*
X282390Y350674D02*
X340351D01*
X282390Y353374D02*
X340017D01*
X282390Y351574D02*
X339948D01*
X282390Y352474D02*
X339847D01*
X298812Y323674D02*
X335445D01*
X282390Y345274D02*
X328586D01*
X282390Y348874D02*
X328188D01*
X282390Y346174D02*
X327796D01*
X282390Y347974D02*
X327657D01*
X282390Y347074D02*
X327548D01*
X282390Y338974D02*
X326520D01*
X282390Y338074D02*
X325073D01*
X282390Y337174D02*
X324173D01*
X304965Y322774D02*
X324149D01*
X282390Y336274D02*
X323273D01*
X282397Y335374D02*
X322373D01*
X297950Y326374D02*
X311211D01*
X297950Y327274D02*
X310711D01*
X297950Y328174D02*
X310623D01*
X298601Y322774D02*
X302122D01*
X259437Y460474D02*
X298341D01*
X258815Y459574D02*
X298013D01*
X255709Y458674D02*
X297113D01*
X294265Y461374D02*
X295499D01*
X260339D02*
X290772D01*
X493807Y378574D02*
X677453D01*
X599114Y377674D02*
X677453D01*
X600383Y376774D02*
X677453D01*
X600907Y375874D02*
X677453D01*
X601095Y374974D02*
X677453D01*
X601012Y374074D02*
X677453D01*
X601246Y373174D02*
X677453D01*
X643089Y372274D02*
X677453D01*
X643727Y371374D02*
X677453D01*
X643988Y370474D02*
X677453D01*
X643972Y369574D02*
X677453D01*
X643673Y368674D02*
X677453D01*
X643143Y367774D02*
X677453D01*
X566834Y470374D02*
X631943D01*
X566606Y471274D02*
X631670D01*
X566788Y469474D02*
X577453D01*
X566454Y468574D02*
X577453D01*
X565686Y467674D02*
X577453D01*
X434002Y466774D02*
X577453D01*
X434919Y465874D02*
X577453D01*
X509188Y464974D02*
X577453D01*
X510922Y464074D02*
X577453D01*
X511364Y463174D02*
X577453D01*
X511412Y462274D02*
X577453D01*
X511096Y461374D02*
X577453D01*
X510128Y460474D02*
X577453D01*
X496473Y459574D02*
X577453D01*
X497610Y458674D02*
X577453D01*
X498747Y457774D02*
X577453D01*
X499884Y456874D02*
X577453D01*
X501021Y455974D02*
X577453D01*
X502898Y455074D02*
X577453D01*
X504273Y454174D02*
X577453D01*
X504685Y453274D02*
X577453D01*
X504711Y452374D02*
X577453D01*
X504367Y451474D02*
X577453D01*
X510470Y450574D02*
X577453D01*
X511474Y449674D02*
X577453D01*
X511803Y448774D02*
X577453D01*
X511764Y447874D02*
X577453D01*
X511335Y446974D02*
X577453D01*
X528939Y446074D02*
X577453D01*
X529444Y445174D02*
X577453D01*
X529535Y444274D02*
X577453D01*
X529268Y443374D02*
X577453D01*
X528433Y442474D02*
X577453D01*
X550882Y437074D02*
X577453D01*
X549982Y436174D02*
X577453D01*
X549082Y435274D02*
X577453D01*
X548182Y434374D02*
X577453D01*
X547282Y433474D02*
X577453D01*
X546400Y432574D02*
X577453D01*
X559166Y431674D02*
X577453D01*
X560565Y430774D02*
X577453D01*
X561119Y429874D02*
X577453D01*
X561327Y428974D02*
X577453D01*
X561263Y428074D02*
X577453D01*
X560907Y427174D02*
X577453D01*
X560094Y426274D02*
X577453D01*
X490873Y425374D02*
X577453D01*
X489973Y424474D02*
X577453D01*
X489073Y423574D02*
X577453D01*
X488173Y422674D02*
X577453D01*
X525942Y421774D02*
X577453D01*
X526864Y420874D02*
X577453D01*
X527165Y419974D02*
X577453D01*
X527103Y419074D02*
X577453D01*
X526642Y418174D02*
X577453D01*
X482773Y417274D02*
X577453D01*
X502479Y416374D02*
X577453D01*
X503567Y415474D02*
X577453D01*
X503920Y414574D02*
X577453D01*
X503901Y413674D02*
X577453D01*
X535864Y412774D02*
X577453D01*
X536474Y411874D02*
X577453D01*
X536631Y410974D02*
X577453D01*
X541851Y410074D02*
X577453D01*
X542938Y409174D02*
X577453D01*
X543291Y408274D02*
X577453D01*
X543271Y407374D02*
X577453D01*
X542887Y406474D02*
X577453D01*
X543760Y405574D02*
X577453D01*
X544613Y404674D02*
X577453D01*
X544888Y403774D02*
X577453D01*
X544803Y402874D02*
X577453D01*
X544309Y401974D02*
X577453D01*
X542982Y401074D02*
X577453D01*
X542921Y400174D02*
X577453D01*
X542651Y399274D02*
X577453D01*
X541810Y398374D02*
X577453D01*
X537014Y397474D02*
X577453D01*
X536929Y396574D02*
X577453D01*
X536434Y395674D02*
X577453D01*
X483776Y394774D02*
X577453D01*
X483865Y393874D02*
X577453D01*
X532437Y392974D02*
X577453D01*
X532972Y392074D02*
X577453D01*
X533099Y391174D02*
X577453D01*
X533885Y390274D02*
X577453D01*
X534785Y389374D02*
X577453D01*
X535685Y388474D02*
X577453D01*
X493807Y383974D02*
X577453D01*
X493807Y383074D02*
X577453D01*
X493807Y382174D02*
X577453D01*
X493807Y381274D02*
X577453D01*
X493807Y380374D02*
X577453D01*
X493807Y379474D02*
X577453D01*
X488178Y441574D02*
X577278D01*
X551790Y437974D02*
X577251D01*
X488813Y440674D02*
X549701D01*
X489034Y439774D02*
X548801D01*
X524704Y438874D02*
X547901D01*
X525403Y437974D02*
X547001D01*
X525607Y437074D02*
X546101D01*
X525457Y436174D02*
X545201D01*
X524858Y435274D02*
X544301D01*
X525074Y434374D02*
X543268D01*
X537914Y410074D02*
X540039D01*
X536740Y398374D02*
X539293D01*
X536278Y399274D02*
X538451D01*
X493807Y384874D02*
X535179D01*
X493807Y385774D02*
X534161D01*
X493807Y386674D02*
X533261D01*
X483276Y395674D02*
X532857D01*
X504052Y412774D02*
X532621D01*
X481136Y396574D02*
X532362D01*
X376085Y387574D02*
X532361D01*
X480398Y397474D02*
X532159D01*
X375984Y388474D02*
X531461D01*
X491773Y426274D02*
X531245D01*
X492673Y427174D02*
X530432D01*
X501480Y430774D02*
X530368D01*
X500954Y429874D02*
X530220D01*
X493573Y428074D02*
X530075D01*
X494473Y428974D02*
X530011D01*
X375685Y389374D02*
X529366D01*
X483595Y392974D02*
X528980D01*
X374768Y390274D02*
X528580D01*
X482753Y392074D02*
X528446D01*
X369619Y391174D02*
X528335D01*
X491031Y442474D02*
X525898D01*
X498777Y421774D02*
X523664D01*
X499586Y418174D02*
X522855D01*
X489895Y438874D02*
X521752D01*
X501585Y431674D02*
X510079D01*
X501334Y432574D02*
X509020D01*
X418770Y434374D02*
X508701D01*
X500535Y433474D02*
X508675D01*
X434307Y435274D02*
X508511D01*
X503790Y450574D02*
X508427D01*
X495336Y460474D02*
X507983D01*
X494199Y461374D02*
X507015D01*
X493434Y462274D02*
X506697D01*
X481958Y416374D02*
X500671D01*
X417870Y433474D02*
X497890D01*
X495374Y429874D02*
X497469D01*
X487273Y421774D02*
X496499D01*
X483673Y418174D02*
X495799D01*
X486373Y420874D02*
X495577D01*
X484573Y419074D02*
X495338D01*
X485473Y419974D02*
X495276D01*
X416970Y432574D02*
X493848D01*
X416070Y431674D02*
X492948D01*
X415170Y430774D02*
X492048D01*
X414584Y429874D02*
X491148D01*
X414388Y428974D02*
X490248D01*
X413705Y428074D02*
X489348D01*
X403789Y427174D02*
X488448D01*
X482989Y442474D02*
X488282D01*
X471261Y446074D02*
X487948D01*
X434906Y436174D02*
X487813D01*
X482868Y443374D02*
X487661D01*
X415316Y426274D02*
X487548D01*
X481460Y445174D02*
X487485D01*
X482439Y444274D02*
X487394D01*
X435056Y437074D02*
X486913D01*
X416521Y425374D02*
X486648D01*
X416902Y424474D02*
X485748D01*
X482841Y441574D02*
X485070D01*
X434852Y437974D02*
X485046D01*
X416905Y423574D02*
X484848D01*
X482373Y440674D02*
X484416D01*
X434308Y438874D02*
X484407D01*
X481292Y439774D02*
X484235D01*
X416532Y422674D02*
X483948D01*
X465312Y421774D02*
X483048D01*
X466234Y420874D02*
X482148D01*
X466535Y419974D02*
X481248D01*
X369151Y392074D02*
X480239D01*
X452967Y392974D02*
X479397D01*
X454285Y393874D02*
X479127D01*
X454688Y394774D02*
X478704D01*
X454874Y395674D02*
X477804D01*
X414552Y482974D02*
X472208D01*
X418815Y478474D02*
X471823D01*
X416942Y482074D02*
X471662D01*
X418701Y479374D02*
X471646D01*
X417856Y481174D02*
X471376D01*
X418397Y480274D02*
X471372D01*
X466473Y419074D02*
X468147D01*
X466154Y418174D02*
X467297D01*
X409136Y417274D02*
X466278D01*
X336299Y416374D02*
X465597D01*
X397191Y415474D02*
X464747D01*
X398108Y414574D02*
X463897D01*
X398922Y413674D02*
X463047D01*
X443265Y421774D02*
X463034D01*
X444074Y418174D02*
X462225D01*
X406336Y412774D02*
X462197D01*
X385990Y450574D02*
X457140D01*
X387044Y451474D02*
X457118D01*
X339780Y449674D02*
X456993D01*
X435504Y464974D02*
X456115D01*
X403763Y448774D02*
X456111D01*
X435732Y464074D02*
X455051D01*
X387388Y452374D02*
X454505D01*
X387418Y453274D02*
X454014D01*
X435685Y463174D02*
X453987D01*
X435351Y462274D02*
X452912D01*
X327093Y456874D02*
X451888D01*
X332738Y392974D02*
X451757D01*
X327488Y457774D02*
X451186D01*
X409587Y397474D02*
X451049D01*
X434583Y461374D02*
X450541D01*
X409436Y393874D02*
X450439D01*
X410075Y396574D02*
X450368D01*
X328388Y458674D02*
X450289D01*
X330188Y460474D02*
X450068D01*
X410079Y394774D02*
X450036D01*
X410254Y395674D02*
X450016D01*
X329288Y459574D02*
X449998D01*
X415366Y421774D02*
X440987D01*
X410834Y418174D02*
X440288D01*
X413538Y420874D02*
X440065D01*
X411738Y419074D02*
X439826D01*
X412638Y419974D02*
X439764D01*
X419670Y435274D02*
X431047D01*
X418752Y477574D02*
X430144D01*
X418505Y476674D02*
X429504D01*
X417245Y473974D02*
X429420D01*
X418039Y475774D02*
X429242D01*
X417299Y474874D02*
X429232D01*
X399642Y438874D02*
X425083D01*
X399986Y439774D02*
X423826D01*
X134358Y483874D02*
X423815D01*
X404051Y445174D02*
X422886D01*
X399961Y440674D02*
X422745D01*
X134358Y484774D02*
X422741D01*
X390892Y444274D02*
X422679D01*
X399550Y441574D02*
X422278D01*
X134358Y485674D02*
X422276D01*
X134358Y487474D02*
X422251D01*
X390940Y443374D02*
X422250D01*
X134555Y488374D02*
X422201D01*
X398181Y442474D02*
X422129D01*
X134358Y486574D02*
X422129D01*
X398584Y437974D02*
X418145D01*
X396362Y437074D02*
X417245D01*
X395837Y436174D02*
X416345D01*
X394355Y435274D02*
X415445D01*
X394449Y434374D02*
X414545D01*
X352355Y426274D02*
X413818D01*
X400773Y482974D02*
X413794D01*
X394474Y433474D02*
X413645D01*
X406652Y432574D02*
X412745D01*
X353255Y425374D02*
X412613D01*
X354155Y424474D02*
X412232D01*
X355055Y423574D02*
X412013D01*
X403162Y482074D02*
X411405D01*
X355955Y422674D02*
X411113D01*
X401957Y473974D02*
X411105D01*
X335767Y473074D02*
X411105D01*
X336180Y472174D02*
X411105D01*
X403477Y474874D02*
X411048D01*
X406707Y428074D02*
X410704D01*
X407859Y431674D02*
X410596D01*
X404077Y481174D02*
X410490D01*
X404259Y475774D02*
X410307D01*
X364131Y421774D02*
X410213D01*
X407871Y428974D02*
X410022D01*
X408240Y430774D02*
X409983D01*
X404618Y480274D02*
X409949D01*
X404725Y476674D02*
X409841D01*
X408244Y429874D02*
X409826D01*
X404922Y479374D02*
X409645D01*
X404972Y477574D02*
X409595D01*
X405035Y478474D02*
X409532D01*
X298618Y417274D02*
X406612D01*
X332375Y393874D02*
X406312D01*
X365053Y420874D02*
X406097D01*
X364831Y418174D02*
X405773D01*
X365354Y419974D02*
X405595D01*
X365292Y419074D02*
X405504D01*
X394129Y432574D02*
X405159D01*
X404752Y428074D02*
X405105D01*
X393071Y431674D02*
X403952D01*
X390524Y430774D02*
X403164D01*
X399737Y412774D02*
X403113D01*
X400551Y411874D02*
X402502D01*
X401365Y410974D02*
X402303D01*
X390550Y429874D02*
X402264D01*
X339631Y448774D02*
X400962D01*
X390451Y445174D02*
X400673D01*
X339033Y447874D02*
X400214D01*
X388752Y446074D02*
X400113D01*
X386993Y482974D02*
X400015D01*
X366488Y446974D02*
X399986D01*
X388178Y473974D02*
X398830D01*
X389383Y482074D02*
X397625D01*
X389697Y474874D02*
X397311D01*
X390622Y442474D02*
X397095D01*
X390297Y481174D02*
X396711D01*
X390480Y475774D02*
X396528D01*
X390838Y480274D02*
X396169D01*
X390946Y476674D02*
X396062D01*
X391142Y479374D02*
X395866D01*
X391193Y477574D02*
X395815D01*
X391256Y478474D02*
X395752D01*
X390655Y431674D02*
X391181D01*
X367414Y446074D02*
X388413D01*
X367716Y445174D02*
X386714D01*
X367655Y444274D02*
X386273D01*
X373214Y482974D02*
X386235D01*
X374398Y473974D02*
X385051D01*
X331088Y461374D02*
X384709D01*
X351034Y394774D02*
X384609D01*
X339576Y450574D02*
X384089D01*
X331988Y462274D02*
X383940D01*
X375603Y482074D02*
X383846D01*
X333975Y464974D02*
X383737D01*
X351849Y395674D02*
X383709D01*
X332888Y463174D02*
X383606D01*
X333723Y464074D02*
X383560D01*
X375918Y474874D02*
X383531D01*
X376518Y481174D02*
X382931D01*
X352207Y396574D02*
X382809D01*
X376700Y475774D02*
X382748D01*
X377059Y480274D02*
X382390D01*
X377166Y476674D02*
X382282D01*
X377363Y479374D02*
X382086D01*
X377413Y477574D02*
X382036D01*
X377476Y478474D02*
X381973D01*
X352272Y397474D02*
X381909D01*
X352089Y398374D02*
X381009D01*
X336179Y427174D02*
X379375D01*
X377713Y386674D02*
X379028D01*
X377326Y383074D02*
X379028D01*
X349979Y382174D02*
X379028D01*
X282390Y381274D02*
X379028D01*
X282390Y380374D02*
X379028D01*
X282390Y379474D02*
X379028D01*
X282390Y378574D02*
X379028D01*
X378117Y383974D02*
X378938D01*
X337886Y428074D02*
X378475D01*
X369686Y390274D02*
X372476D01*
X359434Y482974D02*
X372455D01*
X369391Y389374D02*
X371559D01*
X360619Y473974D02*
X371271D01*
X361823Y482074D02*
X370066D01*
X362138Y474874D02*
X369752D01*
X362738Y481174D02*
X369152D01*
X362921Y475774D02*
X368969D01*
X363279Y480274D02*
X368610D01*
X363387Y476674D02*
X368503D01*
X363583Y479374D02*
X368307D01*
X363634Y477574D02*
X368256D01*
X363697Y478474D02*
X368193D01*
X333064Y392074D02*
X365495D01*
X352314Y446974D02*
X364221D01*
X356855Y421774D02*
X361853D01*
X282390Y377674D02*
X360335D01*
X282390Y376774D02*
X359066D01*
X134358Y482974D02*
X358676D01*
X282390Y375874D02*
X358542D01*
X282390Y374074D02*
X358437D01*
X282390Y374974D02*
X358354D01*
X282728Y373174D02*
X358203D01*
X334384Y473974D02*
X357492D01*
X134358Y482074D02*
X356287D01*
X293851Y418174D02*
X356190D01*
X134358Y474874D02*
X355972D01*
X134358Y481174D02*
X355372D01*
X134358Y475774D02*
X355189D01*
X250823Y419074D02*
X355052D01*
X134358Y480274D02*
X354831D01*
X134358Y476674D02*
X354723D01*
X134358Y479374D02*
X354527D01*
X134358Y477574D02*
X354476D01*
X134358Y478474D02*
X354414D01*
X128722Y419974D02*
X354152D01*
X127680Y420874D02*
X353252D01*
X339381Y421774D02*
X352352D01*
X340548Y422674D02*
X351452D01*
X341246Y423574D02*
X350486D01*
X336882Y446974D02*
X350048D01*
X335982Y446074D02*
X349122D01*
X341561Y444274D02*
X348880D01*
X335099Y445174D02*
X348820D01*
X282390Y382174D02*
X347659D01*
X282390Y383074D02*
X346751D01*
X282390Y384874D02*
X346515D01*
X282390Y383974D02*
X346456D01*
X129483Y426274D02*
X337833D01*
X107587Y421774D02*
X337784D01*
X129100Y425374D02*
X336629D01*
X107587Y422674D02*
X336617D01*
X128393Y424474D02*
X336248D01*
X126924Y423574D02*
X336244D01*
X320679Y405574D02*
X335854D01*
X322824Y406474D02*
X335837D01*
X334421Y404674D02*
X335794D01*
X277912Y427174D02*
X335474D01*
X323465Y407374D02*
X335196D01*
X323460Y409174D02*
X335103D01*
X273495Y440674D02*
X335079D01*
X277739Y439774D02*
X335045D01*
X323639Y408274D02*
X335022D01*
X322392Y428074D02*
X333943D01*
X323606Y428974D02*
X333512D01*
X324506Y429874D02*
X333473D01*
X134358Y473974D02*
X333332D01*
X319743Y404674D02*
X333296D01*
X325506Y430774D02*
X333173D01*
X134358Y473074D02*
X331949D01*
X285388Y403774D02*
X331943D01*
X282641Y401074D02*
X331857D01*
X134358Y472174D02*
X331536D01*
X284472Y402874D02*
X331534D01*
X283557Y401974D02*
X331511D01*
X315016Y385774D02*
X329702D01*
X322809Y410074D02*
X329649D01*
X323739Y393874D02*
X329043D01*
X316182Y386674D02*
X328791D01*
X322789Y392974D02*
X328679D01*
X313218Y410974D02*
X328672D01*
X299968Y412774D02*
X328398D01*
X300868Y411874D02*
X328352D01*
X321839Y392074D02*
X327384D01*
X317011Y387574D02*
X327021D01*
X320889Y391174D02*
X326036D01*
X318039Y388474D02*
X325953D01*
X319939Y390274D02*
X325629D01*
X318989Y389374D02*
X325605D01*
X307536Y441574D02*
X323342D01*
X308135Y442474D02*
X322370D01*
X308284Y443374D02*
X322052D01*
X308226Y444274D02*
X322010D01*
X281725Y400174D02*
X321924D01*
X280809Y399274D02*
X320516D01*
X313961Y410074D02*
X319711D01*
X279893Y398374D02*
X319566D01*
X314188Y409174D02*
X319060D01*
X314059Y408274D02*
X318880D01*
X278977Y397474D02*
X318616D01*
X278061Y396574D02*
X317666D01*
X216635Y395674D02*
X316716D01*
X216868Y394774D02*
X315766D01*
X217189Y393874D02*
X314816D01*
X217224Y392974D02*
X312562D01*
X299442Y392074D02*
X311383D01*
X301768Y410974D02*
X310404D01*
X274395Y441574D02*
X304275D01*
X286305Y404674D02*
X301505D01*
X294756Y405574D02*
X300570D01*
X295656Y406474D02*
X299670D01*
X297354Y407374D02*
X298770D01*
X282390Y385774D02*
X297189D01*
X216983Y392074D02*
X296621D01*
X282390Y386674D02*
X296022D01*
X216379Y391174D02*
X295880D01*
X214640Y390274D02*
X295655D01*
X248830Y387574D02*
X295527D01*
X247787Y389374D02*
X295461D01*
X248581Y388474D02*
X295359D01*
X251435Y418174D02*
X290401D01*
X251592Y417274D02*
X289864D01*
X251395Y416374D02*
X289752D01*
X126591Y433474D02*
X287768D01*
X107587Y432574D02*
X287249D01*
X128285Y434374D02*
X287239D01*
X280744Y430774D02*
X287092D01*
X278586Y431674D02*
X286997D01*
X278625Y435274D02*
X286996D01*
X279620Y436174D02*
X286847D01*
X127304Y401074D02*
X278197D01*
X128546Y400174D02*
X277462D01*
X272595Y439774D02*
X277379D01*
X129637Y427174D02*
X277206D01*
X129185Y399274D02*
X276546D01*
X107587Y431674D02*
X276532D01*
X129040Y435274D02*
X276493D01*
X253932Y450574D02*
X276332D01*
X128946Y449674D02*
X275838D01*
X197969Y401974D02*
X275820D01*
X271695Y438874D02*
X275690D01*
X129587Y428074D02*
X275675D01*
X127838Y430774D02*
X275532D01*
X268962Y436174D02*
X275520D01*
X160188Y446974D02*
X275412D01*
X131298Y448774D02*
X275298D01*
X270795Y437974D02*
X275249D01*
X129326Y428974D02*
X275245D01*
X128802Y429874D02*
X275205D01*
X269895Y437074D02*
X275202D01*
X132553Y447874D02*
X275185D01*
X107587Y442474D02*
X271070D01*
X161016Y443374D02*
X270894D01*
X107587Y441574D02*
X270170D01*
X127981Y440674D02*
X269270D01*
X128876Y439774D02*
X268370D01*
X249359Y458674D02*
X254528D01*
X250720Y463174D02*
X253900D01*
X107587Y459574D02*
X253231D01*
X249820Y462274D02*
X253094D01*
X107587Y460474D02*
X252803D01*
X248204Y461374D02*
X252765D01*
X128112Y450574D02*
X250792D01*
X141262Y453274D02*
X250164D01*
X125734Y451474D02*
X250155D01*
X140771Y452374D02*
X249983D01*
X107587Y458674D02*
X249067D01*
X141344Y454174D02*
X248142D01*
X129300Y419074D02*
X247602D01*
X107587Y457774D02*
X247345D01*
X141067Y455074D02*
X247173D01*
X107587Y456874D02*
X246904D01*
X140206Y455974D02*
X246855D01*
X129644Y389374D02*
X245126D01*
X134358Y464974D02*
X244830D01*
X107616Y461374D02*
X244712D01*
X134358Y464074D02*
X244337D01*
X134358Y462274D02*
X244188D01*
X134358Y463174D02*
X244084D01*
X129643Y407374D02*
X198425D01*
X107587Y401974D02*
X197307D01*
X129548Y408274D02*
X197301D01*
X129536Y406474D02*
X196605D01*
X107587Y402874D02*
X195756D01*
X141953Y411874D02*
X195610D01*
X129208Y405574D02*
X195609D01*
X129235Y409174D02*
X195514D01*
X127398Y403774D02*
X195324D01*
X128637Y410074D02*
X195324D01*
X127504Y410974D02*
X195283D01*
X128588Y404674D02*
X195283D01*
X129643Y390274D02*
X164494D01*
X129277Y391174D02*
X162755D01*
X129260Y395674D02*
X162499D01*
X128676Y394774D02*
X162266D01*
X107587Y392074D02*
X162151D01*
X127586Y393874D02*
X161945D01*
X107587Y392974D02*
X161910D01*
X155070Y446974D02*
X157922D01*
X129643Y384874D02*
X157768D01*
X137107Y383974D02*
X157768D01*
X137677Y383074D02*
X157768D01*
X137810Y382174D02*
X157768D01*
X137588Y381274D02*
X157768D01*
X136853Y380374D02*
X157768D01*
X107587Y379474D02*
X157768D01*
X107587Y378574D02*
X157768D01*
X107587Y377674D02*
X157768D01*
X107587Y376774D02*
X157768D01*
X107587Y375874D02*
X157768D01*
X107587Y374974D02*
X157768D01*
X107587Y374074D02*
X157768D01*
X107587Y373174D02*
X157768D01*
X107587Y372274D02*
X157768D01*
X107587Y371374D02*
X157768D01*
X142003Y370474D02*
X157768D01*
X151477Y369574D02*
X157768D01*
X152730Y368674D02*
X157768D01*
X154791Y367774D02*
X157768D01*
X155639Y366874D02*
X157768D01*
X155912Y365974D02*
X157768D01*
X155825Y365074D02*
X157768D01*
X155328Y364174D02*
X157768D01*
X107587Y363274D02*
X157768D01*
X107587Y362374D02*
X157768D01*
X107587Y361474D02*
X157768D01*
X107587Y360574D02*
X157768D01*
X107587Y359674D02*
X157768D01*
X107587Y358774D02*
X157768D01*
X107587Y357874D02*
X157768D01*
X107595Y356974D02*
X157768D01*
X124963Y356074D02*
X157768D01*
X125828Y355174D02*
X157768D01*
X126209Y354274D02*
X157768D01*
X126292Y353374D02*
X157768D01*
X126105Y352474D02*
X157768D01*
X125582Y351574D02*
X157768D01*
X124317Y350674D02*
X157768D01*
X111730Y349774D02*
X157768D01*
X111730Y348874D02*
X157768D01*
X137266Y347974D02*
X157768D01*
X137731Y347074D02*
X157768D01*
X137796Y346174D02*
X157768D01*
X137498Y345274D02*
X157768D01*
X136585Y344374D02*
X157768D01*
X111730Y343474D02*
X157768D01*
X111730Y342574D02*
X157768D01*
X111730Y341674D02*
X157768D01*
X111730Y340774D02*
X157768D01*
X111730Y339874D02*
X157768D01*
X111730Y338974D02*
X157768D01*
X111730Y338074D02*
X157768D01*
X111730Y337174D02*
X157768D01*
X111730Y336274D02*
X157768D01*
X111730Y335374D02*
X157768D01*
X129803Y385774D02*
X157608D01*
X155778Y443374D02*
X157214D01*
X155996Y446074D02*
X156996D01*
X133734Y446974D02*
X152804D01*
X111730Y334474D02*
X152411D01*
X126044Y443374D02*
X151976D01*
X107587Y364174D02*
X151758D01*
X107587Y365074D02*
X151261D01*
X142781Y365974D02*
X151136D01*
X111730Y333574D02*
X150892D01*
X111730Y332674D02*
X150316D01*
X111730Y331774D02*
X150094D01*
X111730Y330874D02*
X150081D01*
X111730Y329974D02*
X150081D01*
X111730Y329074D02*
X150081D01*
X134358Y471274D02*
X143169D01*
X134358Y465874D02*
X142907D01*
X134358Y470374D02*
X142056D01*
X134358Y466774D02*
X141954D01*
X134358Y469474D02*
X141577D01*
X134358Y467674D02*
X141534D01*
X107587Y370474D02*
X141461D01*
X134358Y468574D02*
X141420D01*
X107587Y411874D02*
X140725D01*
X107587Y365974D02*
X140684D01*
X107587Y369574D02*
X139856D01*
X107587Y366874D02*
X139699D01*
X107587Y368674D02*
X139421D01*
X107587Y412774D02*
X139414D01*
X107587Y367774D02*
X139377D01*
X129156Y415474D02*
X139233D01*
X127182Y413674D02*
X139012D01*
X128494Y414574D02*
X138993D01*
X107587Y455974D02*
X137747D01*
X125654Y452374D02*
X137152D01*
X124380Y344374D02*
X134282D01*
X107587Y380374D02*
X134013D01*
X129631Y383974D02*
X133759D01*
X125153Y347974D02*
X133508D01*
X128168Y444274D02*
X132349D01*
X128976Y445174D02*
X131167D01*
X123058Y452374D02*
X125527D01*
X122086Y451474D02*
X125447D01*
X116044Y443374D02*
X125137D01*
X116591Y433474D02*
X124590D01*
X116924Y423574D02*
X124258D01*
X117182Y413674D02*
X123999D01*
X117304Y401074D02*
X123877D01*
X117398Y403774D02*
X123783D01*
X117504Y410974D02*
X123677D01*
X117586Y393874D02*
X123595D01*
X117680Y420874D02*
X123501D01*
X117838Y430774D02*
X123343D01*
X117981Y440674D02*
X123200D01*
X121131Y450574D02*
X123069D01*
X118168Y444274D02*
X123013D01*
X118285Y434374D02*
X122896D01*
X118393Y424474D02*
X122788D01*
X118494Y414574D02*
X122687D01*
X118546Y400174D02*
X122635D01*
X118588Y404674D02*
X122593D01*
X118637Y410074D02*
X122544D01*
X118676Y394774D02*
X122505D01*
X118722Y419974D02*
X122459D01*
X118802Y429874D02*
X122380D01*
X118876Y439774D02*
X122305D01*
X120177Y449674D02*
X122235D01*
X118976Y445174D02*
X122205D01*
X119040Y435274D02*
X122141D01*
X119100Y425374D02*
X122081D01*
X111730Y344374D02*
X122077D01*
X119156Y415474D02*
X122025D01*
X119185Y399274D02*
X121996D01*
X119208Y405574D02*
X121973D01*
X119235Y409174D02*
X121946D01*
X119257Y395674D02*
X121924D01*
X117071Y391174D02*
X121904D01*
X119282Y419074D02*
X121899D01*
X119326Y428974D02*
X121855D01*
X119366Y438874D02*
X121815D01*
X119436Y448774D02*
X121777D01*
X119420Y446074D02*
X121761D01*
X119453Y436174D02*
X121728D01*
X119483Y426274D02*
X121698D01*
X119511Y416374D02*
X121670D01*
X119525Y398374D02*
X121656D01*
X119536Y406474D02*
X121645D01*
X119548Y408274D02*
X121633D01*
X119558Y396574D02*
X121623D01*
X119569Y418174D02*
X121612D01*
X119587Y428074D02*
X121594D01*
X119603Y437974D02*
X121578D01*
X119616Y447874D02*
X121565D01*
X119621Y446974D02*
X121560D01*
X107587Y455074D02*
X121551D01*
X119630Y437074D02*
X121551D01*
X119637Y427174D02*
X121544D01*
X119641Y417274D02*
X121540D01*
X119643Y397474D02*
X121538D01*
X119643Y407374D02*
X121538D01*
X118449Y390274D02*
X121538D01*
X119131Y389374D02*
X121538D01*
X119499Y388474D02*
X121538D01*
X119640Y387574D02*
X121538D01*
X119578Y386674D02*
X121538D01*
X119415Y385774D02*
X121538D01*
X120230Y384874D02*
X121538D01*
X111730Y347974D02*
X121396D01*
X111730Y345274D02*
X121163D01*
X111730Y347074D02*
X120930D01*
X111730Y346174D02*
X120866D01*
X107587Y454174D02*
X120594D01*
X107587Y453274D02*
X119640D01*
X107587Y381274D02*
X119605D01*
X107587Y382174D02*
X118705D01*
X107587Y452374D02*
X118686D01*
X107587Y383074D02*
X117805D01*
X107587Y451474D02*
X117732D01*
X107587Y443374D02*
X115137D01*
X107587Y433474D02*
X114590D01*
X107587Y423574D02*
X114258D01*
X107587Y391174D02*
X114110D01*
X107587Y413674D02*
X113999D01*
X107587Y401074D02*
X113877D01*
X107587Y403774D02*
X113783D01*
X107587Y410974D02*
X113677D01*
X107587Y393874D02*
X113595D01*
X107587Y420874D02*
X113501D01*
X107587Y383974D02*
X113428D01*
X107587Y430774D02*
X113343D01*
X107587Y440674D02*
X113200D01*
X107587Y450574D02*
X113069D01*
X107587Y444274D02*
X113013D01*
X107587Y434374D02*
X112896D01*
X107587Y424474D02*
X112788D01*
X107587Y390274D02*
X112732D01*
X107587Y414574D02*
X112687D01*
X107587Y400174D02*
X112635D01*
X107587Y404674D02*
X112593D01*
X107587Y410074D02*
X112544D01*
X107587Y394774D02*
X112505D01*
X107587Y419974D02*
X112459D01*
X107587Y384874D02*
X112422D01*
X107587Y429874D02*
X112380D01*
X107587Y439774D02*
X112305D01*
X107587Y449674D02*
X112235D01*
X107587Y445174D02*
X112205D01*
X107587Y435274D02*
X112141D01*
X107587Y425374D02*
X112081D01*
X107587Y389374D02*
X112050D01*
X107587Y415474D02*
X112025D01*
X107587Y399274D02*
X111996D01*
X107587Y405574D02*
X111973D01*
X107587Y409174D02*
X111946D01*
X107587Y395674D02*
X111924D01*
X107587Y419074D02*
X111899D01*
X107587Y385774D02*
X111879D01*
X107587Y428974D02*
X111855D01*
X107587Y438874D02*
X111815D01*
X107587Y448774D02*
X111777D01*
X107587Y446074D02*
X111761D01*
X107587Y436174D02*
X111728D01*
X107587Y426274D02*
X111698D01*
X107587Y388474D02*
X111682D01*
X107587Y416374D02*
X111670D01*
X107587Y398374D02*
X111656D01*
X107587Y406474D02*
X111645D01*
X107587Y408274D02*
X111633D01*
X107587Y396574D02*
X111623D01*
X107587Y418174D02*
X111612D01*
X107587Y386674D02*
X111604D01*
X107587Y428074D02*
X111594D01*
X107587Y437974D02*
X111578D01*
X107587Y447874D02*
X111565D01*
X107587Y446974D02*
X111560D01*
X107587Y437074D02*
X111551D01*
X107587Y427174D02*
X111544D01*
X107587Y387574D02*
X111541D01*
X107587Y417274D02*
X111540D01*
X107587Y397474D02*
X111538D01*
X107587Y407374D02*
X111538D01*
X673360Y360574D02*
X677453D01*
X673763Y359674D02*
X677453D01*
X673933Y358774D02*
X677453D01*
X673832Y357874D02*
X677453D01*
X673429Y356974D02*
X677453D01*
X672516Y356074D02*
X677453D01*
X493807Y355174D02*
X677453D01*
X493807Y354274D02*
X677453D01*
X493807Y353374D02*
X677453D01*
X493807Y352474D02*
X677453D01*
X493807Y351574D02*
X677453D01*
X493807Y350674D02*
X677453D01*
X493807Y349774D02*
X677453D01*
X493807Y348874D02*
X677453D01*
X493807Y347974D02*
X677453D01*
X493807Y347074D02*
X677453D01*
X493807Y346174D02*
X677453D01*
X493807Y345274D02*
X677453D01*
X493807Y344374D02*
X677453D01*
X519553Y343474D02*
X677453D01*
X520537Y342574D02*
X677453D01*
X520860Y341674D02*
X677453D01*
X520816Y340774D02*
X677453D01*
X520380Y339874D02*
X677453D01*
X508629Y331774D02*
X677453D01*
X493807Y330874D02*
X677453D01*
X541786Y329974D02*
X677453D01*
X542982Y329074D02*
X677453D01*
X543882Y328174D02*
X677453D01*
X544782Y327274D02*
X677453D01*
X638971Y326374D02*
X677453D01*
X670542Y325474D02*
X677453D01*
X511934Y332674D02*
X677452D01*
X672324Y324574D02*
X677169D01*
X639708Y325474D02*
X669615D01*
X493807Y356074D02*
X669216D01*
X640025Y324574D02*
X667873D01*
X640057Y323674D02*
X667269D01*
X638165Y320974D02*
X667144D01*
X639206Y321874D02*
X667063D01*
X639814Y322774D02*
X667028D01*
X547562Y320074D02*
X664178D01*
X518773Y338974D02*
X562426D01*
X512852Y333574D02*
X562226D01*
X517352Y338074D02*
X561334D01*
X513752Y334474D02*
X561256D01*
X516452Y337174D02*
X560863D01*
X514652Y335374D02*
X560830D01*
X515552Y336274D02*
X560711D01*
X493807Y343474D02*
X517455D01*
X493807Y342574D02*
X516470D01*
X493807Y341674D02*
X516148D01*
X493807Y340774D02*
X515827D01*
X493807Y339874D02*
X514927D01*
X493807Y338974D02*
X514027D01*
X493807Y338074D02*
X513127D01*
X493807Y337174D02*
X512227D01*
X493807Y336274D02*
X511327D01*
X509410Y335374D02*
X510345D01*
X493807Y331774D02*
X506332D01*
X493807Y335374D02*
X505646D01*
X493807Y332674D02*
X505416D01*
X493807Y334474D02*
X505182D01*
X493807Y333574D02*
X505118D01*
X516106Y249222D02*
X533752D01*
X522802Y248322D02*
X533752D01*
X523778Y247422D02*
X533752D01*
X524207Y246522D02*
X533752D01*
X524328Y245622D02*
X533752D01*
X524179Y244722D02*
X533752D01*
X523710Y243822D02*
X533752D01*
X522627Y242922D02*
X533752D01*
X480138Y242022D02*
X533752D01*
X486728Y241122D02*
X533752D01*
X488125Y240222D02*
X533752D01*
X488678Y239322D02*
X533752D01*
X488886Y238422D02*
X533752D01*
X488822Y237522D02*
X533752D01*
X488465Y236622D02*
X533752D01*
X487652Y235722D02*
X533752D01*
X449319Y234822D02*
X533752D01*
X449319Y233922D02*
X533752D01*
X449319Y233022D02*
X533752D01*
X449319Y232122D02*
X533752D01*
X449319Y231222D02*
X533752D01*
X449319Y230322D02*
X533752D01*
X449319Y229422D02*
X533752D01*
X449319Y228522D02*
X533752D01*
X449319Y227622D02*
X533752D01*
X449319Y226722D02*
X533752D01*
X449319Y225822D02*
X533752D01*
X449319Y224922D02*
X533752D01*
X449319Y224022D02*
X533752D01*
X449319Y223122D02*
X533752D01*
X449319Y222222D02*
X533752D01*
X449319Y221322D02*
X533752D01*
X449319Y220422D02*
X533752D01*
X449319Y219522D02*
X533752D01*
X449319Y218622D02*
X533752D01*
X449319Y217722D02*
X533752D01*
X449319Y216822D02*
X533752D01*
X449319Y215922D02*
X533752D01*
X449319Y215022D02*
X533752D01*
X449319Y214122D02*
X533752D01*
X449319Y213222D02*
X533752D01*
X449319Y212322D02*
X533752D01*
X449319Y211422D02*
X533752D01*
X449319Y210522D02*
X533752D01*
X449319Y209622D02*
X533752D01*
X449319Y208722D02*
X533752D01*
X449319Y207822D02*
X533752D01*
X449319Y206922D02*
X533752D01*
X449319Y206022D02*
X533752D01*
X449319Y205122D02*
X533752D01*
X449319Y204222D02*
X533752D01*
X449319Y203322D02*
X533752D01*
X449372Y202422D02*
X533752D01*
X483910Y201522D02*
X533752D01*
X484615Y200622D02*
X533752D01*
X484916Y199722D02*
X533752D01*
X484933Y198822D02*
X533752D01*
X491453Y197922D02*
X533752D01*
X519114Y197022D02*
X533752D01*
X520014Y196122D02*
X533752D01*
X520914Y195222D02*
X533752D01*
X521814Y194322D02*
X533752D01*
X522714Y193422D02*
X533752D01*
X523614Y192522D02*
X533752D01*
X527406Y191622D02*
X533752D01*
X528453Y190722D02*
X533752D01*
X529032Y189822D02*
X533752D01*
X529343Y188922D02*
X533752D01*
X529446Y188022D02*
X533752D01*
X529357Y187122D02*
X533752D01*
X529060Y186222D02*
X533752D01*
X528503Y185322D02*
X533752D01*
X527502Y184422D02*
X533752D01*
X509895Y183522D02*
X533752D01*
X508995Y182622D02*
X533752D01*
X508095Y181722D02*
X533752D01*
X507195Y180822D02*
X533752D01*
X506295Y179922D02*
X533752D01*
X505395Y179022D02*
X533752D01*
X504495Y178122D02*
X533752D01*
X503595Y177222D02*
X533752D01*
X502695Y176322D02*
X533752D01*
X501795Y175422D02*
X533752D01*
X500895Y174522D02*
X533752D01*
X499995Y173622D02*
X533752D01*
X498348Y172722D02*
X533752D01*
X481437Y171822D02*
X533752D01*
X449319Y170922D02*
X533752D01*
X449582Y170022D02*
X533752D01*
X450482Y169122D02*
X533752D01*
X451382Y168222D02*
X533752D01*
X452282Y167322D02*
X533752D01*
X453182Y166422D02*
X533752D01*
X454082Y165522D02*
X533752D01*
X454982Y164622D02*
X533752D01*
X455882Y163722D02*
X533752D01*
X456782Y162822D02*
X533752D01*
X457682Y161922D02*
X533752D01*
X458582Y161022D02*
X533752D01*
X459482Y160122D02*
X533752D01*
X460382Y159222D02*
X533752D01*
X461282Y158322D02*
X533752D01*
X462182Y157422D02*
X533752D01*
X463082Y156522D02*
X533752D01*
X463982Y155622D02*
X533752D01*
X464882Y154722D02*
X533752D01*
X465782Y153822D02*
X533752D01*
X466682Y152922D02*
X533752D01*
X467582Y152022D02*
X533752D01*
X468482Y151122D02*
X533752D01*
X469382Y150222D02*
X533752D01*
X470282Y149322D02*
X533752D01*
X471182Y148422D02*
X533752D01*
X472082Y147522D02*
X533752D01*
X472982Y146622D02*
X533752D01*
X473882Y145722D02*
X533752D01*
X474782Y144822D02*
X533752D01*
X475682Y143922D02*
X533752D01*
X476582Y143022D02*
X533752D01*
X526197Y142122D02*
X533752D01*
X527958Y141222D02*
X533752D01*
X528751Y140322D02*
X533752D01*
X529199Y139422D02*
X533752D01*
X529413Y138522D02*
X533752D01*
X529430Y137622D02*
X533752D01*
X529252Y136722D02*
X533752D01*
X528851Y135822D02*
X533752D01*
X528135Y134922D02*
X533752D01*
X526713Y134022D02*
X533752D01*
X503604Y133122D02*
X533752D01*
X502704Y132222D02*
X533752D01*
X501804Y131322D02*
X533752D01*
X500904Y130422D02*
X533752D01*
X500004Y129522D02*
X533752D01*
X499104Y128622D02*
X533752D01*
X498204Y127722D02*
X533752D01*
X497304Y126822D02*
X533752D01*
X496404Y125922D02*
X533752D01*
X495504Y125022D02*
X533752D01*
X495482Y124122D02*
X533752D01*
X496382Y123222D02*
X533752D01*
X497282Y122322D02*
X533752D01*
X498182Y121422D02*
X533752D01*
X499082Y120522D02*
X533752D01*
X499982Y119622D02*
X533752D01*
X500882Y118722D02*
X533752D01*
X501782Y117822D02*
X533752D01*
X502682Y116922D02*
X533752D01*
X503582Y116022D02*
X533752D01*
X504482Y115122D02*
X533752D01*
X505382Y114222D02*
X533752D01*
X506282Y113322D02*
X533752D01*
X507182Y112422D02*
X533752D01*
X512418Y142122D02*
X524196D01*
X512934Y134022D02*
X523680D01*
X513723Y184422D02*
X522891D01*
X514179Y141222D02*
X522435D01*
X514356Y134922D02*
X522258D01*
X514724Y185322D02*
X521891D01*
X514971Y140322D02*
X521643D01*
X515071Y135822D02*
X521543D01*
X515281Y186222D02*
X521333D01*
X515419Y139422D02*
X521195D01*
X515473Y136722D02*
X521141D01*
X515564Y188922D02*
X521048D01*
X515577Y187122D02*
X521037D01*
X515634Y138522D02*
X520980D01*
X515651Y137622D02*
X520963D01*
X515667Y188022D02*
X520947D01*
X515253Y189822D02*
X520419D01*
X504911Y242922D02*
X519892D01*
X505085Y248322D02*
X519718D01*
X514674Y190722D02*
X519519D01*
X505997Y243822D02*
X518806D01*
X506118Y247422D02*
X518685D01*
X513627Y191622D02*
X518619D01*
X449319Y192522D02*
X517719D01*
X491460Y193422D02*
X516819D01*
X470904Y249222D02*
X515390D01*
X492122Y253722D02*
X514321D01*
X471804Y250122D02*
X513863D01*
X474504Y252822D02*
X513722D01*
X472704Y251022D02*
X513434D01*
X473604Y251922D02*
X513394D01*
X477482Y142122D02*
X510417D01*
X504504Y134022D02*
X509901D01*
X449319Y191622D02*
X509208D01*
X478382Y141222D02*
X508656D01*
X505576Y134922D02*
X508319D01*
X449319Y190722D02*
X508161D01*
X449319Y189822D02*
X507582D01*
X449319Y188922D02*
X507271D01*
X449319Y187122D02*
X507258D01*
X449319Y188022D02*
X507168D01*
X449319Y186222D02*
X506700D01*
X449319Y185322D02*
X505800D01*
X462197Y184422D02*
X504900D01*
X462419Y183522D02*
X504000D01*
X462419Y182622D02*
X503100D01*
X462419Y181722D02*
X502200D01*
X481038Y242922D02*
X502176D01*
X479282Y140322D02*
X502137D01*
X470004Y248322D02*
X502001D01*
X462419Y180822D02*
X501300D01*
X480182Y139422D02*
X501224D01*
X481938Y243822D02*
X501090D01*
X469104Y247422D02*
X500968D01*
X462419Y179922D02*
X500400D01*
X481082Y138522D02*
X500324D01*
X462419Y179022D02*
X499500D01*
X481982Y137622D02*
X499424D01*
X462419Y178122D02*
X498600D01*
X482882Y136722D02*
X498524D01*
X482596Y177222D02*
X497700D01*
X483782Y135822D02*
X497624D01*
X484682Y134922D02*
X496724D01*
X485582Y134022D02*
X495824D01*
X486482Y133122D02*
X494924D01*
X487382Y132222D02*
X494024D01*
X488282Y131322D02*
X493124D01*
X489182Y130422D02*
X492224D01*
X473494Y258222D02*
X491639D01*
X490082Y129522D02*
X491324D01*
X472626Y257322D02*
X491204D01*
X484674Y197922D02*
X487287D01*
X449319Y193422D02*
X487280D01*
X484039Y197022D02*
X486616D01*
X449319Y194322D02*
X486613D01*
X449456Y196122D02*
X486335D01*
X449319Y195222D02*
X486334D01*
X479238Y241122D02*
X484926D01*
X449319Y235722D02*
X484002D01*
X478218Y240222D02*
X483529D01*
X449319Y236622D02*
X483188D01*
X475915Y239322D02*
X482975D01*
X449319Y237522D02*
X482832D01*
X449319Y238422D02*
X482767D01*
X449319Y171822D02*
X479980D01*
X452808Y201522D02*
X479870D01*
X468204Y246522D02*
X479857D01*
X452936Y197022D02*
X479741D01*
X467304Y245622D02*
X478957D01*
X462329Y177222D02*
X478821D01*
X449319Y172722D02*
X478453D01*
X474705Y244722D02*
X478057D01*
X449319Y176322D02*
X478043D01*
X449319Y173622D02*
X477876D01*
X449319Y175422D02*
X477703D01*
X449319Y174522D02*
X477653D01*
X476262Y243822D02*
X477157D01*
X466404Y244722D02*
X473326D01*
X471759Y256422D02*
X473323D01*
X470891Y255522D02*
X472423D01*
X449319Y239322D02*
X472116D01*
X465504Y243822D02*
X471769D01*
X469506Y254622D02*
X471523D01*
X449319Y240222D02*
X471344D01*
X464604Y242922D02*
X471187D01*
X458423Y241122D02*
X471008D01*
X463697Y242022D02*
X470961D01*
X462124Y253722D02*
X470623D01*
X462038Y252822D02*
X469723D01*
X461661Y251922D02*
X468823D01*
X460805Y251022D02*
X467923D01*
X449319Y250122D02*
X467023D01*
X449319Y249222D02*
X466123D01*
X449319Y248322D02*
X465223D01*
X449319Y247422D02*
X464323D01*
X449319Y246522D02*
X463423D01*
X458030Y245622D02*
X462523D01*
X449319Y251022D02*
X457306D01*
X449319Y245622D02*
X456931D01*
X449319Y241122D02*
X456537D01*
X449319Y251922D02*
X456450D01*
X449319Y252822D02*
X456073D01*
X449319Y255522D02*
X455987D01*
X449319Y254622D02*
X455987D01*
X449319Y253722D02*
X455987D01*
X449319Y256422D02*
X455986D01*
X449319Y244722D02*
X455567D01*
X449319Y242022D02*
X455477D01*
X449319Y257322D02*
X455267D01*
X449319Y243822D02*
X455157D01*
X449319Y242922D02*
X455132D01*
X449319Y258222D02*
X454367D01*
X449319Y184422D02*
X454338D01*
X449319Y177222D02*
X454206D01*
X449319Y183522D02*
X454117D01*
X449319Y182622D02*
X454117D01*
X449319Y181722D02*
X454117D01*
X449319Y180822D02*
X454117D01*
X449319Y179922D02*
X454117D01*
X449319Y179022D02*
X454117D01*
X449319Y178122D02*
X454117D01*
X449319Y259122D02*
X453467D01*
X449319Y260022D02*
X452567D01*
X449319Y260922D02*
X451760D01*
X449319Y261822D02*
X451362D01*
X449319Y268122D02*
X451262D01*
X449319Y267222D02*
X451262D01*
X449319Y266322D02*
X451262D01*
X449319Y265422D02*
X451262D01*
X449319Y264522D02*
X451262D01*
X449319Y263622D02*
X451262D01*
X449319Y262722D02*
X451262D01*
X100000Y100000D02*
X808661D01*
Y493701*
X100000*
Y100000*
G54D43*
X159055Y115748D02*
Y127165D01*
X170866Y138976*
X172835Y115748D02*
X193307Y136220D01*
Y194882*
X178740Y209449*
X269291Y115748D02*
X290945Y137402D01*
Y137992*
X283071Y115748D02*
X293307Y125984D01*
X305906*
X311417Y131496*
Y193701*
X301969Y203150*
Y219291*
X495669Y115748D02*
X502756Y122835D01*
X526772*
X533071Y129134*
Y207087*
X521654Y218504*
X519291*
X481890Y115748D02*
X504134Y137992D01*
X511417*
X184646Y138976D02*
X170866D01*
X304724Y137992D02*
X290945D01*
X412992D02*
X399213D01*
X190551Y207874D02*
Y214961D01*
X174803Y230315*
Y254724*
X260630Y200787D02*
X275197Y215354D01*
Y246063*
X171260Y221654D02*
X166535D01*
X161417Y226772*
Y259449*
X412205Y229134D02*
Y244488D01*
X642126Y225984D02*
X626772D01*
X642126*
X670866D02*
X642126D01*
X670866*
X692520Y215748D02*
X677165D01*
X670866Y222047*
Y225984*
X777165Y233858D02*
X768898Y242126D01*
X601181*
X592913Y250394*
X239764Y252756D02*
Y256299D01*
X232677Y263386*
Y294882*
X243307Y305512*
X312992Y246457D02*
X298425Y261024D01*
X400394Y237795D02*
X373622D01*
X400394*
X459055Y253543D02*
Y257874D01*
X454331Y262598*
Y292913*
X466142Y304724*
X777165Y247638D02*
X672047D01*
X662598Y257087*
X627165*
X259449Y259449D02*
X261811Y261024D01*
X298425*
X604724Y257087D02*
X624016D01*
X627165*
X624016D02*
X664961D01*
X577559Y287795D02*
X566535D01*
X558661Y295669*
X616929Y278740D02*
X586614D01*
X616929*
X659055D02*
X616929D01*
X619685*
X108661Y325197D02*
X153150D01*
Y331496*
X158661*
X108661Y325197D02*
Y353543D01*
X123228*
X153150Y325197D02*
X108661D01*
Y353543*
X123228*
X153150Y325197D02*
Y331496D01*
X158661*
X172045Y331551*
X173958*
X177052Y334646*
X252756*
X158661Y331496D02*
X172045Y331551D01*
X173958*
X177052Y334646*
X296573Y331890D02*
X255512D01*
X252756Y334646*
X312765Y331890D02*
X296573D01*
X255512*
X252756Y334646*
X177052*
X312765Y331890D02*
X323228D01*
X327362Y336024*
X358465*
X361417Y338976*
Y344094*
X548819Y331102D02*
X652756D01*
X598031Y324016D02*
X543701D01*
X540551Y327165*
X521260*
X636614Y323622D02*
X637008Y324016D01*
X598031*
X708268Y329921D02*
X652756Y331102D01*
X147638Y340551D02*
X262913D01*
X262598Y340945*
X114567*
X236614Y351181D02*
Y359843D01*
X232283Y364173*
X229134*
X355906Y342126D02*
X268898D01*
X268504*
X262913Y340551D02*
X262598Y340945D01*
X114567*
X262913Y340551D02*
X265748Y342126D01*
X268504*
X268898*
X355906*
X361417Y352362D02*
X342913D01*
X563780Y336220D02*
X678740D01*
X177559Y370079D02*
X164173D01*
X428303Y364173D02*
X232283D01*
X229134*
X221654Y366535D02*
Y370079D01*
X261417*
X229134Y364173D02*
X232283D01*
X177559Y370079D02*
X261417D01*
X397285*
X416535D02*
X397285D01*
X261417*
X457087D02*
X416535D01*
X397285*
X232283Y364173D02*
X428303D01*
X481102*
X574016Y370079D02*
X457087D01*
X416535*
X568898Y364173D02*
X481102D01*
X428303*
X588583Y370079D02*
X574016D01*
X457087*
X586220Y364173D02*
X568898D01*
X481102*
X640945Y370079D02*
X588583D01*
X574016*
X592126D02*
X588583D01*
X586220Y364173D02*
X568898D01*
X636614D02*
X687402D01*
X724409*
X129528Y376772D02*
X133071D01*
X108661Y377165*
X164961Y393307D02*
X182283D01*
X214173*
X229134Y383465D02*
X224803D01*
X248425*
X192913D02*
X224803D01*
X229134*
X268110D02*
X248425D01*
X224803*
X298425Y388583D02*
X313780D01*
Y390157*
X315354*
X322835Y397244*
X349213*
X324803Y377953D02*
X301969D01*
X342913D02*
X349606D01*
X351575Y379921*
X355906*
X342913Y377953D02*
X324803D01*
X355906Y379921D02*
X360630D01*
X521654Y380315*
X361417Y374803D02*
X490945D01*
X598031*
X521654Y380315D02*
X548819D01*
X777165Y381496D02*
X783071D01*
X792126Y390551*
Y436614*
X164173Y401969D02*
X159843D01*
X608268Y398819D02*
Y406299D01*
X612598Y410630*
X631496*
X638189Y417323*
Y423622*
X619685Y403937D02*
X637402D01*
X777165Y409055D02*
X786220Y418110D01*
Y457480*
X779528Y464173*
X753543*
X739764Y478398*
X646457*
X638241Y486614*
X425197*
X235039Y425984D02*
X241339D01*
X241732Y426378*
X558268Y428740D02*
X533071D01*
X596850Y418110D02*
X623622D01*
X629921Y424409*
X619291Y424803D02*
X595669D01*
X592913Y427559*
X619291Y424803D02*
X622441Y427953D01*
X425197Y442520D02*
X479921D01*
X691339Y454331D02*
Y463976D01*
X690551Y464764*
X642520*
X632087Y475197*
X497244*
X753543Y439370D02*
Y444488D01*
X738386*
X718110Y464764*
X642520*
X632087Y475197*
X497244*
X144488Y468504D02*
X191339D01*
X214173*
X268898*
X331102*
X332283*
X357887*
X414173*
Y478346*
X362598Y468504D02*
X357887D01*
X386614Y463780D02*
X432677D01*
X563780Y470079D02*
X413780Y470472D01*
X744488Y460236D02*
X732677Y472244D01*
X644094*
X635630Y480709*
X474409*
X200787Y485827D02*
X164567D01*
X200787*
X240945D02*
X200787D01*
X240945*
X264567D02*
X240945D01*
X241339*
X241732Y486220*
X240945Y485827D02*
X264567D01*
X311417*
X260236D02*
X264567D01*
X311417*
X331890D02*
X311417D01*
X308268*
X311417D02*
X331890D01*
X343307*
X332283D02*
X331890D01*
X343307*
X340157*
X400394Y478346D02*
X392913Y485827D01*
X343307*
X461811Y475197D02*
X432283D01*
X432285Y475198*
Y475376*
X485827Y475197D02*
X461811D01*
X432285Y475376*
X497244Y475197D02*
X558268D01*
Y475591*
X485827Y475197D02*
X497244D01*
X709055Y130315D03*
X747244Y136220D03*
X139764Y174803D03*
X150000Y194094D03*
X258661Y177165D03*
X267717Y194094D03*
X320079Y193701D03*
X369685Y176772D03*
X418504Y192520D03*
X480709Y174803D03*
X123622Y203543D03*
X160236Y206693D03*
X178740Y209449D03*
X190551Y207874D03*
X260630Y200787D03*
X352362Y203543D03*
X377559Y196457D03*
X400000Y208268D03*
X409055Y213780D03*
X450787Y199213D03*
X489370Y195669D03*
X481890Y199213D03*
X501575Y208661D03*
X700787Y206299D03*
X723622D03*
X171260Y221654D03*
X246457Y226378D03*
X282677Y222835D03*
X301969Y219291D03*
X412205Y229134D03*
X519291Y218504D03*
X523228Y227953D03*
X594882Y234252D03*
X626772Y225984D03*
X642126D03*
X647244Y230709D03*
X670866Y225984D03*
X708268Y222047D03*
X716929Y226772D03*
X741732D03*
X129921Y240157D03*
X148425D03*
X174803Y254724D03*
X239764Y252756D03*
X275197Y246063D03*
X282677Y251181D03*
X302756Y236614D03*
X312992Y246457D03*
X373622Y237795D03*
X412205Y244488D03*
X400394Y237795D03*
X400787Y249213D03*
X459055Y253543D03*
X474016Y241732D03*
X493701Y239764D03*
X485827Y238189D03*
X503543Y245669D03*
X538976Y243701D03*
X521260Y245669D03*
X588583Y243701D03*
X592913Y250394D03*
X762598Y235039D03*
X759843Y252756D03*
X161417Y259449D03*
X259449D03*
X316142Y259843D03*
X376378D03*
X604724Y257087D03*
X627165D03*
X664961D03*
X688189Y268110D03*
X261811Y277559D03*
X483071D03*
X577559Y287795D03*
X586614Y278740D03*
X619685D03*
X659055D03*
X558661Y295669D03*
X669685Y296063D03*
X158661Y331496D03*
X389370Y331102D03*
X431496Y333465D03*
X521260Y327165D03*
X548819Y331102D03*
X598031Y324016D03*
X636614Y323622D03*
X652756Y331102D03*
X666142Y317717D03*
X670079Y322441D03*
X716929Y314961D03*
X708268Y329921D03*
X114567Y340945D03*
X123228Y353543D03*
X147638Y340551D03*
X236614Y351181D03*
X268504Y342126D03*
X355906D03*
X342913Y352362D03*
X361417D03*
Y344094D03*
X460236Y353150D03*
X501575Y348819D03*
X531102D03*
X548819D03*
X563780Y336220D03*
X678740D03*
X177559Y370079D03*
X221654Y366535D03*
X229134Y364173D03*
X457087Y370079D03*
X481102Y364173D03*
X574016Y370079D03*
X568898Y364173D03*
X592126Y370079D03*
X586220Y364173D03*
X636614D03*
X640945Y370079D03*
X670866Y358661D03*
X687402Y364173D03*
X724409D03*
X108661Y377165D03*
X129528Y376772D03*
X145669D03*
X164961Y393307D03*
X192913Y383465D03*
X182283Y393307D03*
X214173D03*
X229134Y383465D03*
X248425D03*
X261417Y377953D03*
X268110Y383465D03*
X301969Y377953D03*
X342913D03*
X355906Y379921D03*
X361417Y374803D03*
X490945D03*
X521654Y380315D03*
X548819D03*
X598031Y374803D03*
X159843Y401969D03*
X164173D03*
X349213Y397244D03*
X608268Y398819D03*
X619685Y403937D03*
X637402D03*
X235039Y425984D03*
X241732Y426378D03*
X533071Y428740D03*
X558268D03*
X596850Y418110D03*
X592913Y427559D03*
X638189Y423622D03*
X629921Y424409D03*
X622441Y427953D03*
X371260Y447638D03*
X425197Y442520D03*
X479921D03*
X649213Y439764D03*
X753543Y439370D03*
X792126Y436614D03*
X144488Y468504D03*
X191339D03*
X214173D03*
X268898D03*
X362598D03*
X397638Y458661D03*
X386614Y463780D03*
X432677D03*
X563780Y470079D03*
X744488Y460236D03*
X164567Y485827D03*
X200787D03*
X241732Y486220D03*
X260236Y485827D03*
X308268D03*
X332283D03*
X340157D03*
X432283Y475197D03*
X425197Y486614D03*
X558268Y475591D03*
X649213Y485039D03*
X762992D03*
G54D44*
X145276Y115748D02*
X142126Y118898D01*
X120472Y140709*
X117717*
X255512Y115748D02*
X233858Y137402D01*
Y140709*
X361811Y115748D02*
X348031Y129528D01*
Y140709*
X468110Y115748D02*
X458268Y125591D01*
Y140709*
X709055Y130315D02*
X741339D01*
X747244Y136220*
X616929Y138583D02*
X595669D01*
X616929*
X123622Y203543D02*
X127953D01*
X131102Y206693*
X160236*
X352362Y203543D02*
X395276D01*
X400000Y208268*
X450787Y199213D02*
X481890D01*
X754724Y201969D02*
X750787Y205906D01*
Y214567*
X246457Y226378D02*
Y255885D01*
X258288Y267717*
X298819*
X282677Y222835D02*
Y251181D01*
X519291Y218504D02*
X512992D01*
X493701Y237795*
Y239764*
X523228Y227953D02*
X533071D01*
X538976Y233858*
Y243701*
X605924Y231477D02*
X607748D01*
X610129Y233858*
X605924Y231477D02*
X605906Y231496D01*
X647244Y230709D02*
Y231667D01*
X645053Y233858*
X610129*
X134252Y245276D02*
X115748D01*
X148425Y240157D02*
X129921D01*
X352362Y236220D02*
X355906Y239764D01*
X367323*
X362598Y247244D02*
X361024D01*
X342126*
X348425Y243701D02*
X372441Y243307D01*
X388583*
X380709Y247244D02*
X361024D01*
X388583Y243307D02*
X372441D01*
X400787Y249213D02*
X400000D01*
X395276Y259843*
X376378*
X457480Y243307D02*
X462598D01*
X474595Y255304*
X491524*
X492126Y255906*
X515748*
X474016Y241732D02*
X477458D01*
X481395Y245669*
X503543*
X521260*
X538976Y251575D02*
X515748D01*
X777165Y247638D02*
X772835Y251969D01*
X760630*
X759843Y252756*
X121654Y266142D02*
X144882D01*
X153543Y255118D02*
X128346D01*
X123622Y259843*
X118504*
X361811Y268898D02*
X373228D01*
X361811*
X464173Y256299D02*
X469291D01*
X472959Y260102*
X525984*
X526905Y261024*
X527559*
X617323Y272047D02*
X621654D01*
X624409Y274803*
X630709*
X325984Y321260D02*
X336614D01*
Y321779*
X336220Y322172D02*
X336614Y321779D01*
Y321260*
Y321779D02*
X336220Y322172D01*
X353812*
X354331Y321654D02*
X353812Y322172D01*
X336220*
X354331Y321654D02*
X353812Y322172D01*
X371654Y315748D02*
X361811D01*
X359449Y318110*
X395669Y336614D02*
Y349606D01*
X403937Y340157D02*
X439764D01*
X440945Y341339*
X440551Y346457D02*
X415354D01*
X407087Y354724*
X384646*
X501575Y348819D02*
X531102D01*
X548819*
X397285Y370079D02*
X394882D01*
X416142Y356299D02*
X449213D01*
X451575Y358661*
X670866*
X416142Y356299D02*
X413780Y358661D01*
X255512*
X417323Y359843D02*
X433858D01*
X428303Y364173D02*
X427953Y364524D01*
Y364567*
X168504Y375591D02*
X189764D01*
X298425Y388583D02*
X298031Y390157D01*
X324803Y377953D02*
Y381102D01*
X474016Y413780D02*
X477953Y414173D01*
X501575*
X534252Y411024D02*
X496457D01*
X407874Y419291D02*
X408268D01*
X544094Y432677D02*
X512205D01*
X511024Y433858*
X544094Y432677D02*
X551181Y439764D01*
X649213*
X319291Y451969D02*
X332283Y464961D01*
Y468504*
X338583Y445276D02*
X346850D01*
X349213Y447638*
X371260*
X470079Y448425D02*
X509449D01*
X489764Y444488D02*
X527165D01*
X502362Y452756D02*
X492913Y460236D01*
X485039*
X523228Y437008D02*
X489370D01*
X486614Y439764*
X622835Y446063D02*
X611024D01*
X257650Y460800D02*
X255118Y461024D01*
X331102Y468504D02*
X333858Y471260D01*
Y471654*
X649213Y485039D02*
X762992D01*
G54D45*
X375591Y115748D02*
X376969D01*
X399213Y137992*
X139764Y174803D02*
X143701D01*
X157874Y188976*
X170866*
X150000Y194094D02*
X153150Y197244D01*
X176378*
X184646Y188976D02*
X176378Y197244D01*
X258661Y177165D02*
X280118D01*
X290945Y187992*
X267717Y194094D02*
X271260Y197638D01*
X295079*
X304724Y187992D02*
X295079Y197638D01*
X369685Y176772D02*
X387992D01*
X399213Y187992*
X418504Y192520D02*
Y203543D01*
X409055Y213780*
X412992Y187992D02*
X404528Y196457D01*
X377559*
X480709Y174803D02*
X498228D01*
X511417Y187992*
X525197D02*
X517520Y195669D01*
X489370*
X700787Y206299D02*
X723622D01*
X708268Y222047D02*
X749606D01*
X762598Y235039*
X700551Y290945D02*
Y291969D01*
X694094Y298425*
X669685Y296063D02*
X672047Y298425D01*
X694094*
X389370Y331102D02*
X417323D01*
X419685Y333465*
X428740*
X450787*
X460236Y342913*
Y353150*
X428740Y333465D02*
X431496D01*
X694882Y315354D02*
X687008D01*
X679921Y322441*
X670079*
X694882Y315354D02*
X700551Y321024D01*
Y322441*
X256299Y346063D02*
X226772D01*
X224803Y348031*
X213386*
G54D46*
X462598Y204331D02*
X497244D01*
X501575Y208661*
X616929Y226772D02*
X604331D01*
X596850Y234252*
X594882*
X716929Y226772D02*
X741732D01*
X302756Y236614D02*
X300394D01*
X292913Y244094*
Y255512*
X637008Y250394D02*
X642913D01*
X644488Y251969*
X647244*
X694882Y236614D02*
X598425D01*
X591339Y243701*
X588583*
X688189Y268110D02*
X573622D01*
X542126Y299606*
X540945*
X642520Y292913D02*
X601969D01*
X135039Y307874D02*
X137795Y310630D01*
X161417*
X166535Y315748*
X157480Y313780D02*
X159843D01*
X163386Y317323*
X261811*
X284646Y310630D02*
X359055D01*
X359449Y311024*
Y318110*
X288583Y310630D02*
X284646D01*
X265354*
X260236Y315748*
X166535*
X303543Y313386D02*
X303150D01*
Y313780*
X265354*
X261811Y317323*
X303543Y313386D02*
X303150D01*
Y313780*
X320472*
X320866Y313386*
X374409Y307480D02*
X381268D01*
X389930Y316142*
X493701*
X381890Y312992D02*
X383465D01*
X388189Y317717*
X494488*
X522441Y313386D02*
X496457D01*
X493701Y316142*
X522441Y313386D02*
X522835D01*
X529134Y319685*
X552756Y313386D02*
X553937Y314567D01*
Y314961*
X657480*
X580315Y307874D02*
X579925D01*
X577956Y309843*
X549213*
X546063Y312992*
X715748Y311811D02*
X660630D01*
X657480Y314961*
X715748Y311811D02*
X718504Y314567D01*
X716929Y314961*
X275591Y320866D02*
X266929D01*
X288583D02*
X303543D01*
X296457Y324016D02*
Y331774D01*
X296573Y331890*
X307087Y316142D02*
X266142D01*
X263386Y318898*
X150000*
X307087Y316142D02*
X308661Y317717D01*
X312992Y327953D02*
Y331663D01*
X312765Y331890*
X375802Y315748D02*
X376378D01*
X379921Y319291*
X508268*
X508661Y319685*
X371654Y315748D02*
X375802D01*
X371654*
Y320472*
X375197Y324016*
X507480Y333858D02*
X511024D01*
X518504Y341339*
X520079Y315748D02*
X507480D01*
X505512Y317717*
X494488*
X520079Y315748D02*
X524016Y319685D01*
X533071Y315748D02*
X535039Y317717D01*
X666142*
X123228Y346457D02*
X135433D01*
X329921Y347244D02*
X348819D01*
X453150Y350000D02*
X451575Y351575D01*
X419291*
X153543Y365748D02*
X151181Y368110D01*
X141732*
X261417Y370079D02*
Y377953D01*
X135276Y382126D02*
X120866D01*
X115591Y387402*
X135276Y382126D02*
X135433Y382283D01*
X125591Y387402D02*
X246457D01*
X332677Y389764D02*
X366535D01*
X367323Y390551*
X332677Y389764D02*
X330709Y391732D01*
X348819Y384252D02*
X375197D01*
X375984Y385039*
X481496Y394094D02*
X477953Y397638D01*
X454724*
X767551Y385662D02*
X766992Y386220D01*
X535827*
X530709Y391339*
X767551Y385662D02*
X777165Y395276D01*
X125591Y397402D02*
X276772D01*
X285827Y406299*
X293368*
X295669Y408600*
Y409055*
X196850Y409843D02*
X197638D01*
Y410630*
X196850Y409843D02*
X198819Y411800D01*
X296457*
X276386Y403937D02*
X199213D01*
X197638Y404331*
X276386Y403937D02*
X276770Y403939D01*
X272835Y406299D02*
X201575D01*
X200787Y407087*
X272835Y406299D02*
X273228Y406693D01*
X274409*
X277165Y403937D02*
X276770Y403939D01*
X296063Y403150D02*
X317717D01*
X318898Y405906D02*
X302351D01*
X296457Y411800*
X318898Y405906D02*
X321260Y408268D01*
X311811Y409055D02*
X301575D01*
X296457Y414173*
X141339*
X337402Y408268D02*
X337795Y408661D01*
X395669*
X363386Y402756D02*
X344882D01*
X363386*
X403937Y405906D02*
X535039D01*
X537008Y407874*
X403937Y405906D02*
X396457Y414173D01*
X336220*
X335433Y414961*
Y415157*
X298622*
X297244Y416535*
X292126*
X407874Y395669D02*
X385827D01*
X381102Y400394*
X341339*
X340157Y402362*
X333858*
X404724Y411024D02*
X462598D01*
X469291Y418110*
X481496*
X494882Y431496*
X499213*
X452362Y395276D02*
X454724Y397638D01*
X538583Y402756D02*
X401575D01*
X395669Y408661*
X538583Y402756D02*
X540157Y404331D01*
X541732*
X537402D02*
X402362D01*
X396063Y411024*
X331890*
X330709Y412205*
X537402Y404331D02*
X540945Y407874D01*
X542520Y403543D02*
X541732Y404331D01*
X540551Y400394D02*
X539764Y401181D01*
X398819*
X398425Y401575*
X398819*
X398031Y402362*
X249213Y417323D02*
X249134Y417402D01*
X125591*
X280709Y428740D02*
X294094D01*
X294882Y429528*
X322047*
X324803Y432283*
X280709Y428740D02*
X279921Y429528D01*
X277559*
X335827D02*
X337541D01*
X338329Y430315*
X371260Y416929D02*
X354724D01*
X350000Y421654*
X349606*
X380709Y427953D02*
X402455D01*
X404817Y430315*
X405906*
X380709Y427953D02*
X378346Y430315D01*
X338329*
X392126Y433858D02*
X390551Y435433D01*
X289370*
X388189Y430315D02*
X383071D01*
X381102Y432283*
X324803*
X408268Y419291D02*
X409843D01*
X414567Y424016*
X412205Y429921D02*
X419291Y437008D01*
X432677*
X442126Y419685D02*
X464173D01*
X497638D02*
X524803D01*
X115591Y447402D02*
X122520Y453937D01*
X138976*
X125591Y437402D02*
X268110D01*
X274016Y443307*
X305906*
X153937Y444882D02*
X134016D01*
X130709Y447402*
X125591*
X159055Y444882D02*
X301575D01*
X302756Y446063*
X333858*
X337402Y449606*
X252362Y452362D02*
X296850D01*
X305512Y461024*
Y463780*
X277559Y448031D02*
X277953Y448425D01*
X277559Y437402D02*
X277953Y437795D01*
X394094*
X289370Y449606D02*
X321654D01*
X327165Y455118*
X300000Y447244D02*
X279134D01*
X277953Y448425*
X300000Y447244D02*
X300394Y447638D01*
X322441*
X327559Y452756*
X385039*
X324409Y443701D02*
X324803D01*
Y444094*
X341732Y442126D02*
X386614D01*
X388189Y443701*
X388583*
X341732Y442126D02*
X340945Y442913D01*
X325984*
X324803Y444094*
X397638Y440157D02*
X337402D01*
X402362Y446850D02*
X456299D01*
X459449Y450000*
X456299Y453937D02*
X455118Y455118D01*
X327165*
X257650Y460800D02*
X259843Y462992D01*
X292520*
X249213Y456299D02*
X296850D01*
X301969Y461417*
Y463780*
X246457Y462992D02*
X248425D01*
X250787Y465354*
X294882*
X297244Y462992*
X452362Y459843D02*
X457480Y464173D01*
X507480*
X509055Y462598D02*
X507480Y464173D01*
G54D49*
X595669Y138583D03*
X616929D03*
X711024Y153150D03*
X754724D03*
X462598Y204331D03*
X584646Y201969D03*
X754724D03*
X750787Y214567D03*
X616929Y226772D03*
X605906Y231496D03*
X115748Y245276D03*
X134252D03*
X342126Y247244D03*
X348425Y243701D03*
X352362Y236220D03*
X362598Y247244D03*
X372441Y243307D03*
X367323Y239764D03*
X380709Y247244D03*
X388583Y243307D03*
X457480D03*
X515748Y251575D03*
X538976D03*
X577559Y252756D03*
X637008Y250394D03*
X647244Y251969D03*
X694882Y236614D03*
X118504Y259843D03*
X121654Y266142D03*
X153543Y255118D03*
X144882Y266142D03*
X298819Y267717D03*
X292913Y255512D03*
X373228Y268898D03*
X361811D03*
X464173Y256299D03*
X515748Y255906D03*
X527559Y261024D03*
X562205Y273622D03*
X617323Y272047D03*
X568504Y278740D03*
X601969Y292913D03*
X630709Y274803D03*
X642520Y292913D03*
X135039Y307874D03*
X157480Y313780D03*
X288583Y310630D03*
X303543Y313386D03*
X320866D03*
X374409Y307480D03*
X381890Y312992D03*
X535433Y311811D03*
X552756Y313386D03*
X540945Y299606D03*
X546063Y312992D03*
X580315Y307874D03*
X129921Y318898D03*
X150000D03*
X266929Y320866D03*
X275591D03*
X288583D03*
X296457Y324016D03*
X303543Y320866D03*
X308661Y316929D03*
X312992Y327953D03*
X325984Y321260D03*
X321260Y318504D03*
X336614Y321260D03*
X354331Y321654D03*
X359449Y318110D03*
X375197Y324016D03*
X507480Y333858D03*
X508661Y319685D03*
X533071Y315748D03*
X529134Y319685D03*
X524016D03*
X135433Y346457D03*
X123228D03*
X213386Y348031D03*
X256299Y346063D03*
X329921Y347244D03*
X348819D03*
X395669Y349606D03*
Y336614D03*
X384646Y354724D03*
X419291Y351575D03*
X403937Y340157D03*
X453150Y350000D03*
X440551Y346457D03*
X440945Y341339D03*
X518504D03*
X141732Y368110D03*
X153543Y365748D03*
X164173Y370079D03*
X255512Y358661D03*
X394882Y370079D03*
X416535D03*
X417323Y359843D03*
X433858D03*
X427953Y364567D03*
X135433Y382283D03*
X168504Y375591D03*
X189764D03*
X246457Y387402D03*
X298031Y390157D03*
X313780D03*
X324803Y381102D03*
X330709Y391732D03*
X327953Y389764D03*
X348819Y384252D03*
X367323Y390551D03*
X373622Y388189D03*
X375984Y385039D03*
X481496Y394094D03*
X530709Y391339D03*
X141339Y414173D03*
X197638Y410630D03*
Y404331D03*
X200787Y407087D03*
X277165Y403937D03*
X274409Y406693D03*
X295669Y409055D03*
X296063Y403150D03*
X311811Y409055D03*
X317717Y403150D03*
X338189Y405118D03*
X333858Y402362D03*
X321260Y408268D03*
X337402D03*
X330709Y412205D03*
X344882Y402756D03*
X363386D03*
X398031Y402362D03*
X407874Y395669D03*
X404724Y411024D03*
X452362Y395276D03*
X474016Y413780D03*
X496457Y411024D03*
X501575Y414173D03*
X534646Y397244D03*
X537008Y407874D03*
X534252Y411024D03*
X542520Y403543D03*
X540945Y407874D03*
X540551Y400394D03*
X249213Y417323D03*
X260236Y428346D03*
X272047D03*
X277559Y429528D03*
X289370Y431496D03*
X292126Y416535D03*
X338583Y424016D03*
X335827Y429528D03*
X349606Y421654D03*
X362992Y419685D03*
X371260Y416929D03*
X392126Y433858D03*
X385433Y433071D03*
X388189Y430315D03*
X405906D03*
X412205Y429921D03*
X414567Y424016D03*
X407874Y419291D03*
X442126Y419685D03*
X464173D03*
X499213Y431496D03*
X497638Y419685D03*
X511024Y433858D03*
X524803Y419685D03*
X138976Y453937D03*
X153937Y444882D03*
X159055D03*
X252362Y452362D03*
X277559Y448031D03*
Y437402D03*
X289370Y449606D03*
Y435433D03*
X319291Y451969D03*
X305906Y443307D03*
X324409Y443701D03*
X338583Y445276D03*
X337402Y449606D03*
Y440157D03*
X351181Y444882D03*
X365354D03*
X385039Y452756D03*
X388583Y443701D03*
X394094Y437795D03*
X397638Y440157D03*
X402362Y446850D03*
X432677Y437008D03*
X456299Y453937D03*
X459449Y450000D03*
X470079Y448425D03*
X489764Y444488D03*
X486614Y439764D03*
X509449Y448425D03*
X502362Y452756D03*
X527165Y444488D03*
X523228Y437008D03*
X611024Y446063D03*
X622835D03*
X249213Y456299D03*
X255118Y461024D03*
X246457Y462992D03*
X292520D03*
X297244D03*
X305512Y463780D03*
X301969D03*
X333858Y471654D03*
X452362Y459843D03*
X485039Y460236D03*
X509055Y462598D03*
X461811Y475197D03*
X474409Y480709D03*
X497244Y475197D03*
X485827D03*
G54D52*
X754724Y153150D02*
X711024D01*
X562205Y189173D02*
X572047D01*
X584646Y201772*
Y201969*
X577559Y252756D02*
X562205Y268110D01*
Y273622*
X568504Y278740D02*
X564173Y282677D01*
X535433Y311417*
Y311811*
X318898Y316142D02*
X310236D01*
X308661Y317717*
X318898Y316142D02*
X321260Y318504D01*
X308661Y316929D02*
Y317717D01*
X372441Y387008D02*
X330709D01*
X327953Y389764*
X372441Y387008D02*
X373622Y388189D01*
X338189Y405118D02*
X339764Y406693D01*
X534646Y397244D02*
X532283Y399606D01*
X397244*
X390157Y406693*
X339764*
X272047Y428346D02*
X260236D01*
X289370Y431496D02*
X321260D01*
X323622Y433858*
X338583Y424016D02*
X339370D01*
X340551Y425197*
X351181*
X362992Y419685D02*
X356693D01*
X351181Y425197*
X384646Y432677D02*
X385039D01*
X385433Y433071*
X384646Y432677D02*
Y433071D01*
X383858Y433858*
X323622*
X351181Y444882D02*
X365354D01*
G74*
X0Y0D02*
M02*
