%
T1C.01575F095S3
X04626Y020433
X058465Y020197
X059567Y013858
X061693Y013858
X071102Y015315
X075079Y021457
X075472Y020197
X075472Y015315
X069488Y023661
X064724Y025197
X063701Y025039
X061693Y022677
X060591Y02315
X057756Y025276
X053898Y025157
X052756Y026102
X051575Y025157
X051575Y025591
X046417Y02563
X045748Y024331
X038858Y024331
X038071Y024724
X037244Y024331
X036732Y023976
X03626Y024724
X035236Y023622
X034843Y02437
X034213Y024724
X029291Y025551
X015354Y025512
X013425Y024528
X01185Y025984
X011575Y024528
X012165Y026614
X013504Y030787
X014488Y026614
X015748Y031378
X028858Y031063
X029882Y026772
X030354Y031339
X032087Y031339
X036181Y02689
X037323Y02689
X037441Y030748
X038189Y031299
X053543Y031181
X054094Y029961
X054606Y031299
X055276Y031339
X05622Y027362
X05685Y027874
X058031Y030787
X060197Y029291
X061732Y027205
X063071Y02748
X064252Y029291
X053307Y031575
X052913Y031969
X052402Y031969
X05185Y034134
X050866Y031969
X050748Y033386
X045315Y035
X044094Y034134
X044055Y034646
X043386Y035984
X042795Y036457
X041929Y035157
X041732Y035984
X040394Y034016
X039567Y033661
X039567Y034961
X038465Y035472
X03752Y032402
X035945Y031811
X035433Y032165
X034882Y034724
X033661Y032126
X032992Y034724
X032598Y032126
X032126Y03185
X031299Y032795
X030866Y031693
X030354Y032087
X029646Y032402
X028858Y032087
X027559Y032087
X026693Y032087
X02563Y034606
X025551Y035866
X021339Y034803
X015Y03189
X013543Y034646
X012992Y03189
X012323Y034646
X013543Y038228
X014134Y041417
X014173Y036811
X015354Y036575
X016417Y037008
X01685Y037559
X018976Y037559
X019764Y041063
X019764Y040433
X020079Y040709
X024646Y03874
X027441Y040669
X027717Y040394
X029567Y040906
X029606Y040315
X029803Y039016
X031181Y040906
X031378Y039016
X031772Y040315
X032126Y040827
X03248Y03811
X032795Y038976
X033071Y039173
X033071Y04122
X033386Y040236
X03374Y040827
X033819Y040512
X034488Y040276
X034882Y038425
X036339Y040276
X036732Y039055
X037362Y038819
X037598Y038504
X039488Y037008
X039803Y040236
X040472Y041102
X040787Y039567
X041654Y037008
X045236Y039528
X047402Y041378
X04815Y039409
X049646Y041102
X050157Y041417
X053071Y039134
X053425Y041102
X053465Y039724
X053701Y040787
X054055Y040039
X054094Y040787
X054252Y040354
X05248Y041969
X052323Y043701
X051102Y043386
X049921Y04315
X049764Y041969
X048661Y043976
X046417Y041969
X044213Y041969
X043268Y043701
X041457Y042402
X04122Y042992
X040787Y041929
X040591Y043031
X039764Y044016
X039409Y04378
X039213Y043386
X038819Y043031
X038543Y043307
X037126Y041693
X036299Y041969
X034961Y042165
X033858Y042402
X03374Y044016
X033583Y042953
X029213Y041654
X028937Y043543
X028937Y04315
X027756Y042953
X027756Y04374
X027205Y042835
X026024Y042835
X024921Y041732
X013898Y045394
X015394Y044488
X015906Y044488
X024646Y046299
X024921Y04563
X025236Y045236
X025512Y046102
X027756Y044803
X028937Y044961
X029252Y046299
X029724Y046299
X030197Y046378
X030551Y046378
X030591Y044331
X031929Y045197
X032441Y04437
X03374Y044961
X033858Y044528
X035118Y044488
X036535Y044488
X038504Y045276
X038858Y04437
X040236Y044685
X045236Y045984
X04563Y045394
X045945Y045
X047008Y044843
X048504Y046024
X048976Y044449
X050236Y045276
X050906Y04626
X050945Y044843
X052717Y044449
X061102Y044606
X062283Y044606
X049724Y04752
X048583Y04752
X047441Y048071
X046181Y04752
X033386Y047165
T2C.02362F197S55
X012362Y020354
X013976Y01748
X015Y019409
X016024Y020669
X017874Y020945
X019055Y020787
X025866Y017717
X026063Y020079
X026772Y019409
X032008Y01937
X035236Y020354
X036969Y017677
X037756Y019646
X04Y020827
X040906Y021378
X04185Y019252
X045079Y019921
X048071Y01748
X048189Y019921
X048937Y019567
X050157Y020866
X070079Y02063
X070906Y013031
X072362Y02063
X074724Y013622
X07626Y023504
X075984Y025276
X074173Y022677
X071693Y022677
X070827Y022205
X067087Y022598
X066496Y025709
X064724Y023071
X064213Y022598
X062717Y025709
X062677Y022598
X060472Y025709
X059488Y023425
X059291Y025039
X058858Y02437
X053898Y02437
X052323Y022795
X052126Y024567
X051929Y02185
X050354Y024567
X04937Y023976
X048583Y023819
X047402Y024173
X045906Y025354
X04122Y024449
X04122Y022913
X040079Y024921
X040039Y02378
X037638Y025984
X037362Y02378
X031614Y025984
X031299Y024646
X030276Y023661
X030197Y021929
X028268Y022283
X028268Y025118
X02752Y024606
X025945Y025945
X024646Y022638
X023976Y025276
X01748Y025472
X017126Y022165
X016142Y025945
X014843Y024016
X012992Y024016
X014764Y034055
X015866Y03315
X026181Y027756
X038937Y03311
X04315Y033346
X048307Y027756
X052126Y032717
X054882Y03311
X055866Y029567
X056378Y033622
X057756Y02878
X058661Y027874
X059803Y032402
X061969Y027874
X063661Y032362
X065276Y03311
X065906Y027874
X066614Y031772
X066969Y029606
X067008Y032244
X067874Y033622
X068819Y026811
X070827Y032992
X071693Y031496
X072441Y036417
X06874Y036417
X067087Y035866
X064094Y037008
X063661Y036417
X059803Y03748
X059213Y037008
X058622Y036417
X057402Y037008
X05689Y036417
X054882Y034882
X054882Y038031
X05311Y034882
X052165Y038031
X050157Y034882
X049094Y03748
X04811Y036417
X046024Y035315
X045709Y037008
X036142Y03748
X036142Y035236
X036142Y034409
X035591Y034213
X035591Y037992
X034291Y035236
X034291Y037795
X030197Y037795
X02685Y034213
X026811Y038346
X026142Y037795
X024843Y038346
X023661Y035118
X022913Y036417
X022913Y038346
X022165Y036654
X019291Y038346
X017756Y037008
X014567Y037677
X012953Y037677
X012323Y035354
X011457Y034094
X010866Y037717
X015984Y040197
X016417Y040197
X016496Y039331
X018228Y039331
X021417Y039331
X023504Y042598
X024173Y042638
X034921Y039724
X053307Y042874
X055827Y042874
X059291Y042756
X059685Y041811
X060827Y039882
X061969Y040394
X062244Y042795
X062992Y042441
X06374Y040394
X063819Y042362
X064921Y043976
X075354Y043937
X079213Y043661
X076299Y048504
X074449Y046024
X064921Y048504
X056378Y047008
X055827Y047559
X047992Y044252
X043268Y046378
X043228Y04752
X04252Y048661
X04252Y044252
X039764Y045866
X038661Y046378
X037126Y044764
X03626Y04685
X034016Y048583
X033228Y048583
X030827Y048583
X02689Y04685
X026024Y048583
X024173Y048622
X021417Y04685
X020079Y048583
X019134Y04685
X016457Y048583
X014449Y04685
T3C.0315F197S55
X069055Y029094
X069055Y032244
X070055Y029094
X070055Y032244
T4C.03543F197S55
X011772Y014071
X011772Y018071
X023386Y014071
X023386Y018071
X034803Y018071
X034803Y014071
X045827Y018071
X045827Y014071
T5C.0374F197S55
X017087Y013898
X017087Y018898
X018465Y013898
X018465Y018898
X029094Y013799
X029094Y018799
X030472Y013799
X030472Y018799
X039921Y013799
X039921Y018799
X041299Y013799
X041299Y018799
X051142Y013799
X051142Y018799
X05252Y018799
X05252Y013799
X05622Y018917
X05622Y013917
X057638Y016713
X057638Y011713
X012559Y03874
X012559Y03974
X012559Y04074
X011559Y03974
X011559Y03874
X011559Y04074
X011559Y04174
X011559Y04274
X011559Y04374
X011559Y04474
X012559Y04374
X012559Y04274
X012559Y04474
X012559Y04174
T6C.03937F197S55
X063346Y015669
X063346Y017638
X063346Y019606
X063346Y021575
X069252Y015669
X069252Y019606
X069252Y017638
X069252Y021575
X046614Y026535
X046614Y028504
X046614Y030472
X040709Y026535
X040709Y030472
X040709Y028504
X024331Y028583
X024331Y030551
X024331Y026614
X018425Y026614
X018425Y030551
X018425Y028583
X018425Y03252
X024331Y03252
X040709Y032441
X046614Y032441
X065197Y039528
X067165Y039528
X069134Y039528
X071102Y039528
X071102Y045433
X069134Y045433
X067165Y045433
X065197Y045433
T7C.04724F139S55
X014528Y011575
X015906Y011575
X017283Y011575
X025551Y011575
X026929Y011575
X028307Y011575
X036181Y011575
X037559Y011575
X038937Y011575
X046811Y011575
X048189Y011575
X049567Y011575
X059213Y011575
X061969Y011575
X069449Y011575
X070827Y011575
X077717Y023386
X077717Y024764
X077717Y026142
X077717Y028898
X077717Y02752
X077717Y030276
X077717Y033031
X077717Y031654
X077717Y035394
X077717Y03815
X077717Y036772
X077717Y039528
X077717Y040906
X077717Y043661
X077717Y042283
X077717Y045039
X041417Y047835
X040039Y047835
X038661Y047835
X037283Y047835
X035906Y047835
T8C.05F107S55
X074055Y029094
X074055Y032244
X076055Y029094
X076055Y032244
T9C.1378F035S794
X01163Y01163
X033638Y01159
X079346Y01163
X079346Y04785
X01163Y04785
M30
