*
*
G04 PADS 9.5 Build Number: 522968 generated Gerber (RS-274-X) file*
G04 PC Version=2.1*
*
%IN "dcPower.pcb"*%
*
%MOIN*%
*
%FSLAX35Y35*%
*
*
*
*
G04 PC Standard Apertures*
*
*
G04 Thermal Relief Aperture macro.*
%AMTER*
1,1,$1,0,0*
1,0,$1-$2,0,0*
21,0,$3,$4,0,0,45*
21,0,$3,$4,0,0,135*
%
*
*
G04 Annular Aperture macro.*
%AMANN*
1,1,$1,0,0*
1,0,$2,0,0*
%
*
*
G04 Odd Aperture macro.*
%AMODD*
1,1,$1,0,0*
1,0,$1-0.005,0,0*
%
*
*
G04 PC Custom Aperture Macros*
*
*
*
*
*
*
G04 PC Aperture Table*
*
%ADD010C,0.001*%
%ADD042C,0.01*%
%ADD058R,0.06906X0.05724*%
%ADD059R,0.05921X0.06512*%
%ADD060R,0.05724X0.06906*%
%ADD061R,0.06512X0.05921*%
%ADD062R,0.07X0.07*%
%ADD063R,0.09X0.07*%
%ADD064C,0.08087*%
%ADD065O,0.084X0.034*%
%ADD066C,0.07299*%
%ADD067R,0.073X0.128*%
%ADD068R,0.238X0.26*%
%ADD069O,0.034X0.084*%
%ADD070R,0.07102X0.07102*%
%ADD071C,0.07102*%
%ADD072R,0.06906X0.0415*%
%ADD073C,0.06906*%
%ADD074C,0.11*%
%ADD075R,0.06906X0.06512*%
%ADD076C,0.08874*%
%ADD077R,0.0415X0.06906*%
%ADD078R,0.04386X0.07299*%
%ADD079R,0.07X0.09*%
%ADD080C,0.28559*%
%ADD081R,0.06906X0.06906*%
%ADD082O,0.02X0.075*%
%ADD083O,0.075X0.02*%
%ADD085R,0.08874X0.08874*%
%ADD086O,0.08677X0.03362*%
%ADD087O,0.03362X0.08677*%
%ADD088R,0.10449X0.13598*%
%ADD093R,0.05724X0.08087*%
%ADD094R,0.31315X0.28165*%
%ADD095R,0.055X0.075*%
%ADD096R,0.128X0.075*%
*
*
*
*
G04 PC Circuitry*
G04 Layer Name dcPower.pcb - circuitry*
%LPD*%
*
*
G04 PC Custom Flashes*
G04 Layer Name dcPower.pcb - flashes*
%LPD*%
*
*
G04 PC Circuitry*
G04 Layer Name dcPower.pcb - circuitry*
%LPD*%
*
G54D10*
G54D42*
G01X442913Y446850D02*
X446063D01*
Y455512*
X448031Y457480*
Y468504*
X440945*
Y457480*
X442913Y455512*
Y446850*
X440988Y457437D02*
Y468504D01*
X441488Y456937D02*
Y468504D01*
X441988Y456437D02*
Y468504D01*
X442488Y455937D02*
Y468504D01*
X442988Y446850D02*
Y468504D01*
X443488Y446850D02*
Y468504D01*
X443988Y446850D02*
Y468504D01*
X444488Y446850D02*
Y468504D01*
X444988Y446850D02*
Y468504D01*
X445488Y446850D02*
Y468504D01*
X445988Y446850D02*
Y468504D01*
X446488Y455937D02*
Y468504D01*
X446988Y456437D02*
Y468504D01*
X447488Y456937D02*
Y468504D01*
X447988Y457437D02*
Y468504D01*
X100000Y100000D02*
X808661D01*
Y493701*
X100000*
Y100000*
G54D58*
X178740Y222677D03*
Y237165D03*
X194488Y338819D03*
Y353307D03*
X168110Y254567D03*
Y269055D03*
X178740Y199055D03*
Y213543D03*
X296850Y222677D03*
Y237165D03*
Y199055D03*
Y213543D03*
X390945Y252992D03*
Y267480D03*
X400787Y340000D03*
Y354488D03*
X405118Y223858D03*
Y238346D03*
X405512Y199055D03*
Y213543D03*
X519291Y222677D03*
Y237165D03*
Y199055D03*
Y213543D03*
X728740Y394646D03*
Y380157D03*
X747638Y394646D03*
Y380157D03*
X123622Y207638D03*
Y193150D03*
X727953Y426142D03*
Y411654D03*
X727559Y454882D03*
Y440394D03*
X636614Y418268D03*
Y403780D03*
X115748Y207638D03*
Y193150D03*
X242126Y207638D03*
Y193150D03*
X233858Y207638D03*
Y193150D03*
X352362Y207638D03*
Y193150D03*
X462598Y207638D03*
Y193150D03*
X344094Y207638D03*
Y193150D03*
X454331Y207638D03*
Y193150D03*
X751969Y426142D03*
Y411654D03*
X747638Y453701D03*
Y439213D03*
X653937Y130079D03*
Y115591D03*
X742520Y112441D03*
Y126929D03*
X636614Y130079D03*
Y115591D03*
G54D59*
X182677Y348524D03*
Y339665D03*
X172835Y348524D03*
Y339665D03*
X190551Y236319D03*
Y227461D03*
X194488Y363287D03*
Y372146D03*
X172835Y359350D03*
Y368209D03*
X182677D03*
Y359350D03*
X237795Y361319D03*
Y370177D03*
X248425Y369783D03*
Y360925D03*
X166929Y208760D03*
Y199902D03*
X245669Y349705D03*
Y340846D03*
X308661Y236319D03*
Y227461D03*
X285039Y208760D03*
Y199902D03*
X129528Y353445D03*
Y362303D03*
X521654Y364075D03*
Y372933D03*
X491732Y362303D03*
Y353445D03*
X296850Y358366D03*
Y349508D03*
X153150Y352264D03*
Y361122D03*
X141339Y353445D03*
Y362303D03*
X129528Y331791D03*
Y340650D03*
X285039Y327854D03*
Y336713D03*
X296457D03*
Y327854D03*
X115748Y226476D03*
Y217618D03*
X127559Y259941D03*
Y251083D03*
X233858Y226476D03*
Y217618D03*
X275197Y259941D03*
Y251083D03*
X117717Y331791D03*
Y340650D03*
X153150Y331791D03*
Y340650D03*
X275591Y328248D03*
Y337106D03*
X308268Y345177D03*
Y354035D03*
Y327854D03*
Y336713D03*
X123622Y226476D03*
Y217618D03*
X148425Y250689D03*
Y259547D03*
X139370D03*
Y250689D03*
X115748Y251083D03*
Y259941D03*
X157874Y259547D03*
Y250689D03*
X242126Y226476D03*
Y217618D03*
X287008Y259941D03*
Y251083D03*
X263386D03*
Y259941D03*
X298819D03*
Y251083D03*
X310630Y259941D03*
Y251083D03*
X336614Y355217D03*
Y346358D03*
Y327854D03*
Y336713D03*
X367717Y349508D03*
Y358366D03*
X491732Y333760D03*
Y342618D03*
X521260D03*
Y333760D03*
X344094Y226476D03*
Y217618D03*
X353937Y259941D03*
Y251083D03*
X454331Y226476D03*
Y217618D03*
X509449Y259941D03*
Y251083D03*
X346457Y327854D03*
Y336713D03*
X355906Y327854D03*
Y336713D03*
X367717Y327854D03*
Y336713D03*
X501575Y333760D03*
Y342618D03*
X531102Y333760D03*
Y342618D03*
X352362Y226476D03*
Y217618D03*
X362598Y259941D03*
Y251083D03*
X380709Y259941D03*
Y251083D03*
X372441Y259941D03*
Y251083D03*
X342126D03*
Y259941D03*
X462205Y226476D03*
Y217618D03*
X533071Y251083D03*
Y259941D03*
X521260D03*
Y251083D03*
X485827D03*
Y259941D03*
X497638Y251083D03*
Y259941D03*
X661024Y313091D03*
Y304232D03*
X389370Y350492D03*
Y341634D03*
Y368209D03*
Y359350D03*
X444488Y350492D03*
Y341634D03*
X389370Y385925D03*
Y377067D03*
X444488Y359350D03*
Y368209D03*
X411024Y377067D03*
Y385925D03*
X399213D03*
Y377067D03*
X422835D03*
Y385925D03*
X434646D03*
Y377067D03*
X446457Y385925D03*
Y377067D03*
X418110Y237894D03*
Y229035D03*
X395276Y208760D03*
Y199902D03*
X529134Y237106D03*
Y228248D03*
X507480Y208760D03*
Y199902D03*
X670866Y304232D03*
Y313091D03*
X661024Y341634D03*
Y350492D03*
X670866Y341634D03*
Y350492D03*
X767323Y269783D03*
Y260925D03*
Y244193D03*
Y235335D03*
X755512Y244193D03*
Y235335D03*
Y260925D03*
Y269783D03*
X743701Y244193D03*
Y235335D03*
X746063Y269783D03*
Y260925D03*
X445669Y410925D03*
Y419783D03*
X528740Y410925D03*
Y419783D03*
X493307D03*
Y410925D03*
X469685Y419783D03*
Y410925D03*
X481496Y419783D03*
Y410925D03*
X459055Y419783D03*
Y410925D03*
X505118D03*
Y419783D03*
X515748Y411319D03*
Y420177D03*
X528740Y428642D03*
Y437500D03*
X402362Y410925D03*
Y419783D03*
X503543Y480413D03*
Y471555D03*
X515354Y432185D03*
Y441043D03*
X479921Y471555D03*
Y480413D03*
X538976Y449902D03*
Y458760D03*
X491732Y471555D03*
Y480413D03*
X527165Y449902D03*
Y458760D03*
X515354D03*
Y449902D03*
X456299Y471555D03*
Y480413D03*
X468110D03*
Y471555D03*
X402362Y438287D03*
Y429429D03*
X433071Y410925D03*
Y419783D03*
X444882Y428248D03*
Y437106D03*
X433071D03*
Y428248D03*
X738583Y380217D03*
Y389075D03*
X626378Y384941D03*
Y393799D03*
X629528Y365256D03*
Y374114D03*
X603937Y387894D03*
Y379035D03*
X614961Y393799D03*
Y384941D03*
X603937Y398720D03*
Y407579D03*
X601969Y445965D03*
Y454823D03*
X636614Y384941D03*
Y393799D03*
X625591Y454823D03*
Y445965D03*
X613780D03*
Y454823D03*
X636220D03*
Y445965D03*
X589764Y175098D03*
Y183957D03*
X572441Y258957D03*
Y267815D03*
X761417Y414469D03*
Y423327D03*
X738189Y443996D03*
Y452854D03*
X572441Y278642D03*
Y287500D03*
X562598Y258957D03*
Y267815D03*
X589764Y203248D03*
Y194390D03*
X728740Y146949D03*
Y138091D03*
X759449Y209744D03*
Y218602D03*
X767717D03*
Y209744D03*
X727953Y205807D03*
Y214665D03*
X755512Y146555D03*
Y137697D03*
X741732Y138091D03*
Y146949D03*
X637402Y265846D03*
Y256988D03*
X647244Y265846D03*
Y256988D03*
Y287500D03*
Y278642D03*
Y237303D03*
Y246161D03*
X601969Y287500D03*
Y278642D03*
Y265846D03*
Y256988D03*
Y237303D03*
Y246161D03*
X613780Y287500D03*
Y278642D03*
X625591D03*
Y287500D03*
X637402D03*
Y278642D03*
X755512Y122146D03*
Y113287D03*
X605512Y138878D03*
Y147736D03*
X300787Y481201D03*
Y472343D03*
X340157Y468406D03*
Y477264D03*
X305906Y386713D03*
Y377854D03*
X313780D03*
Y386713D03*
X141339Y385925D03*
Y377067D03*
X153937Y459154D03*
Y450295D03*
X144488Y450689D03*
Y459547D03*
X335039Y386713D03*
Y377854D03*
X214173Y416437D03*
Y425295D03*
Y407579D03*
Y398720D03*
X241732Y400689D03*
Y409547D03*
X214173Y444980D03*
Y436122D03*
Y453839D03*
Y462697D03*
X332283Y477264D03*
Y468406D03*
X298031Y377854D03*
Y386713D03*
X342913Y377854D03*
Y386713D03*
X511417Y333760D03*
Y342618D03*
X140157Y331791D03*
Y340650D03*
X289370Y377854D03*
Y386713D03*
X321654Y377854D03*
Y386713D03*
X308268Y481201D03*
Y472343D03*
G54D60*
X198189Y247638D03*
X183701D03*
X239606Y246850D03*
X254094D03*
X246220Y235827D03*
X231732D03*
X419055Y249213D03*
X404567D03*
X458898D03*
X473386D03*
X466299Y239370D03*
X451811D03*
X699764Y274803D03*
X685276D03*
X701732Y350000D03*
X687244D03*
X685669Y137795D03*
X700157D03*
X626929Y231890D03*
X612441D03*
G54D61*
X206201Y381890D03*
X215059D03*
Y372047D03*
X206201D03*
X686122Y241732D03*
X694980D03*
Y251575D03*
X686122D03*
X694980Y231890D03*
X686122D03*
X694980Y261417D03*
X686122D03*
X260138Y447244D03*
X268996D03*
X371358Y431496D03*
X362500D03*
X260138Y415748D03*
X268996D03*
X371358Y422835D03*
X362500D03*
X260138Y439370D03*
X268996D03*
X260138Y423622D03*
X268996D03*
X371358Y443307D03*
X362500D03*
G54D62*
X166929Y221203D03*
Y234703D03*
X261417Y360687D03*
Y347187D03*
X275197Y360687D03*
Y347187D03*
X190551Y201518D03*
Y215018D03*
X261417Y372778D03*
Y386278D03*
X275197Y372778D03*
Y386278D03*
X285039Y223171D03*
Y236671D03*
X308661Y201518D03*
Y215018D03*
X117717Y353093D03*
Y366593D03*
X511024Y359392D03*
Y372892D03*
X200394Y126435D03*
Y112935D03*
X310630Y126435D03*
Y112935D03*
X298819D03*
Y126435D03*
X188583Y112935D03*
Y126435D03*
X418898Y126829D03*
Y113329D03*
X527165Y126435D03*
Y112935D03*
X515354D03*
Y126435D03*
X403937Y113329D03*
Y126829D03*
X472047Y354781D03*
Y341281D03*
X460236Y354781D03*
Y341281D03*
Y366872D03*
Y380372D03*
X472047Y366872D03*
Y380372D03*
X395669Y222778D03*
Y236278D03*
X416142Y199943D03*
Y213443D03*
X507480Y223171D03*
Y236671D03*
X529921Y199549D03*
Y213049D03*
X761417Y394152D03*
Y380652D03*
X592126Y405963D03*
Y392463D03*
X580315Y405963D03*
Y392463D03*
Y418053D03*
Y431553D03*
X592126Y418053D03*
Y431553D03*
X741732Y425648D03*
Y412148D03*
X761417Y453207D03*
Y439707D03*
X659055Y248482D03*
Y234982D03*
X670866Y248482D03*
Y234982D03*
Y260573D03*
Y274073D03*
X659055Y260573D03*
Y274073D03*
X728346Y114116D03*
Y127616D03*
X615748Y152419D03*
Y138919D03*
G54D63*
X261417Y300195D03*
Y281695D03*
Y330116D03*
Y311616D03*
X166535Y298620D03*
Y280120D03*
Y328541D03*
Y310041D03*
X483858Y292321D03*
Y273821D03*
Y323030D03*
Y304530D03*
X388583Y298620D03*
Y280120D03*
X388976Y329329D03*
Y310829D03*
X711024Y184053D03*
Y165553D03*
Y215156D03*
Y196656D03*
X614567Y186809D03*
Y168309D03*
X614173Y217518D03*
Y199018D03*
G54D64*
X145276Y115748D03*
X159055D03*
X172835D03*
X255512D03*
X269291D03*
X283071D03*
X361811D03*
X375591D03*
X389370D03*
X468110D03*
X481890D03*
X495669D03*
X694488D03*
X708268D03*
X592126D03*
X619685D03*
X414173Y478346D03*
X400394D03*
X386614D03*
X372835D03*
X359055D03*
G54D65*
X227442Y344469D03*
Y349469D03*
Y354469D03*
Y359469D03*
X204842D03*
Y354469D03*
Y349469D03*
Y344469D03*
X434135Y338563D03*
Y343563D03*
Y348563D03*
Y353563D03*
X411535D03*
Y348563D03*
Y343563D03*
Y338563D03*
G54D66*
X525197Y187992D03*
Y137992D03*
X511417Y187992D03*
Y137992D03*
X412992Y187992D03*
Y137992D03*
X304724Y187992D03*
Y137992D03*
X290945Y187992D03*
Y137992D03*
X184646Y188976D03*
Y138976D03*
X170866Y188976D03*
Y138976D03*
X399213Y187992D03*
Y137992D03*
X562205Y189173D03*
Y139173D03*
X576378Y167126D03*
Y117126D03*
G54D67*
X495220Y176592D03*
X476433D03*
Y194668D03*
X495220D03*
X383016Y176592D03*
X364228D03*
Y194668D03*
X383016D03*
X272780Y176592D03*
X253992D03*
Y194668D03*
X272780D03*
X154669Y174624D03*
X135882D03*
Y194668D03*
X154669D03*
G54D68*
X485827Y147992D03*
Y223268D03*
X373622Y147992D03*
Y223268D03*
X263386Y147992D03*
Y223268D03*
X145276Y146024D03*
Y223268D03*
G54D69*
X528917Y313682D03*
X523917D03*
X518917D03*
X513917D03*
X508917D03*
X503917D03*
X498917D03*
X493917D03*
Y276082D03*
X498917D03*
X503917D03*
X508917D03*
X513917D03*
X518917D03*
X523917D03*
X528917D03*
X308445Y313682D03*
X303445D03*
X298445D03*
X293445D03*
X288445D03*
X283445D03*
X278445D03*
X273445D03*
Y276082D03*
X278445D03*
X283445D03*
X288445D03*
X293445D03*
X298445D03*
X303445D03*
X308445D03*
X154902Y313682D03*
X149902D03*
X144902D03*
X139902D03*
X134902D03*
X129902D03*
X124902D03*
X119902D03*
Y276082D03*
X124902D03*
X129902D03*
X134902D03*
X139902D03*
X144902D03*
X149902D03*
X154902D03*
X379311Y313682D03*
X374311D03*
X369311D03*
X364311D03*
X359311D03*
X354311D03*
X349311D03*
X344311D03*
Y276082D03*
X349311D03*
X354311D03*
X359311D03*
X364311D03*
X369311D03*
X374311D03*
X379311D03*
X629547Y435709D03*
X624547D03*
X619547D03*
X614547D03*
Y413109D03*
X619547D03*
X624547D03*
X629547D03*
X561004Y203937D03*
X566004D03*
X571004D03*
X576004D03*
Y247244D03*
X571004D03*
X566004D03*
X561004D03*
X736201Y159055D03*
X741201D03*
X746201D03*
X751201D03*
Y202362D03*
X746201D03*
X741201D03*
X736201D03*
X627185Y266812D03*
X622185D03*
X617185D03*
X612185D03*
Y244212D03*
X617185D03*
X622185D03*
X627185D03*
G54D70*
X233858Y180709D03*
X117717D03*
X458268D03*
X348031D03*
G54D71*
X233858Y140709D03*
X117717D03*
X458268D03*
X348031D03*
G54D72*
X659646Y294291D03*
Y286811D03*
X669488Y290551D03*
X660039Y332087D03*
Y324606D03*
X669882Y328346D03*
G54D73*
X690551Y290945D03*
X700551D03*
X690551Y322441D03*
X700551D03*
X115591Y387402D03*
X125591Y397402D03*
X115591D03*
X125591Y407402D03*
X115591D03*
X125591Y417402D03*
X115591D03*
X125591Y427402D03*
X115591D03*
X125591Y437402D03*
X115591D03*
X125591Y447402D03*
X115591D03*
G54D74*
X740551Y290945D03*
X760551D03*
X740551Y322441D03*
X760551D03*
G54D75*
X386417Y458661D03*
X372638D03*
G54D76*
X777165Y233858D03*
Y247638D03*
Y261417D03*
Y275197D03*
Y288976D03*
Y302756D03*
Y316535D03*
Y330315D03*
Y353937D03*
Y367717D03*
Y381496D03*
Y395276D03*
Y409055D03*
Y422835D03*
Y436614D03*
Y450394D03*
X184252Y305512D03*
Y285827D03*
Y266142D03*
X243307D03*
Y285827D03*
Y305512D03*
Y325197D03*
X407087Y304724D03*
Y285039D03*
Y265354D03*
X466142D03*
Y285039D03*
Y304724D03*
Y324409D03*
X671654Y395276D03*
X691339D03*
X711024D03*
Y454331D03*
X691339D03*
X671654D03*
X651969D03*
X633465Y196063D03*
Y176378D03*
Y156693D03*
X692520D03*
Y176378D03*
Y196063D03*
Y215748D03*
G54D77*
X410827Y410039D03*
X418307D03*
X414567Y419882D03*
X410827Y429724D03*
X418307D03*
X414567Y439567D03*
G54D78*
X438583Y450000D03*
X444488D03*
X450394D03*
G54D79*
X672636Y376378D03*
X654136D03*
X705707Y375984D03*
X687207D03*
G54D80*
X116298Y116298D03*
Y478503D03*
X793463D03*
Y116298D03*
X336377Y115904D03*
G54D81*
X125591Y387402D03*
G54D82*
X290140Y397309D03*
X292110D03*
X294080D03*
X296050D03*
X298020D03*
X299990D03*
X301960D03*
X303930D03*
X305900D03*
X307870D03*
X309840D03*
X311810D03*
X313780D03*
X315750D03*
X317720D03*
X319690D03*
X321660D03*
X323630D03*
X325600D03*
X327570D03*
X329540D03*
X331510D03*
X333480D03*
X335450D03*
X337420D03*
Y457809D03*
X335450D03*
X333480D03*
X331510D03*
X329540D03*
X327570D03*
X325600D03*
X323630D03*
X321660D03*
X319690D03*
X317720D03*
X315750D03*
X313780D03*
X311810D03*
X309840D03*
X307870D03*
X305900D03*
X303930D03*
X301960D03*
X299990D03*
X298020D03*
X296050D03*
X294080D03*
X292110D03*
X290140D03*
G54D83*
X344030Y403919D03*
Y405889D03*
Y407859D03*
Y409829D03*
Y411799D03*
Y413769D03*
Y415739D03*
Y417709D03*
Y419679D03*
Y421649D03*
Y423619D03*
Y425589D03*
Y427559D03*
Y429529D03*
Y431499D03*
Y433469D03*
Y435439D03*
Y437409D03*
Y439379D03*
Y441349D03*
Y443319D03*
Y445289D03*
Y447259D03*
Y449229D03*
Y451199D03*
X283530D03*
Y449229D03*
Y447259D03*
Y445289D03*
Y443319D03*
Y441349D03*
Y439379D03*
Y437409D03*
Y435439D03*
Y433469D03*
Y431499D03*
Y429529D03*
Y427559D03*
Y425589D03*
Y423619D03*
Y421649D03*
Y419679D03*
Y417709D03*
Y415739D03*
Y413769D03*
Y411799D03*
Y409829D03*
Y407859D03*
Y405889D03*
Y403919D03*
G54D85*
X184252Y325197D03*
X407087Y324409D03*
X651969Y395276D03*
X633465Y215748D03*
G54D86*
X733465Y234764D03*
Y244764D03*
X706693D03*
Y234764D03*
X735433Y259961D03*
Y269961D03*
X708661D03*
Y259961D03*
X169193Y416949D03*
Y411949D03*
Y406949D03*
Y401949D03*
X191437D03*
Y406949D03*
Y411949D03*
Y416949D03*
G54D87*
X464921Y433366D03*
X469921D03*
X474921D03*
X479921D03*
X484921D03*
X489921D03*
X494921D03*
Y455610D03*
X489921D03*
X484921D03*
X479921D03*
X474921D03*
X469921D03*
X464921D03*
G54D88*
X227953Y401575D03*
Y424409D03*
Y461811D03*
Y438976D03*
G54D93*
X315748Y485827D03*
Y470079D03*
X325197D03*
Y485827D03*
G54D94*
X313780Y427559D03*
G54D95*
X200439Y460531D03*
X191339D03*
X182239D03*
G54D96*
X191339Y435531D03*
X0Y0D02*
M02*
