*
*
G04 PADS 9.5 Build Number: 522968 generated Gerber (RS-274-X) file*
G04 PC Version=2.1*
*
%IN "dcPower.pcb"*%
*
%MOIN*%
*
%FSLAX35Y35*%
*
*
*
*
G04 PC Standard Apertures*
*
*
G04 Thermal Relief Aperture macro.*
%AMTER*
1,1,$1,0,0*
1,0,$1-$2,0,0*
21,0,$3,$4,0,0,45*
21,0,$3,$4,0,0,135*
%
*
*
G04 Annular Aperture macro.*
%AMANN*
1,1,$1,0,0*
1,0,$2,0,0*
%
*
*
G04 Odd Aperture macro.*
%AMODD*
1,1,$1,0,0*
1,0,$1-0.005,0,0*
%
*
*
G04 PC Custom Aperture Macros*
*
*
*
*
*
*
G04 PC Aperture Table*
*
%ADD010C,0.001*%
%ADD042C,0.01*%
%ADD064C,0.08087*%
%ADD066C,0.07299*%
%ADD070R,0.07102X0.07102*%
%ADD071C,0.07102*%
%ADD073C,0.06906*%
%ADD074C,0.11*%
%ADD076C,0.08874*%
%ADD080C,0.28559*%
%ADD081R,0.06906X0.06906*%
%ADD085R,0.08874X0.08874*%
*
*
*
*
G04 PC Circuitry*
G04 Layer Name dcPower.pcb - circuitry*
%LPD*%
*
*
G04 PC Custom Flashes*
G04 Layer Name dcPower.pcb - flashes*
%LPD*%
*
*
G04 PC Circuitry*
G04 Layer Name dcPower.pcb - circuitry*
%LPD*%
*
G54D10*
G54D42*
G01X100000Y100000D02*
X808661D01*
Y493701*
X100000*
Y100000*
G54D64*
X145276Y115748D03*
X159055D03*
X172835D03*
X255512D03*
X269291D03*
X283071D03*
X361811D03*
X375591D03*
X389370D03*
X468110D03*
X481890D03*
X495669D03*
X694488D03*
X708268D03*
X592126D03*
X619685D03*
X414173Y478346D03*
X400394D03*
X386614D03*
X372835D03*
X359055D03*
G54D66*
X525197Y187992D03*
Y137992D03*
X511417Y187992D03*
Y137992D03*
X412992Y187992D03*
Y137992D03*
X304724Y187992D03*
Y137992D03*
X290945Y187992D03*
Y137992D03*
X184646Y188976D03*
Y138976D03*
X170866Y188976D03*
Y138976D03*
X399213Y187992D03*
Y137992D03*
X562205Y189173D03*
Y139173D03*
X576378Y167126D03*
Y117126D03*
G54D70*
X233858Y180709D03*
X117717D03*
X458268D03*
X348031D03*
G54D71*
X233858Y140709D03*
X117717D03*
X458268D03*
X348031D03*
G54D73*
X690551Y290945D03*
X700551D03*
X690551Y322441D03*
X700551D03*
X115591Y387402D03*
X125591Y397402D03*
X115591D03*
X125591Y407402D03*
X115591D03*
X125591Y417402D03*
X115591D03*
X125591Y427402D03*
X115591D03*
X125591Y437402D03*
X115591D03*
X125591Y447402D03*
X115591D03*
G54D74*
X740551Y290945D03*
X760551D03*
X740551Y322441D03*
X760551D03*
G54D76*
X777165Y233858D03*
Y247638D03*
Y261417D03*
Y275197D03*
Y288976D03*
Y302756D03*
Y316535D03*
Y330315D03*
Y353937D03*
Y367717D03*
Y381496D03*
Y395276D03*
Y409055D03*
Y422835D03*
Y436614D03*
Y450394D03*
X184252Y305512D03*
Y285827D03*
Y266142D03*
X243307D03*
Y285827D03*
Y305512D03*
Y325197D03*
X407087Y304724D03*
Y285039D03*
Y265354D03*
X466142D03*
Y285039D03*
Y304724D03*
Y324409D03*
X671654Y395276D03*
X691339D03*
X711024D03*
Y454331D03*
X691339D03*
X671654D03*
X651969D03*
X633465Y196063D03*
Y176378D03*
Y156693D03*
X692520D03*
Y176378D03*
Y196063D03*
Y215748D03*
G54D80*
X116298Y116298D03*
Y478503D03*
X793463D03*
Y116298D03*
X336377Y115904D03*
G54D81*
X125591Y387402D03*
G54D85*
X184252Y325197D03*
X407087Y324409D03*
X651969Y395276D03*
X633465Y215748D03*
X0Y0D02*
M02*
